<svg width="150" height="60" viewBox="0 0 150 60" fill="none" xmlns="http://www.w3.org/2000/svg">
<g clip-path="url(#clip0)">
<path fill-rule="evenodd" clip-rule="evenodd" d="M143.734 43.9363C143.653 43.9522 143.571 44.1278 143.571 44.2235C143.554 44.8622 143.538 46.5546 143.538 47.7041C143.538 47.7361 143.587 47.7999 143.636 47.7999C143.882 47.8158 144.472 47.8318 144.98 47.8318C145.684 47.8318 146.094 47.7361 146.323 47.6404C146.913 47.3529 147.192 46.7302 147.192 46.0435C147.192 44.4951 146.078 43.9043 144.423 43.9043C144.308 43.8884 143.98 43.8884 143.734 43.9363ZM147.962 51.0729C147.962 49.4923 146.766 48.6141 144.603 48.6141C144.505 48.6141 143.816 48.5982 143.652 48.63C143.603 48.6461 143.538 48.6781 143.538 48.726C143.538 49.8594 143.521 51.6637 143.571 52.3662C143.603 52.6694 143.833 53.1006 144.111 53.2283C144.406 53.3879 145.078 53.4198 145.537 53.4198C146.831 53.4198 147.962 52.7174 147.962 51.0729ZM140.392 43.0583C140.556 43.0583 141.047 43.106 142.309 43.106C143.505 43.106 144.455 43.0742 145.619 43.0742C147.044 43.0742 149.01 43.569 149.01 45.6446C149.01 46.6664 148.273 47.4807 147.306 47.8799C147.257 47.8958 147.257 47.9276 147.306 47.9435C148.683 48.279 149.895 49.1091 149.895 50.6736C149.895 52.2065 148.912 53.1803 147.487 53.7871C146.618 54.1542 145.537 54.2819 144.439 54.2819C143.603 54.2819 141.359 54.1862 140.113 54.2182C139.982 54.1701 140.228 53.5954 140.343 53.4997C140.638 53.4836 140.867 53.4677 141.178 53.3719C141.621 53.2603 141.67 53.1324 141.735 52.4779C141.768 51.9191 141.768 49.9392 141.768 48.5344C141.768 46.6025 141.785 45.2934 141.768 44.6548C141.752 44.16 141.572 44.0001 141.211 43.9043C140.932 43.8565 140.474 43.7925 140.097 43.7448C140.015 43.6648 140.293 43.1219 140.392 43.0583ZM130.937 52.9888C131.331 53.2919 132.101 53.4196 132.789 53.4196C133.674 53.4196 134.559 53.2603 135.411 52.5096C136.279 51.7435 136.885 50.562 136.885 48.6781C136.885 46.8738 136.181 45.405 134.739 44.543C133.92 44.0479 132.871 43.8406 131.659 43.8406C131.298 43.8406 130.954 43.8565 130.741 43.9522C130.692 43.9842 130.577 44.1278 130.577 44.2076C130.544 44.527 130.544 46.9856 130.544 48.4226C130.544 49.9074 130.544 51.9829 130.577 52.2224C130.577 52.462 130.692 52.8291 130.937 52.9888ZM127.218 43.0581C127.529 43.0581 128.725 43.106 129.299 43.106C130.331 43.106 131.069 43.0583 133.018 43.0583C134.657 43.0583 136.033 43.4892 137.016 44.3034C138.212 45.3093 138.835 46.6984 138.835 48.3906C138.835 50.8015 137.705 52.1905 136.574 52.9888C135.444 53.803 133.969 54.2819 131.872 54.2819C130.757 54.2819 128.84 54.25 127.251 54.234H127.235C127.153 54.0904 127.366 53.5315 127.497 53.5156C127.923 53.4677 128.037 53.4516 128.25 53.372C128.594 53.2442 128.66 53.0686 128.709 52.4779C128.758 51.3762 128.742 50.0511 128.742 48.5503C128.742 47.4807 128.758 45.3891 128.725 44.7185C128.676 44.1598 128.431 44.0161 127.939 43.9202C127.693 43.8725 127.366 43.8084 126.907 43.7607C126.841 43.6488 127.136 43.1538 127.218 43.0581Z" fill="#00265F"/>
<path fill-rule="evenodd" clip-rule="evenodd" d="M107.392 53.6113C106.982 53.5634 106.687 53.4997 106.327 53.34C106.278 53.308 106.196 53.1485 106.196 53.0845C106.163 52.5256 106.163 50.9291 106.163 49.8596C106.163 48.9973 106.016 48.247 105.639 47.7202C105.196 47.1132 104.557 46.7622 103.738 46.7622C103.017 46.7622 102.05 47.2411 101.247 47.9117C101.231 47.9276 101.1 48.0395 101.116 47.8638C101.116 47.6882 101.149 47.3369 101.165 47.0973C101.182 46.8738 101.051 46.7622 101.051 46.7622C100.526 47.0176 99.0518 47.3529 98.511 47.4006C98.1179 47.4807 98.0195 47.8478 98.4293 47.9755H98.4457C98.8878 48.1032 99.1829 48.247 99.4121 48.3907C99.576 48.5184 99.5597 48.694 99.5597 48.8378C99.576 50.035 99.576 51.8712 99.527 52.877C99.5106 53.2762 99.3959 53.4198 99.1008 53.4836L99.1337 53.4677C98.9043 53.5156 98.7241 53.5634 98.4455 53.5954C98.3471 53.6912 98.3471 54.2021 98.4455 54.3139C98.6257 54.3139 99.576 54.2659 100.363 54.2659C101.444 54.2659 102.001 54.3139 102.28 54.3139C102.394 54.1862 102.427 53.7071 102.362 53.5954C102.05 53.5794 101.821 53.5476 101.608 53.4836C101.313 53.4196 101.231 53.2762 101.214 52.9409C101.182 52.0945 101.182 50.3065 101.182 49.0932C101.182 48.7579 101.28 48.5982 101.378 48.5023C101.755 48.1831 102.362 47.9596 102.902 47.9596C103.427 47.9596 103.771 48.1193 104.033 48.3269C104.393 48.6141 104.508 49.0293 104.557 49.3326C104.639 50.0191 104.606 51.3762 104.606 52.5577C104.606 53.1962 104.557 53.3559 104.312 53.4357C104.197 53.4836 103.902 53.5476 103.558 53.5793C103.443 53.6912 103.476 54.1862 103.558 54.2979C104.033 54.2979 104.59 54.25 105.409 54.25C106.425 54.25 107.081 54.2979 107.343 54.2979C107.425 54.2021 107.457 53.7391 107.392 53.6113ZM111.931 47.5127C111.062 47.5127 110.521 48.1672 110.521 49.1888C110.521 50.2267 110.997 51.4241 112.34 51.4241C112.57 51.4241 112.996 51.3283 113.192 51.1047C113.504 50.8175 113.717 50.2426 113.717 49.6359C113.717 48.3108 113.045 47.5125 111.931 47.5125V47.5127ZM111.816 54.5692C111.488 54.5692 111.259 54.6651 111.111 54.745C110.423 55.1758 110.112 55.591 110.112 56.0862C110.112 56.549 110.292 56.9161 110.685 57.2355C111.161 57.6346 111.816 57.8263 112.651 57.8263C114.323 57.8263 115.06 56.9481 115.06 56.0862C115.06 55.4793 114.749 55.0801 114.11 54.8568C113.651 54.6651 112.816 54.5692 111.816 54.5692ZM111.931 58.7204C110.931 58.7204 110.21 58.5128 109.588 58.0498C108.981 57.6028 108.719 56.9322 108.719 56.4692C108.719 56.3415 108.752 55.9901 109.047 55.6709C109.227 55.4793 109.62 55.1121 110.554 54.4895C110.587 54.4736 110.603 54.4576 110.603 54.4255C110.603 54.3936 110.57 54.3616 110.538 54.3459C109.768 54.0585 109.538 53.5954 109.473 53.34V53.308C109.456 53.2121 109.424 53.1165 109.571 53.0206C109.686 52.9409 109.85 52.845 110.03 52.7334C110.308 52.5736 110.603 52.398 110.784 52.2542C110.816 52.2224 110.816 52.1905 110.816 52.1585C110.816 52.1265 110.784 52.0945 110.751 52.0788C109.604 51.7115 109.031 50.8812 109.031 49.6359C109.031 48.8217 109.407 48.0873 110.079 47.6243C110.538 47.2731 111.685 46.842 112.439 46.842H112.488C113.258 46.8579 113.684 47.0176 114.29 47.2252C114.618 47.3369 114.929 47.3847 115.355 47.3847C115.994 47.3847 116.273 47.1932 116.502 46.9698C116.518 47.0017 116.551 47.0816 116.568 47.289C116.584 47.4966 116.518 47.7999 116.355 48.0234C116.224 48.199 115.929 48.3269 115.634 48.3269H115.552C115.257 48.2949 115.126 48.2629 115.126 48.2629L115.06 48.2949C115.044 48.3269 115.06 48.3587 115.077 48.4067L115.093 48.4387C115.126 48.5823 115.191 49.0132 115.191 49.1252C115.191 50.4343 114.651 51.0089 114.077 51.44C113.52 51.8391 112.881 52.0945 112.16 52.1585C112.144 52.1585 112.078 52.1585 111.931 52.1744C111.849 52.1744 111.734 52.1905 111.717 52.1905H111.701C111.57 52.2224 111.243 52.3821 111.243 52.6533C111.243 52.8928 111.39 53.1803 112.094 53.2282C112.242 53.2442 112.389 53.2442 112.553 53.2602C113.487 53.3239 114.651 53.4038 115.191 53.5794C115.945 53.8507 116.42 54.5054 116.42 55.2877C116.42 56.4694 115.552 57.5709 114.11 58.2573C113.405 58.5607 112.701 58.7204 111.931 58.7204ZM121.27 47.5925C120.926 47.5925 120.615 47.6721 120.385 47.8317C119.746 48.215 119.419 48.9814 119.419 50.0989C119.419 52.1905 120.5 53.6594 122.04 53.6594C122.499 53.6594 122.86 53.5315 123.171 53.2762C123.646 52.8928 123.892 52.1265 123.892 51.0568C123.892 48.9814 122.827 47.5923 121.27 47.5923L121.27 47.5925ZM121.565 54.4256C118.78 54.4256 117.78 52.43 117.78 50.562C117.78 49.2528 118.321 48.247 119.402 47.5285C120.172 47.0655 121.09 46.8101 121.909 46.8101C124.039 46.8101 125.53 48.2949 125.53 50.4343C125.53 51.8871 124.941 53.0365 123.81 53.7391C123.269 54.0903 122.335 54.4256 121.565 54.4256H121.565ZM92.3666 47.5923C92.0225 47.5923 91.7113 47.6721 91.4817 47.8317C90.8429 48.215 90.5151 48.9814 90.5151 50.0989C90.5151 52.1905 91.5964 53.6594 93.1367 53.6594C93.5955 53.6594 93.956 53.5315 94.2674 53.2762C94.7424 52.8928 94.9883 52.1265 94.9883 51.0568C94.9883 48.9814 93.9396 47.5923 92.3666 47.5923ZM92.6616 54.4256C89.8761 54.4256 88.8766 52.43 88.8766 50.562C88.8766 49.2528 89.4173 48.247 90.4986 47.5285C91.2688 47.0655 92.1864 46.8101 93.0057 46.8101C95.1358 46.8101 96.6268 48.2949 96.6268 50.4343C96.6268 51.8871 96.0369 53.0365 94.9062 53.7391C94.3819 54.0903 93.448 54.4256 92.6616 54.4256ZM73.9332 54.2659C73.9004 54.2182 73.8675 54.0744 73.884 53.8988C73.884 53.771 73.9169 53.6912 73.9332 53.6594C74.2773 53.6113 74.4576 53.5634 74.6541 53.5156C74.9819 53.4357 75.1129 53.2602 75.1293 52.8611C75.1786 51.9032 75.1786 50.0829 75.1621 48.8217V48.7897C75.1621 48.6461 75.1621 48.4703 74.9819 48.3426C74.7196 48.1831 74.4084 48.0395 73.9988 47.9274C73.8514 47.8798 73.753 47.7999 73.7693 47.7042C73.7693 47.6084 73.8677 47.4966 74.0808 47.4646C74.6214 47.4167 76.0304 47.0816 76.5875 46.842C76.6204 46.8738 76.6696 46.9698 76.6696 47.0975L76.6532 47.2729C76.6367 47.4487 76.6204 47.6563 76.6204 47.8638C76.6204 47.9276 76.6861 47.9755 76.7514 47.9755C76.7843 47.9755 76.8171 47.9596 76.8498 47.9435C77.8984 47.1452 78.8487 46.8579 79.3402 46.8579C80.1433 46.8579 80.766 47.2252 81.2411 47.9914C81.2738 48.0395 81.3066 48.0554 81.3558 48.0554C81.3885 48.0554 81.4375 48.0395 81.454 48.0075C82.4208 47.289 83.3876 46.8579 84.0264 46.8579C85.5502 46.8579 86.4515 47.9596 86.4515 49.8276C86.4515 50.3544 86.4515 51.0409 86.4352 51.6637C86.4352 52.2224 86.4188 52.7333 86.4188 53.1006C86.4188 53.1801 86.5334 53.4357 86.7136 53.4836C86.943 53.5954 87.2544 53.6433 87.6641 53.7071H87.6804C87.7132 53.8189 87.6477 54.2339 87.5822 54.3139C87.4838 54.3139 87.3363 54.3139 87.1726 54.2979C86.7578 54.2769 86.3425 54.2662 85.9272 54.2659C84.9114 54.2659 84.3871 54.2819 83.8789 54.3139C83.8464 54.1862 83.8299 53.803 83.8789 53.7071C84.174 53.6594 84.3214 53.6113 84.5018 53.5635C84.8295 53.4677 84.9114 53.3239 84.9279 52.9089C84.9279 52.6056 84.9932 50.0191 84.8949 49.3964C84.7967 48.7579 84.305 48.0075 83.2235 48.0075C82.8139 48.0075 82.1751 48.1672 81.5524 48.63C81.5197 48.662 81.4867 48.7418 81.4867 48.7897V48.8058C81.5524 49.1409 81.5524 49.5243 81.5524 50.1149V51.1527C81.5524 51.8712 81.5359 52.5417 81.5524 53.0525C81.5524 53.4038 81.7654 53.4836 81.9457 53.5476C82.044 53.5634 82.1094 53.5794 82.1914 53.5954C82.3388 53.6274 82.4863 53.6594 82.7157 53.7071C82.7486 53.7711 82.7486 53.9786 82.6994 54.1542C82.6829 54.25 82.65 54.2978 82.6337 54.3139C82.0767 54.2979 81.5032 54.2819 80.6676 54.2819C80.4219 54.2819 79.9957 54.2979 79.6353 54.2979C79.3402 54.2979 79.0618 54.3139 78.8981 54.3139C78.8816 54.2819 78.8487 54.1703 78.8487 53.9945C78.8487 53.8509 78.8816 53.7391 78.9144 53.7071C78.9963 53.6912 79.0618 53.6753 79.1438 53.6753C79.3402 53.6433 79.5043 53.6113 79.668 53.5794C79.9467 53.4997 80.0449 53.3559 80.0613 53.0047C80.1104 52.2064 80.1596 49.9234 80.0449 49.3485C79.8484 48.4226 79.3077 47.9596 78.4391 47.9596C77.9313 47.9596 77.2921 48.199 76.7679 48.5824C76.6859 48.6461 76.6204 48.8056 76.6204 48.9494V49.8914C76.6204 51.0409 76.6204 52.4779 76.6367 53.1006C76.6532 53.2919 76.7186 53.5156 77.0955 53.5954C77.1776 53.6113 77.3086 53.6433 77.4725 53.6594L77.7672 53.7071C77.8002 53.803 77.7837 54.1862 77.7182 54.3139C77.5543 54.3139 77.3578 54.2979 77.1282 54.2979C76.7843 54.2819 76.3418 54.2659 75.8503 54.2659C75.2768 54.2659 74.8672 54.2819 74.5394 54.2979C74.31 54.2659 74.1298 54.2659 73.9332 54.2659Z" fill="#00409F"/>
<path fill-rule="evenodd" clip-rule="evenodd" d="M65.3144 58.0975L64.6427 57.8738C64.6427 57.8738 64.7247 54.5372 63.4957 54.2977C62.6766 53.3716 63.6271 15.0225 66.5763 54.1699C66.5763 54.1699 65.5603 54.6647 65.3801 55.5111C65.1834 56.3413 65.3144 58.0975 65.3144 58.0975Z" fill="#00265F"/>
<path fill-rule="evenodd" clip-rule="evenodd" d="M65.3144 58.0975L64.6427 57.8738C64.6427 57.8738 64.7247 54.5372 63.4957 54.2977C62.6766 53.3716 63.6271 15.0225 66.5763 54.1699C66.5763 54.1699 65.5603 54.6647 65.3801 55.5111C65.1834 56.3413 65.3144 58.0975 65.3144 58.0975Z" fill="#838383"/>
<path fill-rule="evenodd" clip-rule="evenodd" d="M65.6749 54.8726C65.6749 54.8726 71.5573 51.1046 70.1807 43.2654C68.8537 37.566 65.7241 35.698 65.38 34.9795C65.0032 34.4686 64.6426 33.5747 64.6426 33.5747L64.8885 49.4282C64.8885 49.4443 64.3805 54.2818 65.6751 54.8728" fill="#00265F"/>
<path fill-rule="evenodd" clip-rule="evenodd" d="M65.6749 54.8726C65.6749 54.8726 71.5573 51.1046 70.1807 43.2654C68.8537 37.566 65.7241 35.698 65.38 34.9795C65.0032 34.4686 64.6426 33.5747 64.6426 33.5747L64.8885 49.4282C64.8885 49.4443 64.3805 54.2818 65.6751 54.8728" fill="#00409F"/>
<path fill-rule="evenodd" clip-rule="evenodd" d="M64.2989 55.0806C64.2989 55.0806 58.7768 51.4085 59.1046 44.9426C59.4159 38.4766 63.3155 35.2994 64.0693 34.7247C64.5609 34.2138 64.5773 34.0221 64.6101 33.5112C64.9542 34.2297 64.8887 44.2561 64.9377 45.4374C65.0851 49.9875 64.6756 54.2186 64.2989 55.0806Z" fill="#00265F"/>
<path fill-rule="evenodd" clip-rule="evenodd" d="M64.2989 55.0806C64.2989 55.0806 58.7768 51.4085 59.1046 44.9426C59.4159 38.4766 63.3155 35.2994 64.0693 34.7247C64.5609 34.2138 64.5773 34.0221 64.6101 33.5112C64.9542 34.2297 64.8887 44.2561 64.9377 45.4374C65.0851 49.9875 64.6756 54.2186 64.2989 55.0806Z" fill="#00265F"/>
</g>
<g clip-path="url(#clip1)">
<path d="M23.636 0.761853C25.0485 -0.0860196 26.8881 -0.0898493 28.2994 0.761853C35.3991 4.96909 42.501 9.16973 49.5995 13.3795C50.9346 14.1682 51.8277 15.7265 51.8141 17.34V42.6523C51.8241 44.3325 50.8427 45.9281 49.4342 46.6989C42.3578 50.883 35.2851 55.0721 28.2099 59.2562C26.7682 60.1206 24.8916 60.054 23.495 59.1187C21.3735 57.8289 19.2484 56.5455 17.1267 55.257C16.6931 54.9859 16.2044 54.7702 15.8983 54.3293C16.1689 53.9468 16.6528 53.8991 17.0459 53.7321C17.9315 53.4368 18.7448 52.9627 19.5584 52.5027C19.7641 52.3551 20.0153 52.4117 20.2125 52.5438C22.0266 53.6347 23.8247 54.7572 25.6449 55.8376C26.0332 56.0728 26.4264 55.7606 26.7583 55.5666C33.7024 51.4506 40.655 47.3502 47.5979 43.233C47.8552 43.1032 47.9974 42.8168 47.9765 42.5212C47.9813 34.1712 47.9777 25.8197 47.9789 17.4697C48.0083 17.1344 47.8233 16.8261 47.5342 16.6889C40.4824 12.524 33.4342 8.35271 26.3836 4.18675C26.2614 4.09868 26.1167 4.05142 25.9685 4.05119C25.8202 4.05096 25.6754 4.09777 25.553 4.18547C18.5024 8.35271 11.4554 12.5278 4.40483 16.6925C4.11675 16.83 3.9234 17.1331 3.95769 17.4697C3.95891 25.8197 3.95769 34.1712 3.95769 42.5225C3.94546 42.6667 3.97566 42.8114 4.04422 42.937C4.11277 43.0627 4.2164 43.1633 4.34113 43.2253C6.22262 44.3442 8.10654 45.4553 9.98924 46.5704C11.0499 47.1691 12.3522 47.5249 13.5207 47.0661C14.552 46.6783 15.2748 45.5747 15.2551 44.4264C15.2649 36.1251 15.2503 27.8225 15.2624 19.5225C15.2367 19.154 15.57 18.8495 15.9117 18.8842C16.8157 18.8778 17.7209 18.8714 18.6249 18.8868C19.0023 18.8778 19.262 19.2746 19.2153 19.6459C19.2117 27.9998 19.225 36.3538 19.2092 44.7076C19.2117 46.934 18.3395 49.3566 16.3758 50.4459C13.9567 51.7602 10.9667 51.4815 8.57681 50.2213C6.50786 49.1383 4.53346 47.8602 2.50123 46.7C1.089 45.9334 0.112548 44.3315 0.122489 42.6525V17.34C0.107679 15.6931 1.03625 14.1065 2.41298 13.3293C9.48814 9.14186 16.5621 4.95122 23.636 0.761853Z" fill="#00265F"/>
<path d="M29.8084 18.2959C32.8942 18.0876 36.1977 18.1725 38.9744 19.7667C41.1243 20.9884 42.3162 23.5525 42.3542 26.0574C42.2941 26.3952 41.9573 26.5816 41.6498 26.5584C40.7545 26.5572 39.859 26.5712 38.9637 26.5521C38.5839 26.5674 38.3632 26.2001 38.3155 25.848C38.0582 24.6495 37.435 23.4625 36.3593 22.8844C34.7081 22.0174 32.7936 22.061 30.993 22.0791C29.6786 22.1523 28.2651 22.2716 27.1515 23.0823C26.2966 23.6963 26.0369 24.9359 26.3421 25.9342C26.6297 26.651 27.4187 26.8823 28.0643 27.0955C31.783 28.1155 35.7237 28.014 39.3715 29.3563C40.8817 29.9035 42.359 30.9674 42.876 32.6257C43.5522 34.8482 43.2558 37.5048 41.748 39.2891C40.5252 40.7574 38.7444 41.5565 36.9682 41.9906C34.6053 42.5431 32.1531 42.5572 29.7535 42.3118C27.497 42.0421 25.1489 41.4204 23.407 39.808C21.9175 38.4516 21.19 36.3382 21.2622 34.2984C21.2795 33.954 21.6065 33.7138 21.9212 33.7421C22.8228 33.7344 23.7243 33.7318 24.6259 33.7433C24.986 33.7163 25.253 34.0427 25.2715 34.3987C25.4378 35.5406 25.847 36.7391 26.7965 37.4161C28.6289 38.6559 30.9281 38.571 33.0263 38.6057C34.7645 38.5248 36.7158 38.5004 38.1343 37.2955C38.8827 36.6082 39.1045 35.4584 38.9022 34.4693C38.6831 33.6342 37.8501 33.245 37.1347 32.9906C33.4637 31.7727 29.479 32.2146 25.8434 30.8374C24.3675 30.2904 22.9402 29.2561 22.3732 27.6659C21.582 25.4152 21.9445 22.6314 23.6103 20.9074C25.2346 19.1925 27.5792 18.5321 29.8084 18.2957V18.2959Z" fill="#00265F"/>
</g>
<path d="M69.5076 23.5172V15.8736H80.346V15.4265H69.5076V8.45331H81.0312V8.00635H69V23.9642H81.1327V23.5172H69.5078H69.5076ZM90.9051 12.4763L86.4124 17.6838L82.0211 12.4764H81.3612L86.1077 18.0192L80.9041 23.964H81.5134L86.4121 18.3542L91.3363 23.964H91.9708L86.7421 18.0189L91.514 12.4761H90.9049L90.9051 12.4763ZM93.494 27.8978V20.7459H93.5447C93.8494 21.7889 94.4501 22.627 95.3469 23.2603C96.2438 23.8935 97.3859 24.2102 98.7735 24.2102C99.6703 24.2102 100.466 24.05 101.159 23.7297C101.853 23.4093 102.433 22.9735 102.898 22.4222C103.363 21.8709 103.719 21.2302 103.964 20.5C104.21 19.77 104.332 19.0026 104.332 18.1981C104.332 17.3339 104.205 16.5367 103.951 15.8066C103.698 15.0765 103.33 14.4432 102.847 13.9069C102.365 13.3705 101.781 12.9531 101.096 12.6554C100.411 12.3573 99.6365 12.2083 98.7735 12.2083C98.1135 12.2083 97.5002 12.294 96.9333 12.4653C96.3664 12.6367 95.8631 12.8787 95.4231 13.1917C94.9806 13.507 94.5954 13.8801 94.2808 14.2979C93.9594 14.7226 93.714 15.1882 93.5447 15.6949H93.494V12.4763H92.9864V27.8978H93.494ZM98.7735 23.7853C97.183 23.7853 95.9053 23.3048 94.9408 22.3438C93.9763 21.3828 93.494 20.0008 93.494 18.1979C93.494 17.4528 93.6125 16.7451 93.8494 16.0747C94.0863 15.4042 94.4289 14.8156 94.8773 14.3091C95.3258 13.8024 95.88 13.4001 96.5398 13.1022C97.1997 12.8041 97.9444 12.6551 98.7735 12.6551C99.6196 12.6551 100.36 12.8041 100.994 13.1022C101.629 13.4001 102.154 13.8062 102.568 14.3202C102.983 14.8342 103.296 15.4229 103.507 16.0858C103.719 16.7489 103.825 17.4528 103.825 18.1979C103.825 18.8685 103.727 19.5353 103.533 20.1982C103.338 20.8613 103.038 21.4573 102.632 21.9864C102.226 22.5151 101.705 22.9472 101.071 23.2826C100.436 23.6178 99.6703 23.7853 98.7735 23.7853ZM107.124 23.9642V17.4604C107.124 16.8346 107.226 16.2236 107.429 15.6277C107.632 15.0317 107.945 14.5064 108.368 14.052C108.791 13.5976 109.328 13.2399 109.98 12.9792C110.631 12.7184 111.405 12.6104 112.302 12.6551V12.2081C111.524 12.1934 110.843 12.2677 110.259 12.4316C109.675 12.5955 109.172 12.819 108.749 13.1022C108.326 13.3852 107.987 13.7167 107.734 14.0967C107.48 14.4761 107.292 14.8866 107.175 15.3147H107.124V12.4763H106.617V23.9643H107.124V23.9642ZM112.937 18.3096H123.851C123.885 17.5199 123.796 16.7601 123.585 16.03C123.373 15.2998 123.035 14.6517 122.57 14.0856C122.104 13.5194 121.503 13.0649 120.767 12.7222C120.031 12.3794 119.156 12.2081 118.14 12.2081C117.413 12.2081 116.702 12.3423 116.008 12.6105C115.314 12.8787 114.705 13.2697 114.181 13.7838C113.656 14.2978 113.233 14.9273 112.912 15.6725C112.59 16.4174 112.429 17.2667 112.429 18.2203C112.429 19.0695 112.539 19.863 112.759 20.6005C112.979 21.338 113.318 21.9788 113.774 22.5227C114.231 23.0665 114.82 23.4874 115.539 23.7853C116.258 24.0834 117.125 24.2249 118.14 24.21C119.629 24.21 120.882 23.8412 121.897 23.1038C122.912 22.3661 123.513 21.3269 123.699 19.9859H123.191C122.971 21.2525 122.409 22.2023 121.503 22.8355C120.598 23.4688 119.46 23.7853 118.089 23.7853C117.159 23.7853 116.372 23.6438 115.729 23.3608C115.086 23.0777 114.561 22.6902 114.155 22.1986C113.749 21.7068 113.449 21.1294 113.254 20.4664C113.059 19.8034 112.954 19.0844 112.937 18.3096ZM123.344 17.8627H112.937C112.988 17.0581 113.157 16.3354 113.444 15.6948C113.732 15.054 114.109 14.5064 114.574 14.052C115.039 13.5976 115.581 13.2512 116.199 13.0127C116.816 12.7743 117.48 12.6551 118.191 12.6551C119.037 12.6551 119.782 12.793 120.425 13.0686C121.068 13.3443 121.605 13.7206 122.036 14.1973C122.468 14.6741 122.794 15.2292 123.014 15.8623C123.234 16.4956 123.344 17.1624 123.344 17.8627ZM134.385 15.8736H134.893C134.893 14.5921 134.47 13.6609 133.624 13.0798C132.777 12.4987 131.627 12.2081 130.172 12.2081C129.359 12.2081 128.674 12.2976 128.115 12.4764C127.557 12.6551 127.1 12.8861 126.745 13.1691C126.39 13.4522 126.136 13.7651 125.983 14.1079C125.831 14.4506 125.755 14.7784 125.755 15.0913C125.755 15.717 125.882 16.2162 126.136 16.5887C126.39 16.9612 126.787 17.2518 127.329 17.4604C127.701 17.6093 128.124 17.7434 128.598 17.8628C129.072 17.9819 129.622 18.1085 130.248 18.2426C130.806 18.3619 131.356 18.4811 131.898 18.6002C132.439 18.7194 132.917 18.8796 133.332 19.0807C133.746 19.2819 134.085 19.5389 134.347 19.8519C134.609 20.1647 134.74 20.5745 134.74 21.081C134.74 21.5728 134.609 21.99 134.347 22.3326C134.087 22.6735 133.745 22.9597 133.344 23.1708C132.938 23.3868 132.485 23.5432 131.986 23.6401C131.487 23.7369 131.001 23.7853 130.527 23.7853C128.987 23.7853 127.807 23.4837 126.986 22.8803C126.165 22.2768 125.755 21.3269 125.755 20.0305H125.247C125.247 21.4759 125.692 22.5338 126.58 23.2044C127.468 23.8748 128.784 24.21 130.527 24.21C131.085 24.21 131.648 24.1541 132.215 24.0424C132.782 23.9306 133.289 23.7482 133.738 23.4948C134.182 23.245 134.556 22.9086 134.829 22.5115C135.108 22.1091 135.248 21.6175 135.248 21.0364C135.248 20.485 135.125 20.0381 134.88 19.6953C134.635 19.3527 134.313 19.0695 133.915 18.8461C133.518 18.6226 133.069 18.4475 132.57 18.3209C132.068 18.1935 131.565 18.0705 131.06 17.952C130.439 17.8085 129.817 17.6669 129.194 17.5274C128.661 17.4082 128.166 17.2667 127.709 17.1027C127.27 16.9388 126.918 16.7042 126.656 16.3988C126.394 16.0933 126.263 15.6575 126.263 15.0913C126.263 14.987 126.296 14.8007 126.364 14.5326C126.432 14.2643 126.593 13.9924 126.846 13.7167C127.1 13.4412 127.489 13.1953 128.014 12.9792C128.539 12.7632 129.258 12.6551 130.172 12.6551C130.798 12.6551 131.369 12.7148 131.885 12.8339C132.401 12.9531 132.845 13.1431 133.217 13.4039C133.59 13.6646 133.877 13.9961 134.08 14.3984C134.283 14.8008 134.385 15.2925 134.385 15.8736ZM146.137 15.8736H146.645C146.645 14.5921 146.222 13.6609 145.376 13.0798C144.529 12.4987 143.379 12.2081 141.923 12.2081C141.111 12.2081 140.426 12.2976 139.868 12.4764C139.309 12.6551 138.852 12.8861 138.497 13.1691C138.142 13.4522 137.888 13.7651 137.735 14.1079C137.583 14.4506 137.507 14.7784 137.507 15.0913C137.507 15.717 137.634 16.2162 137.888 16.5887C138.142 16.9612 138.539 17.2518 139.081 17.4604C139.453 17.6093 139.876 17.7434 140.35 17.8628C140.824 17.9819 141.373 18.1085 142 18.2426C142.558 18.3619 143.108 18.4811 143.65 18.6002C144.191 18.7194 144.669 18.8796 145.084 19.0807C145.498 19.2819 145.837 19.5389 146.099 19.8519C146.361 20.1647 146.492 20.5745 146.492 21.081C146.492 21.5728 146.361 21.99 146.099 22.3326C145.839 22.6735 145.497 22.9597 145.096 23.1708C144.69 23.3868 144.238 23.5432 143.738 23.6401C143.239 23.7369 142.753 23.7853 142.279 23.7853C140.739 23.7853 139.559 23.4837 138.738 22.8803C137.917 22.2768 137.507 21.3269 137.507 20.0305H136.999C136.999 21.4759 137.443 22.5338 138.332 23.2044C139.22 23.8748 140.536 24.21 142.279 24.21C142.837 24.21 143.4 24.1541 143.967 24.0424C144.534 23.9306 145.041 23.7482 145.49 23.4948C145.934 23.245 146.308 22.9086 146.581 22.5115C146.86 22.1091 147 21.6175 147 21.0364C147 20.485 146.877 20.0381 146.632 19.6953C146.387 19.3527 146.065 19.0695 145.667 18.8461C145.27 18.6226 144.821 18.4475 144.322 18.3209C143.82 18.1935 143.317 18.0705 142.812 17.952C142.191 17.8085 141.569 17.6669 140.946 17.5274C140.413 17.4082 139.918 17.2667 139.461 17.1027C139.021 16.9388 138.67 16.7042 138.408 16.3988C138.146 16.0933 138.015 15.6575 138.015 15.0913C138.015 14.987 138.048 14.8007 138.116 14.5326C138.184 14.2643 138.345 13.9924 138.598 13.7167C138.852 13.4412 139.241 13.1953 139.766 12.9792C140.291 12.7632 141.01 12.6551 141.924 12.6551C142.55 12.6551 143.121 12.7148 143.637 12.8339C144.153 12.9531 144.597 13.1431 144.969 13.4039C145.342 13.6646 145.629 13.9961 145.832 14.3984C146.036 14.8008 146.137 15.2925 146.137 15.8736H146.137Z" fill="#00265F"/>
<defs>
<clipPath id="clip0">
<rect x="59.0908" y="33.4736" width="90.9091" height="25.2632" fill="white"/>
</clipPath>
<clipPath id="clip1">
<rect width="51.9481" height="60" fill="white"/>
</clipPath>
</defs>
</svg>
