<svg width="35" height="35" viewBox="0 0 35 35" fill="none" xmlns="http://www.w3.org/2000/svg">
<g clip-path="url(#clip0)">
<path d="M4.22479 6.09729C7.76854 1.97313 12.6292 0 17.4548 0C23.7081 0 29.9017 3.31479 33.0838 9.55792C29.1142 9.55937 22.8988 9.55792 19.5315 9.55792C17.0902 9.55937 15.5138 9.50396 13.806 10.4023C11.7994 11.4581 10.2842 13.4167 9.75625 15.7165L4.22479 6.09729V6.09729ZM11.6769 17.5C11.6769 20.7083 14.2858 23.3187 17.4927 23.3187C20.6996 23.3187 23.3085 20.7083 23.3085 17.5C23.3085 14.2917 20.6996 11.6798 17.4927 11.6798C14.2858 11.6798 11.6769 14.2917 11.6769 17.5ZM19.7502 25.1169C16.4865 26.0881 12.6656 25.0104 10.5729 21.3996C8.97604 18.6419 4.75563 11.289 2.83646 7.94646C0.896875 10.9215 0 14.2085 0 17.4358C0 25.3808 5.43375 32.9671 14.1065 34.6704L19.7502 25.1169ZM22.8973 11.6798C25.6156 14.2085 26.2092 18.3035 24.3658 21.4783C22.979 23.8715 18.55 31.3454 16.4033 34.965C26.8873 35.611 35 27.1483 35 17.5058C35 15.591 34.6792 13.6267 33.9938 11.6798H22.8973V11.6798Z" fill="#313131"/>
</g>
<defs>
<clipPath id="clip0">
<rect width="35" height="35" fill="white"/>
</clipPath>
</defs>
</svg>
