<svg width="91" height="26" viewBox="0 0 91 26" fill="none" xmlns="http://www.w3.org/2000/svg">
<g clip-path="url(#clip0)">
<path fill-rule="evenodd" clip-rule="evenodd" d="M84.6435 10.4627C84.5618 10.4786 84.4798 10.6542 84.4798 10.7499C84.4634 11.3886 84.4471 13.081 84.4471 14.2305C84.4471 14.2625 84.4961 14.3263 84.5453 14.3263C84.791 14.3422 85.3809 14.3581 85.8889 14.3581C86.5934 14.3581 87.003 14.2625 87.2326 14.1668C87.8223 13.8792 88.1009 13.2566 88.1009 12.5699C88.1009 11.0215 86.9867 10.4307 85.3317 10.4307C85.217 10.4147 84.8896 10.4147 84.6435 10.4627ZM88.8711 17.5993C88.8711 16.0187 87.6749 15.1405 85.5121 15.1405C85.4137 15.1405 84.7255 15.1246 84.5616 15.1564C84.5125 15.1725 84.4471 15.2045 84.4471 15.2524C84.4471 16.3858 84.4306 18.1901 84.4798 18.8925C84.5125 19.1958 84.742 19.6269 85.0206 19.7546C85.3154 19.9143 85.9872 19.9461 86.446 19.9461C87.7404 19.9461 88.8711 19.2437 88.8711 17.5993ZM81.3012 9.58465C81.4649 9.58465 81.9564 9.6324 83.2181 9.6324C84.4143 9.6324 85.3645 9.60056 86.5279 9.60056C87.9533 9.60056 89.9196 10.0954 89.9196 12.171C89.9196 13.1927 89.1822 14.0071 88.2156 14.4062C88.1666 14.4221 88.1666 14.454 88.2156 14.4699C89.5918 14.8054 90.8045 15.6355 90.8045 17.2C90.8045 18.7328 89.8214 19.7067 88.3958 20.3134C87.5274 20.6806 86.446 20.8082 85.3482 20.8082C84.5125 20.8082 82.2678 20.7126 81.0226 20.7446C80.8915 20.6965 81.1373 20.1217 81.2518 20.0261C81.5469 20.01 81.7761 19.9941 82.0876 19.8982C82.53 19.7866 82.579 19.6588 82.6446 19.0043C82.6774 18.4455 82.6774 16.4656 82.6774 15.0607C82.6774 13.1289 82.6939 11.8197 82.6774 11.1812C82.6611 10.6864 82.4809 10.5265 82.1204 10.4307C81.8416 10.3829 81.383 10.3189 81.0061 10.2711C80.924 10.1912 81.2026 9.64831 81.3012 9.58465ZM71.8466 19.5152C72.2401 19.8183 73.0102 19.946 73.6984 19.946C74.5831 19.946 75.4679 19.7866 76.32 19.0359C77.1884 18.2699 77.7946 17.0884 77.7946 15.2045C77.7946 13.4002 77.0901 11.9313 75.6481 11.0694C74.8289 10.5743 73.7802 10.367 72.5677 10.367C72.2073 10.367 71.8632 10.3829 71.6503 10.4786C71.6009 10.5106 71.4864 10.6542 71.4864 10.7339C71.4535 11.0533 71.4535 13.5119 71.4535 14.949C71.4535 16.4337 71.4535 18.5093 71.4864 18.7488C71.4864 18.9884 71.6007 19.3555 71.8466 19.5152ZM68.1272 9.58447C68.4386 9.58447 69.6346 9.6324 70.2081 9.6324C71.2406 9.6324 71.9779 9.58465 73.9276 9.58465C75.5661 9.58465 76.9425 10.0156 77.9256 10.8298C79.1217 11.8357 79.7445 13.2248 79.7445 14.917C79.7445 17.3278 78.6138 18.7169 77.4832 19.5152C76.3528 20.3294 74.8781 20.8082 72.7808 20.8082C71.6666 20.8082 69.7495 20.7764 68.16 20.7603H68.1437C68.0618 20.6167 68.2747 20.0579 68.4058 20.042C68.8319 19.9941 68.9466 19.978 69.1597 19.8984C69.5036 19.7705 69.5693 19.5949 69.6185 19.0043C69.6675 17.9026 69.6512 16.5775 69.6512 15.0766C69.6512 14.0071 69.6675 11.9154 69.6346 11.2448C69.5856 10.6862 69.3399 10.5424 68.8482 10.4466C68.6025 10.3988 68.2747 10.3348 67.8161 10.2871C67.7504 10.1751 68.0453 9.68015 68.1272 9.58447Z" fill="#313131"/>
<path fill-rule="evenodd" clip-rule="evenodd" d="M48.301 20.1376C47.8914 20.0897 47.5965 20.0261 47.2361 19.8664C47.1869 19.8344 47.1048 19.6748 47.1048 19.6108C47.0722 19.052 47.0722 17.4555 47.0722 16.3859C47.0722 15.5237 46.9248 14.7733 46.5478 14.2465C46.1054 13.6396 45.4665 13.2886 44.6471 13.2886C43.9262 13.2886 42.9594 13.7675 42.1565 14.438C42.1402 14.454 42.0091 14.5659 42.0255 14.3901C42.0255 14.2145 42.0583 13.8633 42.0747 13.6237C42.0912 13.4002 41.96 13.2886 41.96 13.2886C41.4356 13.5439 39.961 13.8792 39.4202 13.927C39.0271 14.0071 38.9287 14.3742 39.3385 14.5019H39.3548C39.797 14.6296 40.0921 14.7733 40.3213 14.9171C40.4852 15.0448 40.4688 15.2204 40.4688 15.3642C40.4852 16.5614 40.4852 18.3975 40.4362 19.4034C40.4198 19.8025 40.3051 19.9461 40.01 20.01L40.0429 19.994C39.8135 20.042 39.6332 20.0897 39.3547 20.1217C39.2563 20.2176 39.2563 20.7285 39.3547 20.8402C39.5349 20.8402 40.4852 20.7923 41.2719 20.7923C42.3532 20.7923 42.9104 20.8402 43.1888 20.8402C43.3035 20.7126 43.3364 20.2335 43.2709 20.1217C42.9594 20.1058 42.73 20.074 42.5171 20.01C42.2222 19.946 42.1402 19.8025 42.1237 19.4672C42.0912 18.6209 42.0912 16.8328 42.0912 15.6195C42.0912 15.2842 42.1894 15.1245 42.2875 15.0287C42.6645 14.7095 43.2709 14.486 43.8115 14.486C44.3358 14.486 44.6798 14.6457 44.942 14.8533C45.3025 15.1405 45.4172 15.5557 45.4663 15.859C45.5482 16.5455 45.5155 17.9025 45.5155 19.084C45.5155 19.7226 45.4663 19.8823 45.2208 19.962C45.1059 20.01 44.811 20.074 44.4669 20.1056C44.3522 20.2176 44.385 20.7126 44.4669 20.8243C44.942 20.8243 45.4992 20.7764 46.3184 20.7764C47.3342 20.7764 47.9898 20.8243 48.252 20.8243C48.3337 20.7285 48.3666 20.2655 48.301 20.1376ZM52.8397 14.0391C51.9715 14.0391 51.4307 14.6936 51.4307 15.7152C51.4307 16.7531 51.9058 17.9505 53.2494 17.9505C53.4788 17.9505 53.9049 17.8546 54.1013 17.6311C54.4127 17.3439 54.6258 16.769 54.6258 16.1622C54.6258 14.8372 53.9539 14.0389 52.8397 14.0389V14.0391ZM52.725 21.0956C52.3975 21.0956 52.1679 21.1914 52.0205 21.2714C51.3323 21.7022 51.021 22.1174 51.021 22.6125C51.021 23.0753 51.2013 23.4425 51.5945 23.7618C52.0697 24.161 52.725 24.3527 53.5606 24.3527C55.232 24.3527 55.9694 23.4745 55.9694 22.6125C55.9694 22.0056 55.6579 21.6065 55.0191 21.3831C54.5603 21.1914 53.7247 21.0956 52.725 21.0956ZM52.8397 25.2468C51.8403 25.2468 51.1192 25.0392 50.4967 24.5762C49.8903 24.1291 49.6283 23.4585 49.6283 22.9956C49.6283 22.8679 49.6611 22.5165 49.956 22.1973C50.1361 22.0056 50.5296 21.6385 51.4635 21.0158C51.4962 20.9999 51.5125 20.984 51.5125 20.9518C51.5125 20.92 51.4797 20.888 51.447 20.8722C50.6769 20.5849 50.4475 20.1217 50.3818 19.8664V19.8344C50.3657 19.7385 50.3328 19.6428 50.4804 19.547C50.5951 19.4672 50.759 19.3714 50.939 19.2598C51.2176 19.0999 51.5125 18.9243 51.6927 18.7806C51.7256 18.7487 51.7256 18.7169 51.7256 18.6849C51.7256 18.6529 51.6927 18.6209 51.6599 18.6051C50.5132 18.2378 49.9397 17.4076 49.9397 16.1622C49.9397 15.3481 50.3165 14.6136 50.9882 14.1507C51.447 13.7995 52.594 13.3683 53.3477 13.3683H53.3969C54.167 13.3842 54.5929 13.5439 55.1991 13.7515C55.5269 13.8633 55.8383 13.9111 56.2645 13.9111C56.9033 13.9111 57.1819 13.7195 57.4111 13.4962C57.4276 13.528 57.4605 13.6079 57.4768 13.8154C57.4932 14.023 57.4276 14.3263 57.2637 14.5498C57.1327 14.7254 56.8378 14.8533 56.5429 14.8533H56.4608C56.1659 14.8213 56.0347 14.7893 56.0347 14.7893L55.9694 14.8213C55.953 14.8533 55.9694 14.8851 55.9857 14.933L56.0022 14.965C56.0349 15.1086 56.1004 15.5396 56.1004 15.6515C56.1004 16.9607 55.5597 17.5352 54.9862 17.9664C54.4291 18.3655 53.7902 18.6209 53.0691 18.6849C53.0528 18.6849 52.9875 18.6849 52.8397 18.7008C52.7579 18.7008 52.6432 18.7169 52.6267 18.7169H52.6103C52.4793 18.7487 52.1517 18.9084 52.1517 19.1797C52.1517 19.4191 52.2991 19.7067 53.0036 19.7546C53.151 19.7705 53.2984 19.7705 53.4624 19.7866C54.3964 19.8503 55.5597 19.9302 56.1004 20.1058C56.8541 20.3771 57.3293 21.0318 57.3293 21.8141C57.3293 22.9957 56.461 24.0973 55.0191 24.7836C54.3145 25.0871 53.6098 25.2468 52.8397 25.2468ZM62.1792 14.1188C61.8353 14.1188 61.5239 14.1984 61.2945 14.3581C60.6556 14.7413 60.3278 15.5078 60.3278 16.6252C60.3278 18.7169 61.4092 20.1857 62.9495 20.1857C63.4083 20.1857 63.7687 20.0579 64.08 19.8025C64.5551 19.4191 64.801 18.6529 64.801 17.5832C64.801 15.5078 63.7359 14.1187 62.1794 14.1187L62.1792 14.1188ZM62.4743 20.952C59.6888 20.952 58.6894 18.9563 58.6894 17.0884C58.6894 15.7792 59.23 14.7733 60.3113 14.0548C61.0816 13.5919 61.9992 13.3365 62.8184 13.3365C64.9484 13.3365 66.4395 14.8213 66.4395 16.9607C66.4395 18.4134 65.8497 19.5629 64.719 20.2655C64.1783 20.6167 63.2444 20.952 62.4742 20.952H62.4743ZM33.2758 14.1187C32.9317 14.1187 32.6205 14.1984 32.3909 14.3581C31.752 14.7413 31.4243 15.5078 31.4243 16.6252C31.4243 18.7169 32.5056 20.1857 34.0459 20.1857C34.5047 20.1857 34.8651 20.0579 35.1766 19.8025C35.6515 19.4191 35.8975 18.6529 35.8975 17.5832C35.8975 15.5078 34.8488 14.1187 33.2758 14.1187ZM33.5707 20.952C30.7852 20.952 29.7858 18.9563 29.7858 17.0884C29.7858 15.7792 30.3264 14.7733 31.4078 14.0548C32.178 13.5919 33.0956 13.3365 33.9149 13.3365C36.045 13.3365 37.5359 14.8213 37.5359 16.9607C37.5359 18.4134 36.9461 19.5629 35.8154 20.2655C35.2911 20.6167 34.3571 20.952 33.5707 20.952ZM14.8424 20.7923C14.8096 20.7446 14.7767 20.6008 14.7932 20.4252C14.7932 20.2973 14.8261 20.2176 14.8424 20.1857C15.1865 20.1376 15.3667 20.0897 15.5633 20.042C15.8911 19.962 16.0221 19.7866 16.0384 19.3875C16.0878 18.4295 16.0878 16.6093 16.0713 15.3481V15.3161C16.0713 15.1725 16.0713 14.9967 15.8911 14.869C15.6288 14.7095 15.3176 14.5659 14.9079 14.4538C14.7606 14.4062 14.6622 14.3263 14.6785 14.2306C14.6785 14.1348 14.7769 14.023 14.99 13.991C15.5306 13.9431 16.9395 13.6079 17.4967 13.3683C17.5296 13.4002 17.5787 13.4962 17.5787 13.6239L17.5624 13.7993C17.5459 13.9751 17.5296 14.1827 17.5296 14.3901C17.5296 14.454 17.5953 14.5019 17.6606 14.5019C17.6934 14.5019 17.7263 14.486 17.759 14.4699C18.8076 13.6716 19.7579 13.3842 20.2494 13.3842C21.0525 13.3842 21.6752 13.7515 22.1503 14.5178C22.183 14.5659 22.2158 14.5818 22.265 14.5818C22.2977 14.5818 22.3467 14.5659 22.3632 14.5339C23.33 13.8154 24.2968 13.3842 24.9356 13.3842C26.4594 13.3842 27.3607 14.486 27.3607 16.3539C27.3607 16.8808 27.3607 17.5673 27.3444 18.1901C27.3444 18.7487 27.328 19.2596 27.328 19.6269C27.328 19.7065 27.4426 19.962 27.6228 20.01C27.8522 20.1217 28.1636 20.1697 28.5732 20.2335H28.5896C28.6224 20.3453 28.5569 20.7603 28.4914 20.8402C28.393 20.8402 28.2455 20.8402 28.0818 20.8243C27.667 20.8032 27.2517 20.7926 26.8364 20.7923C25.8206 20.7923 25.2962 20.8082 24.7881 20.8402C24.7556 20.7126 24.7391 20.3293 24.7881 20.2335C25.0832 20.1857 25.2305 20.1376 25.4109 20.0899C25.7387 19.994 25.8206 19.8503 25.8371 19.4352C25.8371 19.1319 25.9024 16.5455 25.8041 15.9228C25.7059 15.2842 25.2142 14.5339 24.1327 14.5339C23.7231 14.5339 23.0842 14.6936 22.4616 15.1564C22.4289 15.1884 22.3959 15.2681 22.3959 15.3161V15.3322C22.4616 15.6673 22.4616 16.0507 22.4616 16.6413V17.679C22.4616 18.3975 22.445 19.0681 22.4616 19.5788C22.4616 19.9302 22.6746 20.01 22.8548 20.074C22.9532 20.0897 23.0185 20.1058 23.1006 20.1217C23.248 20.1537 23.3955 20.1857 23.6249 20.2335C23.6578 20.2975 23.6578 20.5049 23.6086 20.6805C23.5921 20.7764 23.5592 20.8241 23.5429 20.8402C22.9859 20.8243 22.4124 20.8082 21.5768 20.8082C21.331 20.8082 20.9049 20.8243 20.5445 20.8243C20.2494 20.8243 19.971 20.8402 19.8073 20.8402C19.7907 20.8082 19.7579 20.6966 19.7579 20.5209C19.7579 20.3773 19.7907 20.2655 19.8236 20.2335C19.9054 20.2176 19.971 20.2017 20.053 20.2017C20.2494 20.1697 20.4134 20.1376 20.5771 20.1058C20.8559 20.0261 20.9541 19.8823 20.9704 19.5311C21.0196 18.7328 21.0688 16.4498 20.9541 15.8749C20.7575 14.9489 20.2169 14.486 19.3483 14.486C18.8405 14.486 18.2013 14.7254 17.6771 15.1088C17.5951 15.1725 17.5296 15.332 17.5296 15.4758V16.4178C17.5296 17.5673 17.5296 19.0043 17.5459 19.6269C17.5624 19.8183 17.6277 20.042 18.0047 20.1217C18.0867 20.1376 18.2178 20.1697 18.3817 20.1857L18.6764 20.2335C18.7094 20.3293 18.6929 20.7126 18.6274 20.8402C18.4635 20.8402 18.2669 20.8243 18.0374 20.8243C17.6934 20.8082 17.251 20.7923 16.7595 20.7923C16.186 20.7923 15.7764 20.8082 15.4486 20.8243C15.2192 20.7923 15.039 20.7923 14.8424 20.7923Z" fill="#505050"/>
<path fill-rule="evenodd" clip-rule="evenodd" d="M6.22382 24.6239L5.55212 24.4002C5.55212 24.4002 5.63415 21.0636 4.4051 20.8241C3.58603 19.898 4.53649 -18.4511 7.48571 20.6963C7.48571 20.6963 6.46973 21.1911 6.28951 22.0374C6.09278 22.8677 6.22382 24.6239 6.22382 24.6239Z" fill="#313131"/>
<path fill-rule="evenodd" clip-rule="evenodd" d="M6.22382 24.6239L5.55212 24.4002C5.55212 24.4002 5.63415 21.0636 4.4051 20.8241C3.58603 19.898 4.53649 -18.4511 7.48571 20.6963C7.48571 20.6963 6.46973 21.1911 6.28951 22.0374C6.09278 22.8677 6.22382 24.6239 6.22382 24.6239Z" fill="#505050"/>
<path fill-rule="evenodd" clip-rule="evenodd" d="M6.58456 21.399C6.58456 21.399 12.467 17.631 11.0904 9.79181C9.76336 4.09239 6.63374 2.22441 6.28964 1.50591C5.91286 0.995011 5.55225 0.101074 5.55225 0.101074L5.79816 15.9546C5.79816 15.9707 5.29017 20.8082 6.58474 21.3991" fill="#313131"/>
<path fill-rule="evenodd" clip-rule="evenodd" d="M6.58456 21.399C6.58456 21.399 12.467 17.631 11.0904 9.79181C9.76336 4.09239 6.63374 2.22441 6.28964 1.50591C5.91286 0.995011 5.55225 0.101074 5.55225 0.101074L5.79816 15.9546C5.79816 15.9707 5.29017 20.8082 6.58474 21.3991" fill="#505050"/>
<path fill-rule="evenodd" clip-rule="evenodd" d="M5.20828 21.6069C5.20828 21.6069 -0.313735 17.9348 0.0140348 11.469C0.325292 5.00295 4.22497 1.82582 4.9787 1.25108C5.47036 0.740186 5.48669 0.548493 5.51954 0.0375977C5.86364 0.756103 5.79813 10.7825 5.84713 11.9638C5.9945 16.5139 5.58506 20.745 5.20828 21.6069Z" fill="#313131"/>
<path fill-rule="evenodd" clip-rule="evenodd" d="M5.20828 21.6069C5.20828 21.6069 -0.313735 17.9348 0.0140348 11.469C0.325292 5.00295 4.22497 1.82582 4.9787 1.25108C5.47036 0.740186 5.48669 0.548493 5.51954 0.0375977C5.86364 0.756103 5.79813 10.7825 5.84713 11.9638C5.9945 16.5139 5.58506 20.745 5.20828 21.6069Z" fill="#313131"/>
</g>
<defs>
<clipPath id="clip0">
<rect width="90.9091" height="25.2632" fill="white"/>
</clipPath>
</defs>
</svg>
