<svg width="40" height="40" viewBox="0 0 40 40" fill="none" xmlns="http://www.w3.org/2000/svg">
<path d="M19.6001 1.6001C12.6407 1.6001 11.2001 5.19385 11.2001 7.2751V11.2001H19.2001V12.0001H7.2751C4.63447 12.0001 1.6001 14.0813 1.6001 20.0001C1.6001 25.9188 4.63447 28.0001 7.2751 28.0001H12.0001V23.2001C12.0001 21.4407 13.4407 20.0001 15.2001 20.0001H24.8001C26.1595 20.0001 27.2001 18.9595 27.2001 17.6001V7.2751C27.2001 4.4751 24.5595 1.6001 19.6001 1.6001ZM16.0001 5.6001C16.8813 5.6001 17.6001 6.31885 17.6001 7.2001C17.6001 8.08135 16.8813 8.8001 16.0001 8.8001C15.1188 8.8001 14.4001 8.08135 14.4001 7.2001C14.4001 6.31885 15.1188 5.6001 16.0001 5.6001ZM28.0001 12.0001V17.6001C28.0001 19.3595 26.5595 20.8001 24.8001 20.8001H15.2001C13.8407 20.8001 12.8001 21.8407 12.8001 23.2001V32.7251C12.8001 35.5251 15.4407 38.4001 20.4001 38.4001C27.3595 38.4001 28.8001 34.8063 28.8001 32.7251V28.8001H20.8001V28.0001H32.7251C35.3657 28.0001 38.4001 25.9188 38.4001 20.0001C38.4001 14.0813 35.3657 12.0001 32.7251 12.0001H28.0001ZM24.0001 31.2001C24.8813 31.2001 25.6001 31.9188 25.6001 32.8001C25.6001 33.6813 24.8813 34.4001 24.0001 34.4001C23.1188 34.4001 22.4001 33.6813 22.4001 32.8001C22.4001 31.9188 23.1188 31.2001 24.0001 31.2001Z" fill="#313131"/>
</svg>
