<svg width="30" height="36" viewBox="0 0 30 36" fill="none" xmlns="http://www.w3.org/2000/svg">
<g clip-path="url(#clip0)">
<path d="M25.5798 10.4639C31.4734 16.3043 31.4734 25.6732 25.5798 31.5541C19.809 37.3945 10.3138 37.3945 4.4202 31.5541C-1.4734 25.7138 -1.4734 16.3043 4.4202 10.4639L14.9795 0V5.23196L13.9972 6.20535L6.99867 13.1408C2.57836 17.4399 2.57836 24.4971 6.99867 28.8773C11.337 33.2576 18.4584 33.2576 22.8786 28.8773C27.2988 24.5782 27.2988 17.5211 22.8786 13.1407L25.5798 10.4639V10.4639ZM20.3002 9.81499C19.2151 9.81499 18.3356 8.94344 18.3356 7.86821C18.3356 6.79308 19.2151 5.92142 20.3002 5.92142C21.3851 5.92142 22.2647 6.79308 22.2647 7.86821C22.2647 8.94344 21.3851 9.81499 20.3002 9.81499Z" fill="#313131"/>
</g>
<defs>
<clipPath id="clip0">
<rect width="30" height="36" fill="white"/>
</clipPath>
</defs>
</svg>
