<svg width="35" height="35" viewBox="0 0 35 35" fill="none" xmlns="http://www.w3.org/2000/svg">
<g clip-path="url(#clip0)">
<path d="M24.2513 24.347C25.5429 24.2067 26.5228 23.0386 26.4782 21.6367C26.4337 20.2349 25.3202 19.1135 23.984 19.1135H23.895C22.5142 19.1602 21.4453 20.3751 21.4899 21.8236C21.5344 22.5245 21.8016 23.132 22.2024 23.5525C20.6881 26.6833 18.3721 28.9729 14.8981 30.8887C12.5375 32.1971 10.0879 32.6644 7.63834 32.3374C5.63404 32.057 4.07517 31.1225 3.09517 29.5804C1.67002 27.2908 1.53644 24.8141 2.73902 22.3377C3.58531 20.562 4.92133 19.2536 5.76762 18.5994C5.58947 17.992 5.32219 16.964 5.18861 16.2164C-1.26957 21.1228 -0.601427 27.7581 1.3583 30.8887C2.82803 33.2252 5.81219 34.6737 9.10806 34.6737C9.99879 34.6737 10.8895 34.5802 11.7804 34.3467C17.4814 33.1785 21.8017 29.6271 24.2513 24.347ZM32.0902 18.5528C28.7052 14.394 23.7169 12.1044 18.0158 12.1044H17.3033C16.9024 11.2633 16.0561 10.7025 15.1208 10.7025H15.0317C13.6511 10.7493 12.5822 11.9641 12.6267 13.4128C12.6712 14.8145 13.7847 15.936 15.1208 15.936H15.2098C16.1897 15.8893 17.036 15.2351 17.3923 14.3472H18.194C21.579 14.3472 24.7857 15.3752 27.6809 17.3845C29.9078 18.9266 31.5112 20.9359 32.4019 23.3656C33.1591 25.3282 33.1145 27.244 32.3128 28.8796C31.0658 31.356 28.9725 32.7112 26.211 32.7112C24.4295 32.7112 22.737 32.1504 21.8462 31.7298C21.3563 32.1971 20.4654 32.9447 19.8419 33.4121C21.7571 34.3466 23.7169 34.8606 25.5875 34.8606C29.8632 34.8606 33.0255 32.384 34.2281 29.9075C35.5197 27.1972 35.4305 22.5245 32.0902 18.5528ZM9.46435 25.1412C9.50892 26.5431 10.6224 27.6644 11.9585 27.6644H12.0477C13.4284 27.6178 14.4972 26.4028 14.4527 24.9543C14.4082 23.5524 13.2947 22.431 11.9585 22.431H11.8695C11.7804 22.431 11.6467 22.431 11.5578 22.4776C9.73164 19.3002 8.97449 15.8425 9.24178 12.1043C9.41978 9.3006 10.3106 6.87074 11.8695 4.86141C13.1611 3.13248 15.6553 2.2914 17.3478 2.24479C22.0689 2.15127 24.073 8.31925 24.2067 10.7959C24.7857 10.936 25.7656 11.2632 26.4337 11.4968C25.8992 3.92709 21.4453 0.00195312 17.1697 0.00195312C13.1611 0.00195312 9.46435 3.03925 7.99449 7.52507C5.94576 13.5062 7.28191 19.2536 9.77607 23.7862C9.55349 24.1132 9.41978 24.6272 9.46435 25.1413V25.1412Z" fill="#313131"/>
</g>
<defs>
<clipPath id="clip0">
<rect width="35" height="35" fill="white"/>
</clipPath>
</defs>
</svg>
