<svg width="231" height="95" viewBox="0 0 231 95" fill="none" xmlns="http://www.w3.org/2000/svg">
<g clip-path="url(#clip0)">
<path fill-rule="evenodd" clip-rule="evenodd" d="M221.351 69.5657C221.225 69.5909 221.099 69.869 221.099 70.0205C221.074 71.0318 221.049 73.7114 221.049 75.5314C221.049 75.5821 221.124 75.6832 221.2 75.6832C221.578 75.7084 222.487 75.7336 223.269 75.7336C224.354 75.7336 224.985 75.5821 225.338 75.4306C226.246 74.9753 226.675 73.9894 226.675 72.9022C226.675 70.4505 224.96 69.5151 222.411 69.5151C222.234 69.4899 221.73 69.4899 221.351 69.5657V69.5657ZM227.862 80.8654C227.862 78.3627 226.02 76.9723 222.689 76.9723C222.537 76.9723 221.477 76.9471 221.225 76.9975C221.149 77.0229 221.049 77.0736 221.049 77.1495C221.049 78.944 221.023 81.8008 221.099 82.913C221.149 83.3932 221.503 84.0758 221.932 84.278C222.386 84.5308 223.42 84.5812 224.127 84.5812C226.12 84.5812 227.862 83.4691 227.862 80.8654V80.8654ZM216.204 68.1755C216.456 68.1755 217.213 68.2511 219.156 68.2511C220.998 68.2511 222.462 68.2007 224.253 68.2007C226.448 68.2007 229.476 68.9842 229.476 72.2705C229.476 73.8884 228.341 75.1778 226.852 75.8097C226.777 75.8349 226.777 75.8853 226.852 75.9105C228.972 76.4417 230.839 77.756 230.839 80.2331C230.839 82.6602 229.325 84.2021 227.13 85.1628C225.792 85.7441 224.127 85.9462 222.436 85.9462C221.149 85.9462 217.693 85.7948 215.775 85.8454C215.573 85.7693 215.952 84.8593 216.128 84.7078C216.582 84.6823 216.935 84.6571 217.415 84.5054C218.096 84.3287 218.172 84.1262 218.273 83.09C218.323 82.2052 218.323 79.0703 218.323 76.846C218.323 73.7873 218.349 71.7144 218.323 70.7034C218.298 69.9199 218.021 69.6668 217.466 69.5151C217.036 69.4395 216.33 69.3381 215.749 69.2625C215.623 69.1359 216.052 68.2763 216.204 68.1755ZM201.644 83.8989C202.25 84.3788 203.436 84.581 204.496 84.581C205.858 84.581 207.221 84.3287 208.533 83.1401C209.87 81.9271 210.804 80.0565 210.804 77.0736C210.804 74.2168 209.719 71.8911 207.498 70.5264C206.237 69.7424 204.622 69.4143 202.754 69.4143C202.199 69.4143 201.669 69.4395 201.342 69.5909C201.266 69.6416 201.089 69.869 201.089 69.9953C201.039 70.5009 201.039 74.3938 201.039 76.669C201.039 79.0199 201.039 82.3062 201.089 82.6854C201.089 83.0648 201.266 83.646 201.644 83.8989H201.644ZM195.916 68.1753C196.396 68.1753 198.237 68.2511 199.121 68.2511C200.711 68.2511 201.846 68.1755 204.849 68.1755C207.372 68.1755 209.492 68.8579 211.006 70.147C212.847 71.7396 213.807 73.939 213.807 76.6184C213.807 80.4356 212.065 82.635 210.324 83.8989C208.584 85.188 206.312 85.9462 203.083 85.9462C201.367 85.9462 198.414 85.8958 195.967 85.8704H195.941C195.815 85.643 196.143 84.7582 196.345 84.733C197.001 84.6571 197.178 84.6316 197.506 84.5056C198.036 84.3032 198.137 84.0252 198.213 83.09C198.288 81.3456 198.263 79.2475 198.263 76.8712C198.263 75.1778 198.288 71.8659 198.237 70.8042C198.162 69.9197 197.784 69.692 197.026 69.5403C196.648 69.4647 196.143 69.3633 195.437 69.2877C195.336 69.1105 195.79 68.327 195.916 68.1755V68.1753Z" fill="#8E714E"/>
<path fill-rule="evenodd" clip-rule="evenodd" d="M165.384 84.8845C164.753 84.8086 164.299 84.7078 163.744 84.4549C163.668 84.4043 163.542 84.1517 163.542 84.0503C163.491 83.1655 163.491 80.6377 163.491 78.9443C163.491 77.579 163.265 76.391 162.684 75.5569C162.003 74.5959 161.019 74.0401 159.757 74.0401C158.647 74.0401 157.158 74.7983 155.921 75.8601C155.896 75.8853 155.694 76.0625 155.72 75.7842C155.72 75.5062 155.77 74.9501 155.795 74.5707C155.821 74.2168 155.619 74.0401 155.619 74.0401C154.811 74.4444 152.54 74.9753 151.707 75.0509C151.102 75.1777 150.951 75.759 151.582 75.9612H151.607C152.288 76.1633 152.742 76.391 153.095 76.6186C153.347 76.8208 153.322 77.0988 153.322 77.3264C153.347 79.222 153.347 82.1293 153.272 83.7219C153.247 84.3539 153.07 84.5812 152.616 84.6823L152.666 84.6571C152.313 84.733 152.036 84.8086 151.607 84.8593C151.455 85.011 151.455 85.8199 151.607 85.9969C151.884 85.9969 153.347 85.921 154.559 85.921C156.224 85.921 157.082 85.9969 157.511 85.9969C157.688 85.7947 157.738 85.0362 157.637 84.8593C157.158 84.8341 156.805 84.7837 156.477 84.6823C156.023 84.5809 155.896 84.3539 155.871 83.823C155.821 82.4829 155.821 79.6518 155.821 77.7308C155.821 77.1999 155.972 76.9471 156.123 76.7953C156.704 76.2899 157.637 75.936 158.47 75.936C159.278 75.936 159.807 76.1888 160.211 76.5175C160.766 76.9723 160.943 77.6297 161.019 78.1099C161.145 79.1968 161.094 81.3456 161.094 83.2162C161.094 84.2273 161.019 84.4801 160.64 84.6064C160.463 84.6823 160.009 84.7837 159.479 84.8338C159.303 85.011 159.353 85.7947 159.479 85.9717C160.211 85.9717 161.069 85.8958 162.331 85.8958C163.895 85.8958 164.905 85.9717 165.308 85.9717C165.434 85.8199 165.485 85.0869 165.384 84.8845V84.8845ZM172.374 75.2284C171.036 75.2284 170.204 76.2647 170.204 77.8822C170.204 79.5256 170.935 81.4214 173.004 81.4214C173.358 81.4214 174.014 81.2697 174.316 80.9158C174.796 80.461 175.124 79.5508 175.124 78.5901C175.124 76.4921 174.089 75.2281 172.374 75.2281V75.2284ZM172.197 86.4012C171.692 86.4012 171.339 86.553 171.112 86.6795C170.052 87.3616 169.573 88.019 169.573 88.803C169.573 89.5358 169.85 90.1171 170.456 90.6228C171.188 91.2547 172.197 91.5582 173.484 91.5582C176.058 91.5582 177.193 90.1678 177.193 88.803C177.193 87.8421 176.714 87.2101 175.73 86.8565C175.023 86.553 173.736 86.4012 172.197 86.4012V86.4012ZM172.374 92.9739C170.834 92.9739 169.724 92.6452 168.765 91.9121C167.831 91.2043 167.428 90.1426 167.428 89.4095C167.428 89.2074 167.478 88.651 167.933 88.1456C168.21 87.8421 168.816 87.2608 170.254 86.2749C170.304 86.2497 170.33 86.2245 170.33 86.1736C170.33 86.1232 170.279 86.0725 170.229 86.0476C169.043 85.5926 168.69 84.8593 168.588 84.4549V84.4043C168.563 84.2525 168.513 84.101 168.74 83.9493C168.917 83.823 169.169 83.6712 169.446 83.4945C169.875 83.2414 170.33 82.9634 170.607 82.7358C170.658 82.6853 170.658 82.6349 170.658 82.5843C170.658 82.5336 170.607 82.4829 170.557 82.458C168.791 81.8764 167.907 80.5618 167.907 78.5901C167.907 77.301 168.488 76.1381 169.522 75.4051C170.229 74.849 171.995 74.1664 173.156 74.1664H173.232C174.417 74.1916 175.073 74.4444 176.007 74.7731C176.512 74.9501 176.991 75.0257 177.648 75.0257C178.631 75.0257 179.06 74.7225 179.413 74.3688C179.439 74.4192 179.489 74.5458 179.515 74.8742C179.54 75.2029 179.439 75.6831 179.187 76.0371C178.985 76.3151 178.531 76.5175 178.076 76.5175H177.95C177.496 76.4669 177.294 76.4162 177.294 76.4162L177.193 76.4669C177.168 76.5175 177.193 76.5679 177.218 76.6438L177.244 76.6945C177.294 76.9218 177.395 77.6042 177.395 77.7814C177.395 79.8543 176.562 80.764 175.679 81.4466C174.821 82.0786 173.837 82.4829 172.727 82.5843C172.702 82.5843 172.601 82.5843 172.374 82.6095C172.247 82.6095 172.071 82.6349 172.045 82.6349H172.02C171.818 82.6853 171.314 82.9382 171.314 83.3677C171.314 83.7468 171.541 84.2021 172.626 84.278C172.853 84.3032 173.08 84.3032 173.332 84.3287C174.771 84.4295 176.562 84.556 177.395 84.8341C178.556 85.2636 179.287 86.3001 179.287 87.5388C179.287 89.4098 177.95 91.1539 175.73 92.2406C174.645 92.7211 173.559 92.9739 172.374 92.9739V92.9739ZM186.756 75.3547C186.227 75.3547 185.747 75.4807 185.394 75.7335C184.41 76.3403 183.905 77.5538 183.905 79.3231C183.905 82.6349 185.57 84.9606 187.943 84.9606C188.649 84.9606 189.204 84.7582 189.684 84.3539C190.415 83.7468 190.794 82.5336 190.794 80.8399C190.794 77.5538 189.154 75.3544 186.757 75.3544L186.756 75.3547ZM187.211 86.1739C182.921 86.1739 181.382 83.0141 181.382 80.0564C181.382 77.9836 182.215 76.391 183.88 75.2533C185.066 74.5203 186.479 74.116 187.741 74.116C191.021 74.116 193.317 76.4669 193.317 79.8543C193.317 82.1545 192.409 83.9745 190.668 85.0869C189.835 85.643 188.397 86.1739 187.211 86.1739H187.211V86.1739ZM142.245 75.3544C141.715 75.3544 141.236 75.4807 140.882 75.7335C139.898 76.3403 139.394 77.5538 139.394 79.3231C139.394 82.6349 141.059 84.9606 143.431 84.9606C144.138 84.9606 144.693 84.7582 145.172 84.3539C145.904 83.7468 146.282 82.5336 146.282 80.8399C146.282 77.5538 144.667 75.3544 142.245 75.3544ZM142.699 86.1739C138.41 86.1739 136.87 83.0141 136.87 80.0564C136.87 77.9836 137.703 76.391 139.368 75.2533C140.554 74.5203 141.968 74.116 143.229 74.116C146.51 74.116 148.806 76.4669 148.806 79.8543C148.806 82.1545 147.897 83.9745 146.156 85.0869C145.349 85.643 143.91 86.1739 142.699 86.1739ZM113.858 85.921C113.807 85.8454 113.756 85.6178 113.782 85.3397C113.782 85.1373 113.832 85.011 113.858 84.9606C114.388 84.8845 114.665 84.8086 114.968 84.733C115.473 84.6064 115.674 84.3287 115.7 83.6967C115.776 82.1799 115.776 79.2979 115.75 77.301V77.2503C115.75 77.0229 115.75 76.7446 115.473 76.5425C115.069 76.2899 114.589 76.0625 113.959 75.885C113.732 75.8097 113.58 75.6831 113.605 75.5317C113.605 75.3799 113.757 75.2029 114.085 75.1523C114.917 75.0764 117.087 74.5458 117.945 74.1664C117.996 74.2168 118.072 74.3688 118.072 74.571L118.046 74.8487C118.021 75.1271 117.996 75.4558 117.996 75.7842C117.996 75.8853 118.097 75.9612 118.198 75.9612C118.248 75.9612 118.299 75.936 118.349 75.9105C119.964 74.6466 121.427 74.1916 122.184 74.1916C123.421 74.1916 124.38 74.7731 125.112 75.9864C125.162 76.0625 125.213 76.0877 125.288 76.0877C125.339 76.0877 125.414 76.0625 125.44 76.0119C126.929 74.8742 128.417 74.1916 129.401 74.1916C131.748 74.1916 133.136 75.936 133.136 78.8936C133.136 79.7277 133.136 80.8147 133.111 81.8008C133.111 82.6853 133.085 83.4943 133.085 84.0758C133.085 84.2018 133.262 84.6064 133.539 84.6823C133.893 84.8593 134.372 84.9351 135.003 85.0362H135.028C135.079 85.2132 134.978 85.8703 134.877 85.9969C134.726 85.9969 134.498 85.9969 134.246 85.9717C133.607 85.9383 132.968 85.9214 132.328 85.921C130.764 85.921 129.957 85.9462 129.174 85.9969C129.124 85.7947 129.099 85.188 129.174 85.0362C129.628 84.9606 129.855 84.8845 130.133 84.8089C130.638 84.6571 130.764 84.4295 130.789 83.7723C130.789 83.2921 130.89 79.1968 130.739 78.211C130.587 77.1999 129.83 76.0119 128.165 76.0119C127.534 76.0119 126.55 76.2647 125.591 76.9975C125.541 77.0481 125.49 77.1744 125.49 77.2503V77.2758C125.591 77.8064 125.591 78.4134 125.591 79.3486V80.9916C125.591 82.1293 125.566 83.191 125.591 83.9997C125.591 84.556 125.919 84.6823 126.197 84.7837C126.348 84.8086 126.449 84.8341 126.575 84.8593C126.802 84.9099 127.029 84.9606 127.383 85.0362C127.433 85.1376 127.433 85.466 127.358 85.7441C127.332 85.8958 127.282 85.9714 127.256 85.9969C126.399 85.9717 125.515 85.9462 124.229 85.9462C123.85 85.9462 123.194 85.9717 122.639 85.9717C122.184 85.9717 121.756 85.9969 121.504 85.9969C121.478 85.9462 121.427 85.7695 121.427 85.4912C121.427 85.2639 121.478 85.0869 121.529 85.0362C121.655 85.011 121.756 84.9858 121.882 84.9858C122.184 84.9351 122.437 84.8845 122.689 84.8341C123.118 84.7078 123.27 84.4801 123.295 83.9241C123.371 82.6601 123.446 79.0454 123.27 78.1351C122.967 76.669 122.134 75.936 120.797 75.936C120.015 75.936 119.03 76.3151 118.223 76.9221C118.097 77.0229 117.996 77.2755 117.996 77.5031V78.9947C117.996 80.8147 117.996 83.0899 118.021 84.0758C118.046 84.3788 118.147 84.733 118.728 84.8593C118.854 84.8845 119.056 84.9351 119.308 84.9606L119.762 85.0362C119.813 85.188 119.787 85.7947 119.687 85.9969C119.434 85.9969 119.131 85.9717 118.778 85.9717C118.248 85.9462 117.567 85.921 116.81 85.921C115.927 85.921 115.296 85.9462 114.791 85.9717C114.438 85.921 114.16 85.921 113.858 85.921V85.921Z" fill="#442D22"/>
<path fill-rule="evenodd" clip-rule="evenodd" d="M100.585 91.988L99.5501 91.6339C99.5501 91.6339 99.6764 86.3508 97.7837 85.9717C96.5223 84.5054 97.9861 23.7859 102.528 85.7693C102.528 85.7693 100.963 86.5527 100.686 87.8928C100.383 89.2074 100.585 91.988 100.585 91.988V91.988Z" fill="white"/>
<path fill-rule="evenodd" clip-rule="evenodd" d="M100.585 91.988L99.5501 91.6339C99.5501 91.6339 99.6764 86.3508 97.7837 85.9717C96.5223 84.5054 97.9861 23.7859 102.528 85.7693C102.528 85.7693 100.963 86.5527 100.686 87.8928C100.383 89.2074 100.585 91.988 100.585 91.988V91.988Z" fill="#A6A385"/>
<path fill-rule="evenodd" clip-rule="evenodd" d="M101.14 86.8817C101.14 86.8817 110.199 80.9158 108.079 68.5037C106.035 59.4796 101.216 56.522 100.686 55.3843C100.106 54.5754 99.5503 53.16 99.5503 53.16L99.929 78.2614C99.929 78.2868 99.1467 85.9462 101.14 86.882" fill="white"/>
<path fill-rule="evenodd" clip-rule="evenodd" d="M101.14 86.8817C101.14 86.8817 110.199 80.9158 108.079 68.5037C106.035 59.4796 101.216 56.522 100.686 55.3843C100.106 54.5754 99.5503 53.16 99.5503 53.16L99.929 78.2614C99.929 78.2868 99.1467 85.9462 101.14 86.882" fill="#499D4A"/>
<path fill-rule="evenodd" clip-rule="evenodd" d="M99.0208 87.2101C99.0208 87.2101 90.5168 81.396 91.0216 71.1584C91.5009 60.9205 97.5065 55.89 98.6672 54.98C99.4243 54.1711 99.4495 53.8676 99.5001 53.0587C100.03 54.1963 99.9291 70.0714 100.005 71.9418C100.232 79.1462 99.601 85.8454 99.0208 87.2101Z" fill="white"/>
<path fill-rule="evenodd" clip-rule="evenodd" d="M99.0208 87.2101C99.0208 87.2101 90.5168 81.396 91.0216 71.1584C91.5009 60.9205 97.5065 55.89 98.6672 54.98C99.4243 54.1711 99.4495 53.8676 99.5001 53.0587C100.03 54.1963 99.9291 70.0714 100.005 71.9418C100.232 79.1462 99.601 85.8454 99.0208 87.2101Z" fill="#58AA50"/>
</g>
<path d="M36.3996 1.20599C38.5747 -0.136472 41.4079 -0.142536 43.5811 1.20599C54.5147 7.86745 65.4517 14.5185 76.3833 21.184C78.4394 22.4328 79.8148 24.9001 79.7938 27.4547V67.5326C79.8091 70.1929 78.2979 72.7192 76.1287 73.9397C65.2311 80.5644 54.3391 87.1972 43.4433 93.822C41.2232 95.1907 38.3332 95.0853 36.1824 93.6044C32.9153 91.5622 29.6426 89.5301 26.3752 87.49C25.7075 87.0608 24.9549 86.7192 24.4834 86.0212C24.9002 85.4155 25.6454 85.34 26.2509 85.0756C27.6146 84.608 28.8672 83.8574 30.12 83.1291C30.4368 82.8953 30.8236 82.9849 31.1273 83.1941C33.9211 84.9213 36.6901 86.6987 39.4933 88.4093C40.0913 88.7816 40.6968 88.2874 41.2079 87.9801C51.9018 81.4632 62.6088 74.9709 73.3009 68.4519C73.697 68.2464 73.9161 67.793 73.8839 67.325C73.8914 54.1042 73.8858 40.881 73.8876 27.6601C73.9329 27.1292 73.648 26.6411 73.2028 26.4238C62.343 19.8294 51.4888 13.2249 40.6308 6.62875C40.4427 6.4893 40.2199 6.41447 39.9916 6.41411C39.7633 6.41375 39.5402 6.48787 39.3517 6.62673C28.4938 13.2249 17.6415 19.8354 6.78355 26.4295C6.3399 26.6472 6.04215 27.1272 6.09495 27.6601C6.09683 40.881 6.09495 54.1042 6.09495 67.3271C6.07613 67.5554 6.12263 67.7844 6.22821 67.9834C6.33378 68.1823 6.49336 68.3416 6.68545 68.4398C9.58294 70.2114 12.4842 71.9706 15.3835 73.7362C17.0169 74.6842 19.0224 75.2474 20.822 74.5211C22.4101 73.907 23.5233 72.1596 23.493 70.3415C23.508 57.1978 23.4855 44.052 23.5043 30.9104C23.4646 30.3269 23.9779 29.8448 24.5041 29.8997C25.8962 29.8896 27.2903 29.8795 28.6825 29.9038C29.2636 29.8896 29.6635 30.5179 29.5917 31.1058C29.5861 44.3327 29.6067 57.5599 29.5823 70.7868C29.5861 74.3119 28.2429 78.1476 25.2189 79.8725C21.4935 81.9534 16.8888 81.5121 13.2084 79.5167C10.0222 77.802 6.98164 75.7784 3.85201 73.9414C1.67717 72.7276 0.173436 70.1912 0.188745 67.5329V27.4547C0.165938 24.8472 1.59594 22.3351 3.7161 21.1045C14.6118 14.4743 25.5057 7.83916 36.3996 1.20599Z" fill="#8CC84B"/>
<path d="M45.905 28.9682C50.6571 28.6384 55.7444 28.7728 60.0207 31.2971C63.3315 33.2314 65.167 37.2912 65.2255 41.2572C65.133 41.7922 64.6144 42.0873 64.1407 42.0506C62.7619 42.0486 61.3829 42.0708 60.0041 42.0405C59.4192 42.0647 59.0793 41.4833 59.0059 40.9258C58.6097 39.0281 57.6499 37.1487 55.9934 36.2334C53.4506 34.8606 50.5021 34.9296 47.7293 34.9583C45.7051 35.0742 43.5284 35.2632 41.8134 36.5467C40.4968 37.5189 40.0969 39.4816 40.5668 41.0622C41.0099 42.1971 42.2249 42.5633 43.2191 42.9009C48.9459 44.5159 55.0146 44.3552 60.6321 46.4806C62.9578 47.347 65.233 49.0314 66.029 51.657C67.0704 55.1761 66.6139 59.3824 64.2919 62.2074C62.4089 64.5322 59.6664 65.7976 56.931 66.4848C53.2922 67.3597 49.5158 67.3819 45.8204 66.9935C42.3455 66.5663 38.7294 65.582 36.0469 63.0291C33.753 60.8815 32.6326 57.5353 32.7439 54.3056C32.7704 53.7602 33.2741 53.3799 33.7586 53.4247C35.1471 53.4125 36.5355 53.4085 37.924 53.4267C38.4785 53.3839 38.8897 53.9007 38.9181 54.4643C39.1743 56.2723 39.8045 58.1699 41.2667 59.2419C44.0886 61.2049 47.6293 61.0705 50.8605 61.1254C53.5374 60.9974 56.5424 60.9586 58.7269 59.0509C59.8795 57.9628 60.2209 56.1423 59.9095 54.5761C59.572 53.2539 58.2892 52.6377 57.1875 52.2348C51.5341 50.3065 45.3976 51.0062 39.7989 48.8256C37.5259 47.9595 35.328 46.3219 34.4547 43.8041C33.2363 40.2405 33.7946 35.8328 36.3599 33.1031C38.8613 30.3878 42.472 29.3422 45.905 28.9679V28.9682Z" fill="#8CC84B"/>
<path d="M106.781 37.2758V25.8103H123.455V25.1397H106.781V14.6799H124.51V14.0095H106V37.9462H124.666V37.2758H106.781H106.781ZM139.7 20.7144L132.788 28.5257L126.033 20.7146H125.017L132.32 29.0288L124.314 37.946H125.251L132.788 29.5312L140.364 37.946H141.34L133.296 29.0284L140.637 20.7142H139.7L139.7 20.7144ZM143.683 43.8466V33.1189H143.761C144.23 34.6833 145.154 35.9405 146.534 36.8904C147.914 37.8402 149.671 38.3152 151.805 38.3152C153.185 38.3152 154.409 38.075 155.476 37.5945C156.543 37.114 157.435 36.4602 158.151 35.6332C158.867 34.8063 159.414 33.8453 159.791 32.75C160.169 31.655 160.357 30.5039 160.357 29.2972C160.357 28.0008 160.162 26.8049 159.771 25.7099C159.381 24.6147 158.815 23.6648 158.073 22.8603C157.331 22.0557 156.433 21.4297 155.378 20.983C154.324 20.5359 153.133 20.3123 151.805 20.3123C150.79 20.3123 149.846 20.4409 148.974 20.6979C148.102 20.955 147.328 21.318 146.651 21.7875C145.97 22.2605 145.377 22.8201 144.894 23.4469C144.399 24.0839 144.021 24.7823 143.761 25.5423H143.683V20.7144H142.902V43.8466H143.683V43.8466ZM151.805 37.678C149.358 37.678 147.393 36.9572 145.909 35.5157C144.425 34.0742 143.683 32.0011 143.683 29.2968C143.683 28.1792 143.865 27.1176 144.23 26.112C144.594 25.1063 145.121 24.2234 145.811 23.4636C146.501 22.7036 147.354 22.1001 148.369 21.6532C149.384 21.2061 150.53 20.9826 151.805 20.9826C153.107 20.9826 154.246 21.2061 155.222 21.6532C156.198 22.1001 157.006 22.7092 157.643 23.4803C158.281 24.2513 158.763 25.1343 159.088 26.1287C159.414 27.1233 159.576 28.1792 159.576 29.2968C159.576 30.3027 159.427 31.3029 159.127 32.2973C158.828 33.2919 158.366 34.1859 157.741 34.9795C157.116 35.7727 156.316 36.4208 155.339 36.9238C154.363 37.4267 153.185 37.678 151.805 37.678V37.678ZM164.653 37.9462V28.1905C164.653 27.2518 164.809 26.3353 165.122 25.4415C165.434 24.5475 165.915 23.7596 166.566 23.078C167.217 22.3963 168.044 21.8599 169.046 21.4687C170.048 21.0776 171.239 20.9156 172.619 20.9826V20.3121C171.421 20.29 170.374 20.4015 169.476 20.6474C168.577 20.8933 167.803 21.2285 167.152 21.6532C166.501 22.0778 165.981 22.575 165.59 23.145C165.2 23.7142 164.91 24.3299 164.731 24.9721H164.653V20.7144H163.872V37.9464H164.653V37.9462ZM173.595 29.4644H190.386C190.439 28.2798 190.302 27.1402 189.977 26.045C189.651 24.9497 189.13 23.9775 188.415 23.1283C187.699 22.279 186.775 21.5973 185.642 21.0832C184.51 20.5691 183.162 20.3121 181.6 20.3121C180.481 20.3121 179.388 20.5134 178.32 20.9158C177.253 21.318 176.316 21.9046 175.509 22.6756C174.702 23.4467 174.051 24.391 173.556 25.5087C173.062 26.6261 172.814 27.9 172.814 29.3304C172.814 30.6043 172.983 31.7945 173.322 32.9007C173.66 34.007 174.181 34.9682 174.884 35.784C175.587 36.5997 176.492 37.2311 177.598 37.678C178.704 38.1251 180.038 38.3374 181.6 38.315C183.891 38.315 185.818 37.7617 187.38 36.6556C188.942 35.5491 189.866 33.9903 190.152 31.9788H189.371C189.033 33.8787 188.167 35.3035 186.775 36.2532C185.382 37.2031 183.631 37.678 181.522 37.678C180.09 37.678 178.88 37.4657 177.891 37.0411C176.901 36.6166 176.094 36.0353 175.469 35.2978C174.845 34.5602 174.383 33.6941 174.083 32.6995C173.784 31.7051 173.621 30.6266 173.595 29.4644ZM189.606 28.794H173.595C173.673 27.5871 173.934 26.5031 174.376 25.5421C174.819 24.5809 175.398 23.7596 176.114 23.078C176.83 22.3963 177.663 21.8768 178.613 21.519C179.563 21.1615 180.585 20.9826 181.679 20.9826C182.98 20.9826 184.125 21.1894 185.115 21.6029C186.104 22.0164 186.931 22.5808 187.595 23.296C188.258 24.0111 188.759 24.8437 189.098 25.7934C189.436 26.7434 189.606 27.7436 189.606 28.794ZM206.592 25.8103H207.373C207.373 23.8881 206.722 22.4913 205.421 21.6196C204.119 20.748 202.349 20.3121 200.11 20.3121C198.86 20.3121 197.806 20.4464 196.947 20.7146C196.088 20.9826 195.385 21.3291 194.838 21.7536C194.292 22.1782 193.901 22.6476 193.667 23.1617C193.432 23.6759 193.315 24.1676 193.315 24.6369C193.315 25.5755 193.51 26.3242 193.901 26.883C194.292 27.4418 194.903 27.8776 195.736 28.1905C196.309 28.4139 196.96 28.6151 197.689 28.7942C198.418 28.9728 199.264 29.1628 200.227 29.3638C201.086 29.5429 201.932 29.7216 202.765 29.9002C203.598 30.0791 204.334 30.3194 204.972 30.621C205.61 30.9228 206.13 31.3083 206.534 31.7778C206.937 32.247 207.139 32.8617 207.139 33.6215C207.139 34.3592 206.937 34.9849 206.534 35.4988C206.134 36.0103 205.607 36.4396 204.991 36.7562C204.366 37.0802 203.67 37.3148 202.902 37.4601C202.134 37.6054 201.386 37.678 200.657 37.678C198.288 37.678 196.472 37.2255 195.209 36.3204C193.947 35.4151 193.315 33.9903 193.315 32.0458H192.534C192.534 34.2139 193.218 35.8007 194.584 36.8065C195.951 37.8122 197.975 38.315 200.657 38.315C201.516 38.315 202.381 38.2311 203.254 38.0635C204.126 37.8959 204.907 37.6223 205.596 37.2422C206.28 36.8675 206.855 36.3628 207.276 35.7673C207.705 35.1636 207.92 34.4262 207.92 33.5545C207.92 32.7275 207.731 32.0571 207.354 31.543C206.976 31.029 206.482 30.6043 205.87 30.2691C205.258 29.9338 204.568 29.6712 203.8 29.4813C203.028 29.2902 202.253 29.1058 201.477 28.928C200.521 28.7127 199.564 28.5004 198.606 28.2911C197.787 28.1122 197.025 27.9 196.322 27.6541C195.645 27.4082 195.105 27.0563 194.702 26.5981C194.298 26.1399 194.096 25.4862 194.096 24.6369C194.096 24.4805 194.148 24.201 194.253 23.7988C194.357 23.3964 194.604 22.9885 194.995 22.575C195.385 22.1617 195.984 21.7929 196.791 21.4687C197.598 21.1448 198.704 20.9826 200.11 20.9826C201.073 20.9826 201.952 21.0721 202.746 21.2508C203.54 21.4297 204.223 21.7146 204.796 22.1058C205.369 22.4969 205.811 22.9941 206.124 23.5976C206.436 24.2012 206.592 24.9387 206.592 25.8103V25.8103ZM224.672 25.8103H225.453C225.453 23.8881 224.803 22.4913 223.501 21.6196C222.199 20.748 220.429 20.3121 218.19 20.3121C216.94 20.3121 215.886 20.4464 215.027 20.7146C214.168 20.9826 213.465 21.3291 212.918 21.7536C212.372 22.1782 211.981 22.6476 211.747 23.1617C211.512 23.6759 211.395 24.1676 211.395 24.6369C211.395 25.5755 211.591 26.3242 211.981 26.883C212.372 27.4418 212.984 27.8776 213.816 28.1905C214.389 28.4139 215.04 28.6151 215.769 28.7942C216.498 28.9728 217.344 29.1628 218.307 29.3638C219.166 29.5429 220.012 29.7216 220.845 29.9002C221.679 30.0791 222.414 30.3194 223.052 30.621C223.69 30.9228 224.21 31.3083 224.614 31.7778C225.017 32.247 225.219 32.8617 225.219 33.6215C225.219 34.3592 225.017 34.9849 224.614 35.4988C224.214 36.0102 223.687 36.4396 223.071 36.7562C222.446 37.0802 221.75 37.3148 220.982 37.4601C220.214 37.6054 219.466 37.678 218.737 37.678C216.368 37.678 214.552 37.2255 213.289 36.3204C212.027 35.4151 211.395 33.9903 211.395 32.0458H210.614C210.614 34.2139 211.298 35.8007 212.665 36.8065C214.031 37.8122 216.055 38.315 218.737 38.315C219.596 38.315 220.461 38.2311 221.334 38.0635C222.205 37.8959 222.987 37.6223 223.677 37.2422C224.361 36.8675 224.935 36.3628 225.356 35.7673C225.785 35.1636 226 34.4262 226 33.5545C226 32.7275 225.811 32.0571 225.434 31.543C225.056 31.029 224.562 30.6043 223.95 30.2691C223.338 29.9338 222.648 29.6712 221.88 29.4813C221.108 29.2902 220.333 29.1058 219.557 28.928C218.601 28.7127 217.644 28.5004 216.687 28.2911C215.867 28.1122 215.105 27.9 214.402 27.6541C213.725 27.4082 213.185 27.0563 212.782 26.5981C212.378 26.1399 212.176 25.4862 212.176 24.6369C212.176 24.4805 212.228 24.201 212.333 23.7988C212.437 23.3964 212.684 22.9885 213.074 22.575C213.465 22.1617 214.064 21.7929 214.871 21.4687C215.678 21.1448 216.784 20.9826 218.19 20.9826C219.153 20.9826 220.032 21.0721 220.826 21.2508C221.62 21.4297 222.303 21.7146 222.876 22.1058C223.449 22.4969 223.891 22.9941 224.204 23.5976C224.516 24.2012 224.672 24.9387 224.672 25.8103H224.672Z" fill="#222222"/>
<defs>
<clipPath id="clip0">
<rect x="91" y="53" width="140" height="40" fill="white"/>
</clipPath>
</defs>
</svg>
