<svg width="150" height="65" viewBox="0 0 150 65" fill="none" xmlns="http://www.w3.org/2000/svg">
<path d="M59.279 22.5167C58.5698 22.2836 57.8546 22.0676 57.134 21.869C57.2535 21.4036 57.364 20.9362 57.4655 20.4669C59.0891 12.9134 58.0275 6.82824 54.4022 4.82511C50.9264 2.90394 45.2416 4.90707 39.5003 9.69531C38.9345 10.1682 38.3813 10.6547 37.8412 11.1544C37.4795 10.8222 37.1115 10.4963 36.7372 10.1772C30.7201 5.05685 24.6888 2.89942 21.0674 4.90848C17.5948 6.83503 16.5662 12.5559 18.028 19.7144C18.1734 20.4233 18.3376 21.1285 18.5204 21.8294C17.667 22.0617 16.8428 22.3093 16.0543 22.5727C9.00011 24.9296 4.49487 28.6239 4.49487 32.4555C4.49487 36.4131 9.33097 40.3827 16.6789 42.7893C17.2747 42.9836 17.8755 43.1636 18.4806 43.3291C18.284 44.0842 18.1095 44.8445 17.9572 45.6089C16.5636 52.6431 17.652 58.2283 21.1154 60.1429C24.6927 62.1198 30.6965 60.0878 36.5429 55.1902C37.0049 54.803 37.4688 54.3924 37.9332 53.962C38.5182 54.5029 39.1189 55.0281 39.7344 55.537C45.3973 60.2071 50.9901 62.0929 54.4506 60.1732C58.0246 58.1904 59.1858 52.1903 57.6778 44.8903C57.5628 44.3327 57.4286 43.7632 57.2782 43.1833C57.6999 43.064 58.1136 42.9408 58.5173 42.8125C66.156 40.3872 71.1257 36.466 71.1257 32.4555C71.1257 28.61 66.4753 24.8909 59.279 22.5167Z" fill="#00265F"/>
<path d="M57.6223 40.2229C57.2581 40.3385 56.8842 40.4501 56.5032 40.5583C55.6598 37.9999 54.5216 35.2792 53.1291 32.4687C54.4582 29.7245 55.5522 27.0389 56.372 24.4969C57.0535 24.6862 57.7152 24.8854 58.3527 25.096C64.5187 27.1299 68.2797 30.1377 68.2797 32.4551C68.2797 34.9237 64.2174 38.1285 57.6223 40.2229ZM54.8858 45.4198C55.5525 48.6477 55.6477 51.5662 55.206 53.8477C54.8091 55.8978 54.0111 57.2645 53.0245 57.8119C50.9246 58.9768 46.4338 57.4626 41.5912 53.4688C41.0359 53.0109 40.4765 52.522 39.9157 52.0048C41.7932 50.0368 43.6696 47.7488 45.5008 45.2081C48.7221 44.9343 51.7653 44.4863 54.5251 43.875C54.6608 44.4007 54.7817 44.9159 54.8858 45.4198ZM27.2109 57.6107C25.1594 58.305 23.5254 58.3248 22.5379 57.7791C20.4359 56.6176 19.5625 52.1326 20.7541 46.1173C20.8958 45.4064 21.0581 44.6994 21.2407 43.9971C23.9698 44.5756 26.9909 44.9919 30.2199 45.2429C32.0632 47.729 33.9938 50.0141 35.9395 52.0153C35.526 52.3986 35.1027 52.7722 34.67 53.1356C32.0847 55.3015 29.4939 56.8377 27.2109 57.6107ZM17.5997 40.2076C14.3507 39.1433 11.6676 37.7602 9.82836 36.2511C8.17583 34.8946 7.34131 33.548 7.34131 32.4551C7.34131 30.1301 10.9587 27.1641 16.9917 25.1483C17.7489 24.8964 18.5137 24.6657 19.285 24.4567C20.1189 27.0559 21.2127 29.7734 22.5326 32.5215C21.1956 35.3106 20.0862 38.0714 19.2446 40.7011C18.6922 40.5495 18.1437 40.385 17.5997 40.2076ZM20.8216 19.19C19.5693 13.0566 20.4008 8.42999 22.4936 7.26903C24.723 6.03234 29.6519 7.79581 34.8472 12.2167C35.1792 12.4993 35.5128 12.7952 35.8469 13.1012C33.9112 15.0933 31.9983 17.3613 30.1709 19.833C27.0372 20.1113 24.0373 20.5584 21.2796 21.1573C21.1097 20.5052 20.957 19.8495 20.8216 19.19ZM49.5631 25.9916C48.9117 24.9133 48.2362 23.8485 47.537 22.7981C49.6631 23.0553 51.6998 23.3972 53.6124 23.8158C53.0383 25.5795 52.3226 27.4238 51.4799 29.3145C50.8641 28.1947 50.225 27.0869 49.5631 25.9916ZM37.8423 15.0507C39.1552 16.4137 40.4701 17.9358 41.7634 19.5871C39.1398 19.4683 36.5119 19.4677 33.8882 19.5854C35.1828 17.9494 36.5089 16.4295 37.8423 15.0507ZM26.0464 26.0102C25.3928 27.0968 24.7657 28.1979 24.1656 29.3125C23.3367 27.4284 22.6275 25.5759 22.0484 23.7869C23.9495 23.3791 25.9768 23.0459 28.0891 22.793C27.382 23.8499 26.7009 24.9226 26.0464 26.0102ZM28.1498 42.3119C25.9677 42.0785 23.9097 41.7623 22.0091 41.3658C22.5974 39.5452 23.3223 37.6528 24.1689 35.7283C24.7714 36.8437 25.4013 37.9455 26.0579 39.0325C26.7279 40.1414 27.4254 41.2349 28.1498 42.3119ZM37.9211 50.0523C36.572 48.6571 35.2264 47.114 33.9121 45.4543C35.1878 45.5023 36.4885 45.5266 37.8105 45.5266C39.1687 45.5266 40.5113 45.4975 41.8327 45.441C40.5352 47.131 39.2251 48.6763 37.9211 50.0523ZM51.507 35.6302C52.3975 37.5757 53.1483 39.4579 53.7446 41.2476C51.8125 41.6701 49.7268 42.0104 47.529 42.263C48.2333 41.193 48.9153 40.1096 49.5746 39.0136C50.2448 37.8997 50.8891 36.7716 51.507 35.6302ZM47.1088 37.6509C46.0995 39.3313 45.0334 40.9797 43.9122 42.5937C41.9353 42.7291 39.8924 42.7989 37.8105 42.7989C35.7372 42.7989 33.7202 42.737 31.7778 42.6163C30.6275 41.0061 29.5413 39.3548 28.5214 37.6658C27.5062 35.9859 26.5579 34.2696 25.6787 32.5207C26.5557 30.7712 27.5011 29.054 28.5128 27.3727C29.5242 25.691 30.6019 24.0473 31.7436 22.444C33.7252 22.3004 35.7569 22.2252 37.8108 22.2252C39.8738 22.2252 41.9082 22.301 43.8892 22.4457C45.0193 24.0465 46.0901 25.6851 47.0996 27.3583C48.1149 29.0359 49.0728 30.7447 49.9721 32.482C49.0821 34.237 48.1269 35.961 47.1088 37.6509ZM52.9808 7.18792C55.2119 8.42123 56.0797 13.3943 54.6779 19.916C54.586 20.3409 54.4861 20.7641 54.3783 21.1855C51.614 20.5742 48.6121 20.1192 45.4692 19.8366C43.6383 17.3381 41.7413 15.0662 39.8369 13.0998C40.336 12.6388 40.8469 12.1896 41.3692 11.7529C46.2884 7.64999 50.886 6.03008 52.9808 7.18792Z" fill="white"/>
<path d="M37.8105 26.7529C41.0967 26.7529 43.7603 29.306 43.7603 32.4551C43.7603 35.6045 41.0967 38.1576 37.8105 38.1576C34.5246 38.1576 31.8606 35.6045 31.8606 32.4551C31.8606 29.306 34.5246 26.7529 37.8105 26.7529Z" fill="#00265F"/>
<g clip-path="url(#clip0)">
<path d="M131.934 42.8535C134.105 42.6333 135.752 40.8001 135.677 38.5999C135.602 36.4 133.731 34.6399 131.485 34.6399H131.335C129.014 34.7133 127.218 36.6199 127.293 38.8932C127.368 39.9933 127.817 40.9466 128.49 41.6066C125.945 46.5202 122.053 50.1135 116.214 53.1202C112.246 55.1736 108.129 55.907 104.012 55.3938C100.643 54.9537 98.0232 53.4871 96.376 51.0668C93.9807 47.4735 93.7562 43.5866 95.7774 39.7C97.1998 36.9132 99.4453 34.8598 100.868 33.8331C100.568 32.8798 100.119 31.2665 99.8946 30.0933C89.04 37.7934 90.163 48.2069 93.4568 53.1202C95.927 56.7872 100.943 59.0605 106.482 59.0605C107.979 59.0605 109.476 58.9137 110.974 58.5472C120.556 56.7138 127.817 51.1402 131.934 42.8535ZM145.109 33.76C139.42 27.2331 131.036 23.6398 121.454 23.6398H120.256C119.582 22.3198 118.16 21.4396 116.588 21.4396H116.438C114.118 21.513 112.321 23.4196 112.396 25.6932C112.471 27.8931 114.342 29.6532 116.588 29.6532H116.738C118.385 29.5798 119.807 28.5531 120.406 27.1597H121.753C127.443 27.1597 132.832 28.773 137.698 31.9265C141.441 34.3466 144.136 37.5001 145.633 41.3133C146.906 44.3934 146.831 47.4001 145.483 49.967C143.387 53.8536 139.869 55.9804 135.228 55.9804C132.234 55.9804 129.389 55.1002 127.892 54.4402C127.068 55.1736 125.571 56.3469 124.523 57.0805C127.742 58.547 131.036 59.3538 134.18 59.3538C141.366 59.3538 146.681 55.4669 148.703 51.5803C150.873 47.3267 150.723 39.9933 145.109 33.76ZM107.081 44.0999C107.156 46.3 109.027 48.0599 111.273 48.0599H111.423C113.744 47.9867 115.54 46.0799 115.465 43.8066C115.39 41.6064 113.519 39.8465 111.273 39.8465H111.123C110.974 39.8465 110.749 39.8465 110.6 39.9197C107.53 34.933 106.258 29.5064 106.707 23.6396C107.006 19.2395 108.503 15.426 111.123 12.2725C113.294 9.5591 117.486 8.2391 120.331 8.16594C128.266 8.01917 131.634 17.6993 131.859 21.5862C132.832 21.8061 134.479 22.3195 135.602 22.6862C134.704 10.8062 127.218 4.646 120.032 4.646C113.294 4.646 107.081 9.41279 104.611 16.4529C101.167 25.8397 103.413 34.8598 107.605 41.9733C107.231 42.4866 107.006 43.2933 107.081 44.1001V44.0999Z" fill="#00265F"/>
</g>
<defs>
<clipPath id="clip0">
<rect x="91.1738" y="4.64307" width="58.8261" height="54.9296" fill="white"/>
</clipPath>
</defs>
</svg>
