<svg width="227" height="100" viewBox="0 0 227 100" fill="none" xmlns="http://www.w3.org/2000/svg">
<path d="M90.3004 34.6409C89.2201 34.2822 88.1306 33.9499 87.033 33.6443C87.215 32.9284 87.3833 32.2093 87.5379 31.4874C90.0112 19.8665 88.394 10.5048 82.8716 7.42303C77.5768 4.46738 68.9172 7.54912 60.1712 14.9156C59.3094 15.6432 58.4668 16.3917 57.6441 17.1604C57.0931 16.6493 56.5324 16.148 55.9622 15.6569C46.7963 7.77955 37.6088 4.46042 32.0922 7.55129C26.8024 10.5152 25.2356 19.3165 27.4623 30.3295C27.6838 31.4202 27.934 32.5051 28.2125 33.5835C26.9125 33.9409 25.657 34.3217 24.4558 34.7269C13.71 38.353 6.84717 44.0365 6.84717 49.9313C6.84717 56.02 14.214 62.1269 25.4072 65.8295C26.3148 66.1284 27.23 66.4053 28.1518 66.66C27.8523 67.8217 27.5865 68.9913 27.3545 70.1674C25.2316 80.9891 26.8896 89.5817 32.1654 92.5274C37.6147 95.5687 46.7604 92.4426 55.6662 84.9078C56.3701 84.3121 57.0767 83.6804 57.7842 83.0182C58.6753 83.8504 59.5903 84.6584 60.5279 85.4413C69.1544 92.6261 77.6739 95.5274 82.9452 92.5739C88.3895 89.5234 90.1585 80.2926 87.8613 69.0617C87.6861 68.2039 87.4817 67.3278 87.2526 66.4356C87.895 66.2521 88.5252 66.0626 89.1402 65.8652C100.776 62.1339 108.347 56.1013 108.347 49.9313C108.347 44.0152 101.263 38.2935 90.3004 34.6409V34.6409Z" fill="#00CAFF"/>
<path d="M87.7767 61.8817C87.2219 62.0596 86.6523 62.2313 86.0719 62.3978C84.7872 58.4617 83.0533 54.2761 80.9322 49.9522C82.9567 45.7304 84.6233 41.5987 85.872 37.6878C86.9102 37.9791 87.9181 38.2856 88.8893 38.6096C98.2821 41.7387 104.011 46.3661 104.011 49.9313C104.011 53.7291 97.823 58.6596 87.7767 61.8817ZM83.6081 69.8769C84.6237 74.843 84.7688 79.333 84.0959 82.843C83.4913 85.9969 82.2758 88.0995 80.7727 88.9417C77.574 90.7339 70.7331 88.4043 63.3563 82.26C62.5105 81.5556 61.6584 80.8035 60.804 80.0078C63.664 76.98 66.5223 73.46 69.3118 69.5513C74.2189 69.13 78.8546 68.4409 83.0587 67.5004C83.2653 68.3091 83.4495 69.1017 83.6081 69.8769ZM41.4507 88.6322C38.3256 89.7004 35.8366 89.7308 34.3322 88.8913C31.1303 87.1043 29.7998 80.2043 31.615 70.95C31.8308 69.8563 32.078 68.7686 32.3562 67.6882C36.5135 68.5782 41.1156 69.2187 46.0343 69.6048C48.8422 73.4295 51.7832 76.9452 54.747 80.0239C54.1171 80.6137 53.4723 81.1883 52.8132 81.7474C48.875 85.0795 44.9284 87.443 41.4507 88.6322ZM26.8099 61.8582C21.8606 60.2209 17.7733 58.093 14.9717 55.7713C12.4543 53.6843 11.1831 51.6126 11.1831 49.9313C11.1831 46.3543 16.6934 41.7913 25.8836 38.69C27.0371 38.3024 28.2021 37.9476 29.3771 37.6261C30.6474 41.6248 32.3135 45.8056 34.3241 50.0335C32.2874 54.3243 30.5975 58.5717 29.3155 62.6174C28.474 62.3842 27.6385 62.1311 26.8099 61.8582ZM31.7178 29.5235C29.8101 20.0874 31.0768 12.9696 34.2648 11.1835C37.6608 9.28086 45.1691 11.9939 53.0831 18.7952C53.5889 19.23 54.097 19.6852 54.6059 20.1561C51.6574 23.2209 48.7434 26.71 45.9597 30.5126C41.1861 30.9409 36.6164 31.6287 32.4154 32.55C32.1567 31.5468 31.9241 30.538 31.7178 29.5235ZM75.5 39.9874C74.5078 38.3284 73.4787 36.6904 72.4136 35.0743C75.6523 35.47 78.7549 35.9961 81.6684 36.64C80.7938 39.3535 79.7036 42.1909 78.4198 45.0995C77.4818 43.3768 76.5083 41.6725 75.5 39.9874ZM57.6457 23.1552C59.6455 25.2522 61.6485 27.5939 63.6187 30.1343C59.6222 29.9515 55.619 29.9507 51.6223 30.1317C53.5943 27.6148 55.6144 25.2765 57.6457 23.1552ZM39.6768 40.0161C38.6811 41.6877 37.7258 43.3817 36.8118 45.0965C35.5491 42.1978 34.4687 39.3478 33.5865 36.5956C36.4825 35.9683 39.5708 35.4556 42.7884 35.0665C41.7113 36.6926 40.6738 38.3429 39.6768 40.0161ZM42.8809 65.0956C39.5568 64.7365 36.4219 64.25 33.5268 63.64C34.4229 60.8391 35.5271 57.9278 36.8167 54.9669C37.7346 56.683 38.6941 58.378 39.6943 60.0504C40.7149 61.7564 41.7774 63.4386 42.8809 65.0956ZM57.7656 77.0039C55.7105 74.8574 53.6608 72.4835 51.6587 69.93C53.602 70.0039 55.5834 70.0413 57.5971 70.0413C59.6662 70.0413 61.7114 69.9965 63.7242 69.9096C61.7478 72.5096 59.752 74.8869 57.7656 77.0039ZM78.4611 54.8161C79.8177 57.8091 80.9614 60.7048 81.8697 63.4582C78.9265 64.1082 75.7493 64.6317 72.4014 65.0204C73.4743 63.3742 74.5132 61.7075 75.5175 60.0213C76.5385 58.3076 77.52 56.5721 78.4611 54.8161ZM71.7613 57.9248C70.2238 60.51 68.5998 63.0461 66.892 65.5291C63.8806 65.7374 60.7685 65.8448 57.5971 65.8448C54.4388 65.8448 51.3663 65.7495 48.4074 65.5639C46.6553 63.0866 45.0006 60.5461 43.4469 57.9478C41.9005 55.3633 40.456 52.7228 39.1166 50.0322C40.4526 47.3407 41.8927 44.6988 43.4339 42.1122V42.113C44.9746 39.5258 46.6162 36.9962 48.3553 34.5296C51.3739 34.3087 54.4689 34.193 57.5976 34.193C60.7402 34.193 63.8392 34.3096 66.857 34.5322C68.5785 36.995 70.2096 39.5158 71.7474 42.09C73.2939 44.6709 74.7532 47.2998 76.1231 49.9726C74.7673 52.6726 73.3122 55.325 71.7613 57.9248ZM80.7062 11.0587C84.1049 12.9561 85.4269 20.6069 83.2914 30.6404C83.1514 31.294 82.9993 31.9452 82.835 32.5935C78.6242 31.653 74.0513 30.953 69.2638 30.5183C66.4747 26.6743 63.585 23.1791 60.6841 20.1539C61.4442 19.4446 62.2225 18.7536 63.0181 18.0817C70.5117 11.7696 77.5151 9.27739 80.7062 11.0587Z" fill="white"/>
<path d="M57.5967 41.1587C62.6026 41.1587 66.6602 45.0865 66.6602 49.9313C66.6602 54.7765 62.6026 58.7044 57.5967 58.7044C52.5913 58.7044 48.5332 54.7765 48.5332 49.9313C48.5332 45.0865 52.5913 41.1587 57.5967 41.1587" fill="#00CAFF"/>
<g clip-path="url(#clip0)">
<path d="M197.825 67.6058C201.331 67.2451 203.99 64.2414 203.869 60.6365C203.749 57.032 200.726 54.1482 197.099 54.1482H196.858C193.11 54.2684 190.209 57.3924 190.33 61.1171C190.451 62.9195 191.176 64.4815 192.264 65.5629C188.154 73.6136 181.867 79.5011 172.438 84.4275C166.03 87.7919 159.382 88.9935 152.733 88.1526C147.292 87.4315 143.061 85.0287 140.401 81.0631C136.533 75.1755 136.17 68.8071 139.434 62.439C141.732 57.8729 145.358 54.5085 147.655 52.8263C147.171 51.2644 146.446 48.621 146.083 46.6987C128.554 59.315 130.368 76.3772 135.687 84.4275C139.676 90.4356 147.776 94.1604 156.722 94.1604C159.14 94.1604 161.557 93.9199 163.975 93.3194C179.45 90.3154 191.176 81.1833 197.825 67.6058V67.6058ZM219.102 52.7065C209.914 42.0124 196.374 36.1249 180.9 36.1249H178.966C177.878 33.9621 175.581 32.52 173.042 32.52H172.8C169.053 32.6403 166.152 35.7642 166.272 39.4893C166.393 43.0938 169.416 45.9776 173.042 45.9776H173.284C175.943 45.8574 178.241 44.1752 179.208 41.8922H181.384C190.572 41.8922 199.276 44.5355 207.134 49.7024C213.178 53.6676 217.53 58.8345 219.948 65.0823C222.003 70.1289 221.882 75.0553 219.706 79.261C216.321 85.6291 210.64 89.1138 203.144 89.1138C198.309 89.1138 193.715 87.6717 191.297 86.5903C189.967 87.7919 187.549 89.7142 185.856 90.9162C191.055 93.3191 196.374 94.6409 201.452 94.6409C213.057 94.6409 221.641 88.2725 224.905 81.9044C228.411 74.9351 228.169 62.9195 219.102 52.7065V52.7065ZM157.689 69.648C157.81 73.2529 160.832 76.1363 164.459 76.1363H164.701C168.448 76.0165 171.35 72.8922 171.229 69.1674C171.108 65.5625 168.086 62.6791 164.459 62.6791H164.217C163.975 62.6791 163.612 62.6791 163.371 62.7989C158.414 54.6284 156.359 45.7372 157.085 36.1245C157.568 28.9151 159.986 22.6669 164.217 17.5001C167.723 13.0543 174.493 10.8915 179.087 10.7716C191.901 10.5311 197.341 26.3916 197.704 32.7601C199.276 33.1205 201.935 33.9617 203.749 34.5626C202.298 15.0975 190.209 5.00432 178.603 5.00432C167.723 5.00432 157.689 12.8145 153.699 24.3495C148.138 39.7294 151.765 54.5085 158.535 66.1637C157.931 67.0046 157.568 68.3265 157.689 69.6484V69.648Z" fill="#7839DB"/>
</g>
<defs>
<clipPath id="clip0">
<rect x="132" y="5" width="95" height="90" fill="white"/>
</clipPath>
</defs>
</svg>
