<svg width="407" height="333" viewBox="0 0 407 333" fill="none" xmlns="http://www.w3.org/2000/svg">
<g clip-path="url(#clip0)">
<path opacity="0.48" d="M397.445 12.332H45.1356C40.1953 12.332 36.1904 16.3462 36.1904 21.2979V241.037C36.1904 245.989 40.1953 250.003 45.1356 250.003H397.445C402.385 250.003 406.39 245.989 406.39 241.037V21.2979C406.39 16.3462 402.385 12.332 397.445 12.332Z" fill="#0066FF"/>
<path opacity="0.18" d="M399.066 257.546C398.796 265.33 397.017 273.254 392.669 279.706C387.192 287.83 378.297 292.859 369.682 297.587L345.255 311.061C334.551 316.972 323.267 323.022 311.064 323.193C302.428 323.323 294.073 320.468 285.767 318.074C246.978 306.854 206.12 305.281 166.022 308.116C145.483 309.569 125.044 312.123 104.695 315.198C88.4139 317.623 68.8744 325.687 54.1924 316.14C38.201 305.722 28.3863 288.852 19.3512 272.473C11.4854 258.258 3.50976 243.692 0.911164 227.653C-3.08667 202.869 6.48815 177.414 21.4701 157.279C25.9757 151.265 30.895 145.575 36.1921 140.249V231.24C36.1921 233.622 37.1329 235.908 38.809 237.597C40.4851 239.287 42.7603 240.242 45.1373 240.256H397.437C398.691 245.93 399.238 251.737 399.066 257.546Z" fill="#0066FF"/>
<path opacity="0.18" d="M267.435 12.342H173.236C176.782 9.63994 180.633 7.36687 184.71 5.56997C192.156 2.31421 200.272 0.861633 208.367 0.280604C228.736 -1.19201 249.165 3.31598 267.435 12.342Z" fill="#0066FF"/>
<path d="M181.242 220.09C182.16 221.309 183.263 222.377 184.51 223.255C186.365 224.258 188.407 224.865 190.507 225.039L222.41 229.857C222.727 229.879 223.033 229.982 223.299 230.158C223.476 230.35 223.61 230.579 223.691 230.828C223.772 231.076 223.799 231.34 223.769 231.6C223.917 237.587 223.111 243.559 221.38 249.292C221.289 249.76 221.064 250.192 220.731 250.534C220.3 250.826 219.791 250.98 219.271 250.974C208.537 251.886 197.753 251.596 186.989 251.305C185.179 251.331 183.373 251.132 181.612 250.714C178.613 249.873 176.165 247.819 173.906 245.705C169.059 241.187 149.439 223.025 148.25 220.561C146.673 217.03 145.402 213.37 144.452 209.621C143.452 206.015 150.758 205.564 150.609 201.817C150.503 199.227 150.814 196.636 151.528 194.144C152.06 191.921 153.162 189.877 154.726 188.213C155.826 187.212 154.127 180.419 155.646 180.339C157.405 186.35 165.361 198.371 168.819 203.52C172.662 209.261 176.809 214.792 181.242 220.09Z" fill="#0066FF"/>
<path d="M181.242 220.09C182.16 221.309 183.263 222.377 184.51 223.255C186.365 224.258 188.407 224.865 190.507 225.039L222.41 229.857C222.727 229.879 223.033 229.982 223.299 230.158C223.476 230.35 223.61 230.579 223.691 230.828C223.772 231.076 223.799 231.34 223.769 231.6C223.917 237.587 223.111 243.559 221.38 249.292C221.289 249.76 221.064 250.192 220.731 250.534C220.3 250.826 219.791 250.98 219.271 250.974C208.537 251.886 197.753 251.596 186.989 251.305C185.179 251.331 183.373 251.132 181.612 250.714C178.613 249.873 176.165 247.819 173.906 245.705C169.059 241.187 149.439 223.025 148.25 220.561C146.673 217.03 145.402 213.37 144.452 209.621C143.452 206.015 150.758 205.564 150.609 201.817C150.503 199.227 150.814 196.636 151.528 194.144C152.06 191.921 153.162 189.877 154.726 188.213C155.826 187.212 154.127 180.419 155.646 180.339C157.405 186.35 165.361 198.371 168.819 203.52C172.662 209.261 176.809 214.792 181.242 220.09Z" fill="url(#paint0_linear)"/>
<path d="M100.516 169.34C98.367 171.26 96.3626 173.336 94.5188 175.551C90.1012 180.991 87.1628 187.462 84.4243 193.914C77.1382 211.084 70.7917 229.447 72.6806 248.01C72.7164 249.127 73.0179 250.219 73.5602 251.195C74.4204 252.3 75.6288 253.081 76.9883 253.409C80.4964 254.531 84.2444 254.581 87.9824 254.611C102.385 254.742 116.807 254.872 131.199 254.17C133.428 254.06 135.787 253.89 137.636 252.628C138.986 251.591 140.064 250.24 140.774 248.691C144.642 241.398 145.771 232.963 148.77 225.289C152.767 215.272 163.761 206.165 161.443 195.607C151.528 150.777 105.053 165.203 100.516 169.34Z" fill="#0066FF"/>
<path d="M100.516 169.34C98.367 171.26 96.3626 173.336 94.5188 175.551C90.1012 180.991 87.1628 187.462 84.4243 193.914C77.1382 211.084 70.7917 229.447 72.6806 248.01C72.7164 249.127 73.0179 250.219 73.5602 251.195C74.4204 252.3 75.6288 253.081 76.9883 253.409C80.4964 254.531 84.2444 254.581 87.9824 254.611C102.385 254.742 116.807 254.872 131.199 254.17C133.428 254.06 135.787 253.89 137.636 252.628C138.986 251.591 140.064 250.24 140.774 248.691C144.642 241.398 145.771 232.963 148.77 225.289C152.767 215.272 163.761 206.165 161.443 195.607C151.528 150.777 105.053 165.203 100.516 169.34Z" fill="url(#paint1_linear)"/>
<path d="M165.601 132.204C163.912 140.429 162.142 148.874 157.605 155.956C155.951 158.816 153.558 161.176 150.679 162.788C147.75 164.261 144.032 164.461 141.294 162.658C139.924 161.767 138.425 160.364 136.936 161.025C135.857 161.516 135.507 162.859 135.357 164.031C134.982 166.91 135.022 169.828 135.477 172.696C135.662 173.504 135.71 174.337 135.617 175.16C135.423 175.922 135.013 176.612 134.437 177.145C133.86 177.679 133.142 178.033 132.369 178.166C130.822 178.392 129.244 178.144 127.841 177.454C125.658 176.476 123.748 174.976 122.278 173.087C120.807 171.197 119.821 168.975 119.406 166.615C119.196 165.021 119.096 163.415 119.106 161.807C118.916 154.674 117.786 147.572 118.016 140.449C118.246 133.326 120.015 125.913 124.843 120.654C127.63 117.79 130.942 115.491 134.597 113.882C140.044 111.277 146.121 109.444 152.078 110.396C154.448 110.771 156.709 111.657 158.706 112.992C160.702 114.327 162.386 116.08 163.642 118.129C166.76 122.928 166.77 126.504 165.601 132.204Z" fill="#DDC1BB"/>
<path d="M180.482 114.082C180.888 110.739 180.269 107.352 178.707 104.37C177.144 101.389 174.713 98.9551 171.737 97.3926C169.089 96.0702 166.14 95.5093 163.282 94.7479C156.585 92.9447 150.159 89.9594 143.293 89.3183C136.426 88.6772 128.531 91.0914 125.472 97.3325C124.912 98.4745 124.363 99.857 123.133 100.157C122.462 100.23 121.782 100.169 121.135 99.9772C116.547 99.1657 112.419 103.093 110.35 107.27C107.012 114.032 106.842 121.916 107.572 129.419C108.241 136.362 110.011 143.865 115.568 148.092C116.117 148.513 116.927 148.894 117.457 148.443C117.699 148.189 117.85 147.861 117.886 147.511C118.445 144.879 118.654 142.184 118.506 139.497C118.396 137.494 118.076 135.37 118.596 133.396C119.116 131.423 120.785 129.55 122.824 129.61C124.713 129.61 126.232 131.373 126.702 133.216C127.036 135.093 126.965 137.02 126.492 138.866C126.791 139.617 127.841 138.716 128.021 137.934C129.4 131.643 129.71 124.601 134.068 119.902C134.954 120.822 135.6 121.948 135.947 123.178C136.598 122.502 137.426 122.023 138.336 121.796C139.247 121.569 140.202 121.604 141.094 121.896C142.358 122.448 143.521 123.21 144.532 124.15C155.146 132.455 178.254 129.99 180.482 114.082Z" fill="#3F3D56"/>
<path d="M103.574 179.598C100.216 182.042 98.5767 186.34 98.4768 190.487C98.3768 194.635 102.754 220.951 106.882 228.425C110.081 234.235 116.747 249.402 126.871 253.589C129.87 254.831 174.196 254.31 194.765 252.076C194.635 247.198 194.395 242.319 194.075 237.441C194.105 236.797 193.911 236.163 193.525 235.647C193.006 235.106 192.266 231.57 191.526 231.57C179.533 231.62 167.439 235.297 155.446 235.577C153.704 235.69 151.955 235.586 150.239 235.267C148.834 234.915 147.487 234.362 146.241 233.624C136.986 228.374 131.869 218.066 128.251 208.038C125.482 200.305 123.253 192.301 119.256 185.078C117.836 182.503 116.567 179.999 113.769 178.867C110.48 177.534 106.622 177.384 103.574 179.598Z" fill="#0066FF"/>
<path d="M103.574 179.598C100.216 182.042 98.5767 186.34 98.4768 190.487C98.3768 194.635 102.754 220.951 106.882 228.425C110.081 234.235 116.747 249.402 126.871 253.589C129.87 254.831 174.196 254.31 194.765 252.076C194.635 247.198 194.395 242.319 194.075 237.441C194.105 236.797 193.911 236.163 193.525 235.647C193.006 235.106 192.266 231.57 191.526 231.57C179.533 231.62 167.439 235.297 155.446 235.577C153.704 235.69 151.955 235.586 150.239 235.267C148.834 234.915 147.487 234.362 146.241 233.624C136.986 228.374 131.869 218.066 128.251 208.038C125.482 200.305 123.253 192.301 119.256 185.078C117.836 182.503 116.567 179.999 113.769 178.867C110.48 177.534 106.622 177.384 103.574 179.598Z" fill="url(#paint2_linear)"/>
<path d="M193.006 230.629C199.233 230.037 206.149 231.43 210.097 236.289C210.512 236.731 210.784 237.29 210.876 237.891C210.872 238.433 210.705 238.96 210.396 239.404C208.068 243.281 203.01 244.203 198.763 245.735C196.553 246.529 194.443 247.578 192.476 248.861C191.369 249.741 190.088 250.376 188.718 250.724C185.72 251.175 183.231 248.49 181.872 245.805C180.313 242.8 177.874 236.629 180.872 233.784C183.321 231.53 189.928 230.909 193.006 230.629Z" fill="#DDC1BB"/>
<path d="M244.568 229.086C245.676 229.718 246.629 230.591 247.356 231.641C247.711 232.172 247.922 232.787 247.967 233.424C248.013 234.062 247.892 234.701 247.616 235.277C247.144 235.987 246.502 236.566 245.747 236.96C240.22 240.256 233.444 240.847 227.847 243.972C226.699 244.809 225.382 245.383 223.989 245.655C223.17 245.673 222.358 245.502 221.616 245.155C220.874 244.807 220.222 244.293 219.711 243.652C218.692 242.376 217.91 240.927 217.402 239.374C210.856 222.144 235.153 223.075 244.568 229.086Z" fill="#DDC1BB"/>
<path d="M86.1833 221.392H112.079V242.71C112.079 244.703 111.29 246.614 109.884 248.023C108.478 249.432 106.571 250.223 104.583 250.223H93.6793C91.6912 250.223 89.7846 249.432 88.3789 248.023C86.9731 246.614 86.1833 244.703 86.1833 242.71V221.392Z" fill="white"/>
<path d="M110.33 226.562H118.176C119.833 226.562 121.422 227.221 122.593 228.395C123.765 229.57 124.423 231.162 124.423 232.823V235.417C124.423 237.078 123.765 238.67 122.593 239.844C121.422 241.019 119.833 241.678 118.176 241.678H110.33V226.562Z" stroke="white" stroke-width="3.3" stroke-miterlimit="10"/>
<path d="M401.443 249.763H50.6527C47.5837 249.763 45.0957 252.254 45.0957 255.328C45.0957 258.401 47.5837 260.892 50.6527 260.892H401.443C404.512 260.892 407 258.401 407 255.328C407 252.254 404.512 249.763 401.443 249.763Z" fill="#0066FF"/>
<path d="M336.958 261.062H138.675V329.995H336.958V261.062Z" fill="#0066FF"/>
<path d="M140.024 261.062H62.1365V329.995H140.024V261.062Z" fill="#0066FF"/>
<path d="M336.908 263.467H139.924V332.399H336.908V263.467Z" fill="#0066FF"/>
<path d="M139.924 260.461H61.9666V332.589H139.924V260.461Z" fill="#0061F3"/>
<path opacity="0.18" d="M406.38 21.308V65.1857H36.1904V21.308C36.1904 18.9254 37.1312 16.6397 38.8074 14.9504C40.4835 13.261 42.7586 12.3052 45.1356 12.292H397.435C399.812 12.3052 402.087 13.261 403.763 14.9504C405.44 16.6397 406.38 18.9254 406.38 21.308Z" fill="#0066FF"/>
<path d="M195.974 249.572L324.345 249.572C327.944 249.572 330.861 246.648 330.861 243.041C330.861 239.433 327.944 236.509 324.345 236.509L195.974 236.509C192.375 236.509 189.458 239.433 189.458 243.041C189.458 246.648 192.375 249.572 195.974 249.572Z" fill="#0066FF"/>
<path d="M195.974 249.572L324.345 249.572C327.944 249.572 330.861 246.648 330.861 243.041C330.861 239.433 327.944 236.509 324.345 236.509L195.974 236.509C192.375 236.509 189.458 239.433 189.458 243.041C189.458 246.648 192.375 249.572 195.974 249.572Z" fill="url(#paint3_linear)"/>
<path d="M240.49 249.592H339.007L364.993 183.545C365.338 182.665 365.463 181.714 365.358 180.774C365.253 179.834 364.92 178.934 364.39 178.153C363.859 177.371 363.146 176.731 362.312 176.288C361.478 175.845 360.549 175.613 359.606 175.611H282.298C278.558 175.618 274.907 176.751 271.817 178.862C268.727 180.973 266.34 183.966 264.967 187.452L240.49 249.592Z" fill="#0066FF"/>
<path d="M245.497 249.662H339.067L363.743 186.921C364.072 186.085 364.193 185.181 364.094 184.288C363.994 183.395 363.679 182.539 363.174 181.797C362.67 181.054 361.991 180.446 361.198 180.026C360.406 179.606 359.523 179.387 358.626 179.388H285.206C281.649 179.386 278.174 180.457 275.233 182.462C272.292 184.466 270.02 187.312 268.715 190.628L245.497 249.662Z" fill="#0066FF"/>
<path d="M245.497 249.662H339.067L363.743 186.921C364.072 186.085 364.193 185.181 364.094 184.288C363.994 183.395 363.679 182.539 363.174 181.797C362.67 181.054 361.991 180.446 361.198 180.026C360.406 179.606 359.523 179.387 358.626 179.388H285.206C281.649 179.386 278.174 180.457 275.233 182.462C272.292 184.466 270.02 187.312 268.715 190.628L245.497 249.662Z" fill="url(#paint4_linear)"/>
<path opacity="0.51" d="M351.43 154.884H212.905V162.698H351.43V154.884Z" fill="white"/>
<path d="M311.382 141.511H212.905V149.325H311.382V141.511Z" fill="white"/>
<path d="M390.769 141.511H324.844V149.325H390.769V141.511Z" fill="white"/>
<path d="M390.539 92.043H289.184V98.9853H390.539V92.043Z" fill="white"/>
<path opacity="0.51" d="M376.386 104.375H267.955V111.317H376.386V104.375Z" fill="white"/>
<path d="M281.448 92.043H214.784V98.9853H281.448V92.043Z" fill="white"/>
<path d="M390.539 116.336H244.028V123.278H390.539V116.336Z" fill="white"/>
<path opacity="0.51" d="M236.292 116.336H214.784V123.278H236.292V116.336Z" fill="white"/>
<path opacity="0.51" d="M390.539 128.668H293.831V135.61H390.539V128.668Z" fill="white"/>
<path d="M281.448 128.668H214.784V135.61H281.448V128.668Z" fill="white"/>
<path d="M257.651 104.084H214.784V111.027H257.651V104.084Z" fill="white"/>
<path d="M353.469 68.6719H252.114V75.6142H353.469V68.6719Z" fill="white"/>
<path opacity="0.51" d="M339.317 81.0034H230.885V87.9457H339.317V81.0034Z" fill="white"/>
<path d="M244.388 68.6719H177.724V75.6142H244.388V68.6719Z" fill="white"/>
<path d="M352.57 54.2964H251.214V61.2387H352.57V54.2964Z" fill="white"/>
<path d="M243.488 41.2529H176.824V48.1952H243.488V41.2529Z" fill="white"/>
<path d="M243.488 29.3521H176.824V36.2943H243.488V29.3521Z" fill="white"/>
<path d="M220.591 80.7129H177.724V87.6552H220.591V80.7129Z" fill="white"/>
</g>
<defs>
<linearGradient id="paint0_linear" x1="149.469" y1="208.219" x2="199.721" y2="227.325" gradientUnits="userSpaceOnUse">
<stop offset="0.01"/>
<stop offset="0.12" stop-opacity="0.75"/>
<stop offset="1" stop-opacity="0"/>
</linearGradient>
<linearGradient id="paint1_linear" x1="11600" y1="25254.8" x2="10192.3" y2="16903.1" gradientUnits="userSpaceOnUse">
<stop offset="0.01"/>
<stop offset="0.12" stop-opacity="0.75"/>
<stop offset="1" stop-opacity="0"/>
</linearGradient>
<linearGradient id="paint2_linear" x1="13035.9" y1="20865.3" x2="14656" y2="16267.6" gradientUnits="userSpaceOnUse">
<stop offset="0.01"/>
<stop offset="0.12" stop-opacity="0.75"/>
<stop offset="1" stop-opacity="0"/>
</linearGradient>
<linearGradient id="paint3_linear" x1="37650.1" y1="3738.21" x2="37650.8" y2="3382.47" gradientUnits="userSpaceOnUse">
<stop offset="0.01"/>
<stop offset="0.12" stop-opacity="0.75"/>
<stop offset="1" stop-opacity="0"/>
</linearGradient>
<linearGradient id="paint4_linear" x1="36746.8" y1="20198.5" x2="36915.2" y2="13002.8" gradientUnits="userSpaceOnUse">
<stop offset="0.01"/>
<stop offset="0.12" stop-opacity="0.75"/>
<stop offset="1" stop-opacity="0"/>
</linearGradient>
<clipPath id="clip0">
<rect width="407" height="333" fill="white"/>
</clipPath>
</defs>
</svg>
