<svg width="485" height="433" viewBox="0 0 485 433" fill="none" xmlns="http://www.w3.org/2000/svg">
<path d="M328.344 433H271.801V235.832H56.7617V433H0.511719V6.4375H56.7617V189.836H271.801V6.4375H328.344V433ZM478.637 433H424.438V116.008H478.637V433ZM420.043 31.9258C420.043 23.1367 422.68 15.7148 427.953 9.66016C433.422 3.60547 441.43 0.578125 451.977 0.578125C462.523 0.578125 470.531 3.60547 476 9.66016C481.469 15.7148 484.203 23.1367 484.203 31.9258C484.203 40.7148 481.469 48.0391 476 53.8984C470.531 59.7578 462.523 62.6875 451.977 62.6875C441.43 62.6875 433.422 59.7578 427.953 53.8984C422.68 48.0391 420.043 40.7148 420.043 31.9258Z" fill="#EFEFEF"/>
</svg>
