<svg width="150" height="60" viewBox="0 0 150 60" fill="none" xmlns="http://www.w3.org/2000/svg">
<path d="M45 0H105V60H45V0Z" fill="white"/>
<path d="M60.7764 50.1401L65.3678 47.3613C66.2537 48.9319 67.0595 50.2608 68.9924 50.2608C70.8451 50.2608 72.0135 49.5361 72.0135 46.717V27.5456H77.6518V46.7967C77.6518 52.6367 74.2285 55.2949 69.234 55.2949C64.7235 55.2949 62.1053 52.9589 60.7761 50.1396L60.7764 50.1401ZM80.7144 49.5359L85.3053 46.8778C86.514 48.8515 88.0848 50.3013 90.8636 50.3013C93.2 50.3013 94.6897 49.1332 94.6897 47.5221C94.6897 45.589 93.1593 44.9042 90.5816 43.7768L89.1723 43.1721C85.1043 41.4408 82.4059 39.2658 82.4059 34.6744C82.4059 30.4453 85.6278 27.2231 90.6625 27.2231C94.247 27.2231 96.8246 28.4719 98.6771 31.7342L94.2868 34.5537C93.32 32.8219 92.2733 32.1373 90.6622 32.1373C89.0108 32.1373 87.9636 33.1845 87.9636 34.5537C87.9636 36.2452 89.0108 36.9303 91.4272 37.9774L92.8368 38.5814C97.6297 40.6357 100.328 42.7299 100.328 47.4417C100.328 52.5169 96.3409 55.2956 90.9843 55.2956C85.7486 55.2956 82.3653 52.7986 80.7142 49.5361" fill="#313131"/>
<path d="M3.18516 55.9822L0 19.8276H35L31.8113 55.9765L17.4785 59.9978L3.18516 55.9822Z" fill="#F0F0F0"/>
<path d="M17.5 56.9239L29.0815 53.6743L31.8066 22.7837H17.5V56.9239Z" fill="#DEDEDE"/>
<path d="M17.5001 36.1932H11.7022L11.3017 31.6525H17.5001V27.2183H6.51294L6.61794 28.4079L7.69482 40.6273H17.5001V36.1932ZM17.5001 47.7092L17.4808 47.7145L12.601 46.381L12.2891 42.8446H7.89067L8.5046 49.807L17.48 52.3285L17.5001 52.3228V47.7092Z" fill="#4B4B4B"/>
<path d="M3.25635 10.0044H5.48298V12.2307H7.51982V10.0044H9.74654V16.7463H7.51982V14.4887H5.48298V16.7463H3.25651L3.25635 10.0044ZM12.6748 12.2402H10.7147V10.0044H16.863V12.2402H14.9019V16.7463H12.6749V12.2402H12.6748ZM17.8386 10.0044H20.1606L21.5888 12.3733L23.0157 10.0044H25.3384V16.7463H23.1205V13.4046L21.5886 15.8017H21.5503L20.0173 13.4046V16.7463H17.8385V10.0044H17.8386ZM26.4464 10.0044H28.6737V14.5179H31.8052V16.7463H26.4464V10.0044Z" fill="white"/>
<path d="M17.4849 36.1932V40.6273H22.8804L22.3717 46.3782L17.4849 47.7129V52.3261L26.4675 49.807L26.5332 49.0576L27.563 37.384L27.6699 36.1932H26.4893H17.4849ZM17.4849 27.2183V31.6525H28.0686L28.1564 30.6558L28.356 28.4079L28.4609 27.2183H17.4849Z" fill="#313131"/>
<path d="M132.479 59.8736L118.236 55.8678L115.062 19.8013H149.938L146.76 55.8622L132.479 59.8736Z" fill="white"/>
<path d="M144.04 53.5663L146.755 22.7505H132.5V56.8077L144.04 53.5663Z" fill="#DEDEDE"/>
<path d="M122.338 36.1269L122.73 40.5503H132.5V36.1269H122.338ZM121.552 27.1738L121.949 31.5972H132.5V27.1738H121.552ZM132.5 47.615L132.481 47.6201L127.618 46.2899L127.308 42.7621H122.925L123.536 49.7075L132.48 52.2227L132.5 52.2172V47.615Z" fill="#4B4B4B"/>
<path d="M123.27 10H128.558V12.2404H125.481V14.4809H128.558V16.7212H123.27V10ZM129.616 10H134.904V11.9482H131.827V12.3378H134.904V16.8187H129.616V14.7729H132.692V14.3832H129.615V10H129.616ZM135.961 10H141.249V11.9482H138.173V12.3378H141.249V16.8187H135.961V14.7729H139.038V14.3832H135.961V10H135.961Z" fill="white"/>
<path d="M142.634 36.1269L143.422 27.1738H132.485V31.5972H138.637L138.24 36.1269H132.485V40.5503H137.861L137.354 46.2871L132.485 47.6187V52.2206L141.436 49.7075L141.501 48.9601L142.527 37.3147L142.634 36.1269Z" fill="#313131"/>
</svg>
