<svg width="224" height="90" viewBox="0 0 224 90" fill="none" xmlns="http://www.w3.org/2000/svg">
<path d="M198.969 89.8105L178.623 83.8018L174.089 29.7021H223.911L219.372 83.7935L198.969 89.8105V89.8105Z" fill="#264DE4"/>
<path d="M215.486 80.3491L219.365 34.1254H199V85.2112L215.486 80.3491V80.3491Z" fill="#2965F1"/>
<path d="M184.484 54.1903L185.043 60.8254H199V54.1903H184.484ZM183.36 40.7607L183.927 47.3958H199V40.7607H183.36V40.7607ZM199 71.4224L198.973 71.4301L192.027 69.4348L191.583 64.1431H185.321L186.195 74.5612L198.972 78.3341L199 78.3258V71.4224Z" fill="#EBEBEB"/>
<path d="M185.814 15H193.369V18.3607H188.974V21.7213H193.369V25.0818H185.814V15ZM194.88 15H202.434V17.9223H198.039V18.5067H202.434V25.228H194.88V22.1593H199.275V21.5749H194.879V15H194.88ZM203.945 15H211.499V17.9223H207.104V18.5067H211.499V25.228H203.945V22.1593H208.34V21.5749H203.945V15H203.945Z" fill="black"/>
<path d="M213.477 54.1903L214.603 40.7607H198.979V47.3958H207.767L207.2 54.1903H198.979V60.8254H206.659L205.935 69.4307L198.979 71.428V78.331L211.765 74.5612L211.859 73.4402L213.325 55.972L213.477 54.1903V54.1903Z" fill="white"/>
<path d="M4.55023 83.9731L0 29.7412H50L45.4448 83.9645L24.9693 89.9965L4.55023 83.9731Z" fill="#E44D26"/>
<path d="M25 85.386L41.545 80.5117L45.438 34.1757H25V85.386Z" fill="#F16529"/>
<path d="M25.0001 54.2895H16.7174L16.1452 47.4785H25.0001V40.8271H9.3042L9.4542 42.6115L10.9926 60.9406H25.0001V54.2895ZM25.0001 71.5635L24.9726 71.5715L18.0015 69.5711L17.5558 64.2666H11.2724L12.1494 74.7101L24.9715 78.4924L25.0001 78.4838V71.5635Z" fill="#EBEBEB"/>
<path d="M4.65186 15.0043H7.83276V18.3438H10.7425V15.0043H13.9236V25.1171H10.7425V21.7308H7.83276V25.1171H4.65208L4.65186 15.0043ZM18.1069 18.358H15.3066V15.0043H24.0899V18.358H21.2883V25.1171H18.107V18.358H18.1069ZM25.4837 15.0043H28.8007L30.8411 18.5577L32.8795 15.0043H36.1977V25.1171H33.0292V20.1046L30.8407 23.7003H30.7861L28.5961 20.1046V25.1171H25.4836V15.0043H25.4837ZM37.7805 15.0043H40.9623V21.7745H45.4359V25.1171H37.7805V15.0043Z" fill="black"/>
<path d="M24.9785 54.2895V60.9406H32.6865L31.9598 69.567L24.9785 71.569V78.4889L37.8108 74.7101L37.9047 73.5861L39.3758 56.0756L39.5285 54.2895H37.8419H24.9785ZM24.9785 40.8271V47.4785H40.0982L40.2235 45.9833L40.5088 42.6115L40.6585 40.8271H24.9785Z" fill="white"/>
<path d="M67 0H157V90H67V0Z" fill="#F7DF1E"/>
<path d="M90.6644 75.2105L97.5515 71.0423C98.8804 73.3982 100.089 75.3915 102.988 75.3915C105.768 75.3915 107.52 74.3045 107.52 70.0759V41.3188H115.978V70.1954C115.978 78.9553 110.843 82.9427 103.351 82.9427C96.5851 82.9427 92.6578 79.4387 90.6641 75.2098L90.6644 75.2105ZM120.571 74.3041L127.458 70.3171C129.271 73.2776 131.627 75.4523 135.795 75.4523C139.3 75.4523 141.534 73.7002 141.534 71.2835C141.534 68.3838 139.239 67.3566 135.372 65.6655L133.258 64.7585C127.156 62.1615 123.109 58.899 123.109 52.0119C123.109 45.6683 127.942 40.835 135.494 40.835C140.87 40.835 144.737 42.7082 147.516 47.6016L140.93 51.8309C139.48 49.2332 137.91 48.2062 135.493 48.2062C133.016 48.2062 131.445 49.777 131.445 51.8309C131.445 54.3681 133.016 55.3957 136.641 56.9665L138.755 57.8725C145.944 60.9539 149.992 64.0951 149.992 71.1629C149.992 78.7757 144.011 82.9438 135.976 82.9438C128.123 82.9438 123.048 79.1982 120.571 74.3045" fill="black"/>
</svg>
