<svg width="25" height="25" viewBox="0 0 25 25" fill="none" xmlns="http://www.w3.org/2000/svg">
<path d="M5.37222 7.56839C5.75332 7.18733 6.17609 6.8731 6.62577 6.62485C9.13202 5.24381 12.3458 5.97817 13.957 8.4208L12.0072 10.3695C11.4481 9.09439 10.06 8.36872 8.67886 8.67773C8.15886 8.79405 7.66491 9.05359 7.26123 9.45722L3.52487 13.195C2.39024 14.3295 2.39024 16.1749 3.52487 17.3094C4.65949 18.4439 6.50511 18.4439 7.63973 17.3094L8.79172 16.1575C9.83953 16.5733 10.9629 16.7391 12.0723 16.6567L9.52962 19.1991C7.34978 21.3787 3.81569 21.3787 1.63585 19.1991C-0.543982 17.0195 -0.543982 13.4857 1.63585 11.3061L5.37222 7.56839ZM11.3066 1.63455L8.76394 4.17701C9.87252 4.09368 10.9967 4.26034 12.0445 4.67526L13.1957 3.52425C14.3303 2.38974 16.1759 2.38974 17.3105 3.52425C18.4452 4.65876 18.4452 6.50419 17.3105 7.63871L13.5733 11.3756C12.4352 12.5136 10.587 12.504 9.45843 11.3756C9.19539 11.1126 8.96881 10.7853 8.82731 10.4633L6.87753 12.412C7.0824 12.7227 7.29509 12.991 7.56855 13.2644C8.27346 13.9692 9.17109 14.4944 10.2041 14.7435C11.5428 15.0656 12.9769 14.8876 14.2088 14.2079C14.6584 13.9597 15.0812 13.6455 15.4623 13.2644L19.1987 9.52753C21.3794 7.34792 21.3794 3.81417 19.1995 1.63455C17.0197 -0.5442 13.4865 -0.5442 11.3066 1.63455Z" fill="#636363"/>
</svg>
