<svg width="118" height="40" viewBox="0 0 118 40" fill="none" xmlns="http://www.w3.org/2000/svg">
<path d="M10.2716 33.28C10.0049 33.2 9.57823 33.0933 8.99156 32.96C8.4049 32.8 7.8849 32.6133 7.43156 32.4C6.97823 32.1867 6.5249 31.9067 6.07156 31.56C5.91156 31.4533 5.67156 31.32 5.35156 31.16C4.55156 30.7067 3.93823 30.32 3.51156 30C3.11156 29.68 2.71156 29.24 2.31156 28.68L0.991563 27.08L0.551563 24.96C0.791563 24.9067 1.0049 24.8267 1.19156 24.72C1.37823 24.6133 1.4849 24.56 1.51156 24.56C1.77823 24.4267 2.19156 24.1733 2.75156 23.8C3.87156 23.0533 5.01823 22.3467 6.19156 21.68C8.93823 20.2667 10.5916 19.28 11.1516 18.72C11.2849 18.56 11.4449 18.44 11.6316 18.36C11.8449 18.28 12.0316 18.24 12.1916 18.24C12.3516 18.1867 12.6049 18.3067 12.9516 18.6C13.3249 18.8933 13.5516 19.0667 13.6316 19.12C13.7649 19.2267 13.9116 19.3333 14.0716 19.44C14.2316 19.52 14.3382 19.6 14.3916 19.68C14.4449 19.7333 14.4849 19.8267 14.5116 19.96C14.5116 20.04 14.4716 20.1867 14.3916 20.4C14.3116 20.6133 14.1916 20.7867 14.0316 20.92C13.6582 21.24 12.8049 21.7467 11.4716 22.44C9.6849 23.3733 8.31156 24.1333 7.35156 24.72C6.89823 24.9867 6.37823 25.2667 5.79156 25.56C5.41823 25.7733 5.1649 25.9333 5.03156 26.04C4.9249 26.12 4.87156 26.2667 4.87156 26.48L4.91156 26.8C5.39156 27.36 6.15156 27.92 7.19156 28.48C8.25823 29.0133 9.75156 29.5733 11.6716 30.16C12.9249 30.56 13.7916 30.9467 14.2716 31.32C14.7516 31.6933 14.9916 32.1067 14.9916 32.56L14.9516 32.88C14.8182 33.0933 14.4982 33.28 13.9916 33.44C13.4849 33.6 12.9382 33.68 12.3516 33.68C11.5249 33.68 10.8316 33.5467 10.2716 33.28ZM21.5231 36.4C20.4831 35.6267 19.6831 34.9333 19.1231 34.32C18.5631 33.7067 18.2698 33.12 18.2431 32.56C18.2165 32.4267 18.2031 32.1867 18.2031 31.84C18.2031 31.0933 18.2698 30.16 18.4031 29.04C18.5365 27.92 18.6698 27.0267 18.8031 26.36C18.9098 26.2533 18.9631 26.0933 18.9631 25.88C18.9898 25.6667 18.9898 25.5333 18.9631 25.48C18.9631 25.4 19.0298 25.1333 19.1631 24.68C19.4831 23.6933 19.7098 22.8667 19.8431 22.2C20.5631 20.0133 21.2698 18.2667 21.9631 16.96C22.6565 15.6533 23.4298 14.4267 24.2831 13.28C26.0965 11.4133 28.0298 10 30.0831 9.04C31.1231 8.42666 31.8698 8.12 32.3231 8.12C32.4031 8.12 32.5231 8.14667 32.6831 8.2C35.9631 8.92 37.9231 11 38.5631 14.44C38.8031 16.0667 38.9231 17.2933 38.9231 18.12C38.9231 19.4533 38.6831 20.8 38.2031 22.16C37.7231 23.52 36.8565 25.2267 35.6031 27.28C34.5365 29.4133 33.3231 31.24 31.9631 32.76C30.6298 34.2533 29.2831 35.3733 27.9231 36.12C26.5898 36.8667 25.3365 37.24 24.1631 37.24C23.1231 37.24 22.2431 36.96 21.5231 36.4ZM24.7231 33.76C25.3631 33.68 25.8565 33.56 26.2031 33.4C26.5765 33.24 26.9498 32.9733 27.3231 32.6C27.7231 32.2 28.3631 31.4933 29.2431 30.48C30.3631 29.2 31.1498 28.2667 31.6031 27.68C32.0565 27.0667 32.4698 26.3067 32.8431 25.4C33.2431 24.4933 33.6831 23.1867 34.1631 21.48L34.4031 20.56C34.5631 20 34.6698 19.5467 34.7231 19.2C34.8031 18.8267 34.8431 18.4267 34.8431 18L34.8031 15.48C34.7765 15 34.6831 14.48 34.5231 13.92C34.3631 13.36 34.1765 12.96 33.9631 12.72C33.7498 12.48 33.4565 12.28 33.0831 12.12C32.7365 11.9333 32.3765 11.84 32.0031 11.84C31.7365 11.84 31.4298 11.9067 31.0831 12.04C30.5765 12.2533 29.8698 12.8267 28.9631 13.76C28.0565 14.6667 27.2431 15.6 26.5231 16.56C25.8298 17.52 25.4831 18.16 25.4831 18.48C25.4831 18.5067 25.4698 18.5867 25.4431 18.72C25.4165 18.8533 25.3631 18.9733 25.2831 19.08C24.5898 19.8267 23.8831 21.4 23.1631 23.8C22.4698 26.2 22.0698 28.2933 21.9631 30.08C21.9365 30.8533 21.9365 31.3867 21.9631 31.68C22.0165 31.9733 22.1631 32.3067 22.4031 32.68C22.5898 32.9733 22.9231 33.2533 23.4031 33.52C23.9098 33.76 24.3498 33.84 24.7231 33.76ZM30.9231 5.32C30.6831 5.10666 30.4831 4.78666 30.3231 4.36C30.1631 3.90666 30.1098 3.6 30.1631 3.44C30.2431 3.14667 30.3898 2.77333 30.6031 2.32C30.8165 1.84 31.0965 1.45333 31.4431 1.16C31.5231 1.10667 31.6298 0.999998 31.7631 0.839999C31.8965 0.679999 32.0298 0.586665 32.1631 0.559998C32.4031 0.399998 32.6298 0.319998 32.8431 0.319998C33.3765 0.319998 33.8698 0.719999 34.3231 1.52C34.5365 2 34.6431 2.37333 34.6431 2.64C34.6431 2.93333 34.5498 3.24 34.3631 3.56C34.2031 3.85333 33.9231 4.22667 33.5231 4.68C32.9631 5.42667 32.4298 5.8 31.9231 5.8C31.5765 5.8 31.2431 5.64 30.9231 5.32ZM37.1231 5.32C36.8831 5.10666 36.6831 4.78666 36.5231 4.36C36.3631 3.90666 36.3098 3.6 36.3631 3.44C36.4431 3.14667 36.5898 2.77333 36.8031 2.32C37.0165 1.84 37.2965 1.45333 37.6431 1.16C37.7231 1.10667 37.8298 0.999998 37.9631 0.839999C38.0965 0.679999 38.2298 0.586665 38.3631 0.559998C38.6031 0.399998 38.8298 0.319998 39.0431 0.319998C39.5765 0.319998 40.0698 0.719999 40.5231 1.52C40.7365 2 40.8431 2.37333 40.8431 2.64C40.8431 2.93333 40.7498 3.24 40.5631 3.56C40.4031 3.85333 40.1231 4.22667 39.7231 4.68C39.1631 5.42667 38.6298 5.8 38.1231 5.8C37.7765 5.8 37.4431 5.64 37.1231 5.32ZM57.2069 34.08C56.8602 34.08 56.5935 34.0267 56.4069 33.92C56.1935 33.84 55.9135 33.6533 55.5669 33.36C55.2469 33.04 54.9535 32.6 54.6869 32.04C54.4469 31.4533 54.3269 30.76 54.3269 29.96C54.3269 29.4533 54.3535 29.0133 54.4069 28.64C54.4869 28.24 54.5269 27.9867 54.5269 27.88C54.5269 27.7467 54.4869 27.68 54.4069 27.68C53.7135 27.68 52.2069 28.9467 49.8869 31.48C49.8069 31.5333 49.7402 31.6 49.6869 31.68C49.3669 31.92 49.0735 32.1733 48.8069 32.44C48.4069 32.8133 48.0735 33.0933 47.8069 33.28C47.5669 33.44 47.3002 33.5333 47.0069 33.56C46.8202 33.56 46.6202 33.48 46.4069 33.32L45.9669 32.96C45.8335 32.88 45.7135 32.7333 45.6069 32.52C45.5002 32.3067 45.4469 32.1067 45.4469 31.92V31.8V31.72L46.3669 29.04C47.0335 27.5733 47.3669 26.7067 47.3669 26.44C47.3669 26.3867 47.3535 26.36 47.3269 26.36C47.0869 26.3333 46.7269 26.5467 46.2469 27C45.7935 27.4267 45.1402 28.1067 44.2869 29.04L42.4869 30.92C42.2735 31.1333 41.7002 31.7733 40.7669 32.84C40.1802 33.56 39.8735 33.92 39.8469 33.92C39.2602 33.92 38.7269 33.6933 38.2469 33.24C37.7935 32.7867 37.5669 32.24 37.5669 31.6C37.5669 31.28 37.6202 30.8533 37.7269 30.32C37.8335 29.7867 37.9535 29.2267 38.0869 28.64C38.1402 28.4267 38.1935 28.1867 38.2469 27.92C38.3269 27.6533 38.4069 27.3467 38.4869 27C38.5402 26.7333 38.5935 26.44 38.6469 26.12C38.7269 25.8 38.8735 25.3867 39.0869 24.88C39.3002 24.3467 39.6069 23.6133 40.0069 22.68C40.1135 22.3333 40.1669 21.9733 40.1669 21.6C40.1669 21.4133 40.1535 21.24 40.1269 21.08C40.1002 20.8933 40.0869 20.7733 40.0869 20.72C40.0869 20.32 40.2735 19.9867 40.6469 19.72C41.0469 19.4267 41.4869 19.28 41.9669 19.28C42.6602 19.28 43.1802 19.5333 43.5269 20.04C43.8735 20.52 44.0469 21.0267 44.0469 21.56C44.0469 22.0133 43.9402 22.4533 43.7269 22.88L43.2869 23.96C43.1802 24.2 42.9802 24.64 42.6869 25.28C42.4202 25.8933 42.2869 26.2667 42.2869 26.4C42.2869 26.48 42.3135 26.52 42.3669 26.52H42.4069C42.5402 26.52 42.7535 26.3733 43.0469 26.08C43.9002 25.28 44.9269 24.4533 46.1269 23.6C47.3535 22.72 48.2335 22.2 48.7669 22.04C48.9802 22.04 49.2602 22.1467 49.6069 22.36C49.9535 22.5733 50.2602 22.8667 50.5269 23.24C50.7935 23.5867 50.9269 23.9733 50.9269 24.4L50.8869 24.72C50.8602 24.8267 50.7402 25.28 50.5269 26.08C50.3402 26.88 50.1935 27.3467 50.0869 27.48C50.5935 26.8933 51.4735 26.1733 52.7269 25.32C53.9802 24.44 54.9002 23.9867 55.4869 23.96C56.3669 23.96 56.9402 24.32 57.2069 25.04C57.4735 25.76 57.6602 26.8133 57.7669 28.2C57.8735 29.5067 58.0202 30.3867 58.2069 30.84C58.2602 31 58.4469 31.1333 58.7669 31.24C59.0869 31.3467 59.3402 31.48 59.5269 31.64C59.7402 31.7733 59.8469 32.0533 59.8469 32.48C59.8469 33.0667 59.5802 33.48 59.0469 33.72C58.5402 33.96 57.9269 34.08 57.2069 34.08ZM65.7403 35C64.2203 35 62.9936 34.5733 62.0603 33.72C61.127 32.8667 60.6603 31.6533 60.6603 30.08C60.6603 29.4667 60.7003 28.7867 60.7803 28.04C60.8336 27.4 61.087 26.52 61.5403 25.4C62.0203 24.28 62.6603 23.1867 63.4603 22.12C64.287 21.0533 65.247 20.2667 66.3403 19.76C66.847 19.52 67.2736 19.36 67.6203 19.28C67.967 19.1733 68.367 19.12 68.8203 19.12C69.9136 19.12 70.7936 19.32 71.4603 19.72C72.1536 20.12 72.6336 20.5733 72.9003 21.08C73.1936 21.5867 73.3403 22.0267 73.3403 22.4V22.6V22.72C73.3403 23.04 73.1536 23.6267 72.7803 24.48C72.407 25.3333 71.807 26.1333 70.9803 26.88C70.1803 27.6267 69.1403 28.04 67.8603 28.12C67.2203 28.12 66.5936 28.0667 65.9803 27.96C65.3936 27.8267 65.0203 27.76 64.8603 27.76C64.4603 27.76 64.207 27.9067 64.1003 28.2C63.9936 28.4933 63.9403 28.9867 63.9403 29.68C64.0203 30.4267 64.2203 30.9467 64.5403 31.24C64.887 31.5333 65.3803 31.68 66.0203 31.68C66.3403 31.68 66.7136 31.5867 67.1403 31.4C67.567 31.1867 68.0736 30.8533 68.6603 30.4C68.9803 30.1333 69.2336 29.9467 69.4203 29.84C69.607 29.7333 69.8336 29.68 70.1003 29.68C70.3403 29.68 70.6203 29.84 70.9403 30.16C71.2603 30.48 71.4336 30.7867 71.4603 31.08C71.407 31.4 71.1136 31.88 70.5803 32.52C70.047 33.16 69.3536 33.7333 68.5003 34.24C67.647 34.7467 66.727 35 65.7403 35ZM67.1403 25.36C67.647 25.36 67.9936 25.3067 68.1803 25.2C68.447 25.0667 68.847 24.7333 69.3803 24.2C69.9403 23.64 70.2336 23.2533 70.2603 23.04C70.2603 22.7733 70.1403 22.56 69.9003 22.4C69.687 22.2133 69.3803 22.0933 68.9803 22.04H68.5403C68.1936 22.04 67.687 22.3333 67.0203 22.92C66.3803 23.48 65.8203 24.1333 65.3403 24.88C65.367 25.0133 65.567 25.1333 65.9403 25.24C66.3136 25.32 66.7136 25.36 67.1403 25.36ZM77.2597 34.16C77.0464 34.16 76.7397 34.1067 76.3397 34C75.9664 33.8933 75.7397 33.8 75.6597 33.72C75.4997 33.5867 75.3397 33.3867 75.1797 33.12C75.0197 32.8267 74.9397 32.4933 74.9397 32.12C74.9397 31.5333 75.153 30.92 75.5797 30.28C75.7397 29.96 76.1397 28.8533 76.7797 26.96L77.5797 24.76C77.633 24.3067 77.6064 23.9867 77.4997 23.8C77.393 23.5867 77.1664 23.4667 76.8197 23.44C76.5264 23.44 76.313 23.3467 76.1797 23.16C76.0464 22.9467 75.9797 22.6133 75.9797 22.16C76.0597 21.3867 76.3664 20.8267 76.8997 20.48C77.3264 20.2667 77.913 20.16 78.6597 20.16C79.3264 20.16 79.7664 20.2533 79.9797 20.44C80.193 20.6 80.3797 20.96 80.5397 21.52C80.6997 22.08 80.8197 22.6 80.8997 23.08C81.033 23 81.3797 22.64 81.9397 22L82.8197 21.08C83.273 20.76 83.793 20.4533 84.3797 20.16C84.9664 19.8667 85.3797 19.72 85.6197 19.72C85.8864 19.72 86.233 19.8533 86.6597 20.12C87.0864 20.3867 87.3664 20.64 87.4997 20.88C87.8997 21.6267 88.0997 22.24 88.0997 22.72C88.0997 23.0933 88.0064 23.3867 87.8197 23.6C87.0997 24.5067 86.2997 24.96 85.4197 24.96C85.2064 24.96 85.033 24.9467 84.8997 24.92C84.7664 24.8933 84.6064 24.7067 84.4197 24.36C84.233 24.0133 84.1264 23.7467 84.0997 23.56C84.0997 23.48 83.8997 23.64 83.4997 24.04C83.1264 24.4133 82.8864 24.6533 82.7797 24.76L82.0997 25.48C81.673 25.9867 81.233 26.6533 80.7797 27.48C80.353 28.3067 79.713 29.56 78.8597 31.24L78.3397 32.48C78.073 33.0933 77.873 33.5333 77.7397 33.8C77.6064 34.04 77.4464 34.16 77.2597 34.16ZM87.7538 39.6C87.1938 39.6267 86.7404 39.4533 86.3938 39.08C86.0471 38.7067 85.8738 38.16 85.8738 37.44C85.8738 36.56 86.1138 35.56 86.5938 34.44C86.6471 34.3333 86.7671 34.0933 86.9538 33.72C87.1671 33.3467 87.2871 33.0533 87.3138 32.84C87.5004 32.3867 88.3004 30.8133 89.7138 28.12C91.1538 25.4 92.1804 23.48 92.7938 22.36H92.8338C92.9404 22.36 93.0338 22.2933 93.1138 22.16C93.2204 22 93.3004 21.8133 93.3538 21.6C93.4071 21.3333 93.5004 21.0933 93.6338 20.88C93.7671 20.64 93.9004 20.4933 94.0338 20.44C94.0604 20.36 94.1138 20.2267 94.1938 20.04C94.3004 19.8267 94.3538 19.68 94.3538 19.6C94.3538 19.5467 94.3938 19.4533 94.4738 19.32C94.5804 19.1867 94.6338 19.08 94.6338 19C95.1938 18.28 96.5804 15.9467 98.7938 12C101.034 8.02667 102.18 5.86667 102.234 5.52C102.26 5.12 102.514 4.96 102.994 5.04C103.18 4.90667 103.394 4.86667 103.634 4.92C103.714 5 103.86 5.16 104.074 5.4C104.314 5.61333 104.54 5.86667 104.754 6.16C104.94 6.37333 105.034 6.62666 105.034 6.92C105.034 7.16 104.994 7.4 104.914 7.64C104.86 8.04 104.754 8.37333 104.594 8.64C104.46 8.90666 104.114 9.44 103.554 10.24L102.474 11.76C102.1 12.2933 101.487 13.2933 100.634 14.76C99.8071 16.2 99.4071 16.9733 99.4338 17.08C99.3804 17.16 99.2738 17.32 99.1138 17.56C98.9804 17.8 98.8604 18.0533 98.7538 18.32C98.4604 18.6933 97.9938 19.3733 97.3538 20.36C96.7138 21.3467 96.3804 21.8933 96.3537 22C96.3271 22.0533 96.2871 22.1467 96.2338 22.28C96.2071 22.3867 96.1271 22.48 95.9938 22.56C95.9404 22.5333 95.8738 22.5867 95.7938 22.72C95.7404 22.8267 95.7138 22.9067 95.7138 22.96C95.7671 23.1733 95.4471 23.84 94.7538 24.96L93.7938 26.88C93.6071 27.28 93.0604 28.3867 92.1538 30.2C91.2471 32.0133 90.5004 33.56 89.9138 34.84C89.3538 36.0933 89.0338 36.9067 88.9538 37.28C88.8471 37.8667 88.6738 38.3733 88.4338 38.8C88.1938 39.2533 87.9671 39.52 87.7538 39.6ZM105.717 34.2C105.557 34.2533 105.29 34.1333 104.917 33.84C104.57 33.5467 104.357 33.3733 104.277 33.32C104.144 33.2133 103.997 33.12 103.837 33.04C103.677 32.9333 103.57 32.8533 103.517 32.8C103.464 32.72 103.424 32.6133 103.397 32.48C103.397 32.4 103.437 32.2533 103.517 32.04C103.597 31.8267 103.717 31.6533 103.877 31.52C104.25 31.2 105.104 30.6933 106.437 30C108.224 29.0667 109.597 28.3067 110.557 27.72C111.01 27.4533 111.53 27.1733 112.117 26.88C112.49 26.6667 112.73 26.52 112.837 26.44C112.97 26.3333 113.037 26.1733 113.037 25.96L112.997 25.64C112.517 25.08 111.744 24.5333 110.677 24C109.637 23.44 108.157 22.8667 106.237 22.28C104.984 21.88 104.117 21.4933 103.637 21.12C103.157 20.7467 102.917 20.3333 102.917 19.88L102.957 19.56C103.09 19.3467 103.41 19.16 103.917 19C104.424 18.84 104.97 18.76 105.557 18.76C106.384 18.76 107.077 18.8933 107.637 19.16C107.904 19.24 108.33 19.36 108.917 19.52C109.504 19.6533 110.024 19.8267 110.477 20.04C110.93 20.2533 111.384 20.5333 111.837 20.88C111.997 20.9867 112.237 21.12 112.557 21.28C113.357 21.7333 113.957 22.12 114.357 22.44C114.784 22.76 115.197 23.2 115.597 23.76L116.917 25.36L117.357 27.48C117.117 27.5333 116.904 27.6133 116.717 27.72C116.53 27.8267 116.424 27.88 116.397 27.88C116.13 28.0133 115.717 28.2667 115.157 28.64C114.037 29.3867 112.89 30.0933 111.717 30.76C108.97 32.1733 107.317 33.16 106.757 33.72C106.624 33.88 106.45 34 106.237 34.08C106.05 34.16 105.877 34.2 105.717 34.2Z" fill="#0066FF"/>
</svg>
