<svg width="119" height="36" viewBox="0 0 119 36" fill="none" xmlns="http://www.w3.org/2000/svg">
<path d="M10.7052 29.28C10.4385 29.2 10.0118 29.0933 9.42516 28.96C8.83849 28.8 8.31849 28.6133 7.86516 28.4C7.41182 28.1867 6.95849 27.9067 6.50516 27.56C6.34516 27.4533 6.10516 27.32 5.78516 27.16C4.98516 26.7067 4.37182 26.32 3.94516 26C3.54516 25.68 3.14516 25.24 2.74516 24.68L1.42516 23.08L0.985156 20.96C1.22516 20.9067 1.43849 20.8267 1.62516 20.72C1.81182 20.6133 1.91849 20.56 1.94516 20.56C2.21182 20.4267 2.62516 20.1733 3.18516 19.8C4.30516 19.0533 5.45182 18.3467 6.62516 17.68C9.37182 16.2667 11.0252 15.28 11.5852 14.72C11.7185 14.56 11.8785 14.44 12.0652 14.36C12.2785 14.28 12.4652 14.24 12.6252 14.24C12.7852 14.1867 13.0385 14.3067 13.3852 14.6C13.7585 14.8933 13.9852 15.0667 14.0652 15.12C14.1985 15.2267 14.3452 15.3333 14.5052 15.44C14.6652 15.52 14.7718 15.6 14.8252 15.68C14.8785 15.7333 14.9185 15.8267 14.9452 15.96C14.9452 16.04 14.9052 16.1867 14.8252 16.4C14.7452 16.6133 14.6252 16.7867 14.4652 16.92C14.0918 17.24 13.2385 17.7467 11.9052 18.44C10.1185 19.3733 8.74516 20.1333 7.78516 20.72C7.33182 20.9867 6.81182 21.2667 6.22516 21.56C5.85182 21.7733 5.59849 21.9333 5.46516 22.04C5.35849 22.12 5.30516 22.2667 5.30516 22.48L5.34516 22.8C5.82516 23.36 6.58516 23.92 7.62516 24.48C8.69182 25.0133 10.1852 25.5733 12.1052 26.16C13.3585 26.56 14.2252 26.9467 14.7052 27.32C15.1852 27.6933 15.4252 28.1067 15.4252 28.56L15.3852 28.88C15.2518 29.0933 14.9318 29.28 14.4252 29.44C13.9185 29.6 13.3718 29.68 12.7852 29.68C11.9585 29.68 11.2652 29.5467 10.7052 29.28ZM22.1167 32.4C21.0767 31.6267 20.2767 30.9333 19.7167 30.32C19.1567 29.7067 18.8634 29.12 18.8367 28.56C18.8101 28.4267 18.7967 28.1867 18.7967 27.84C18.7967 27.0933 18.8634 26.16 18.9967 25.04C19.1301 23.92 19.2634 23.0267 19.3967 22.36C19.5034 22.2533 19.5567 22.0933 19.5567 21.88C19.5834 21.6667 19.5834 21.5333 19.5567 21.48C19.5567 21.4 19.6234 21.1333 19.7567 20.68C20.0767 19.6933 20.3034 18.8667 20.4367 18.2C21.1567 16.0133 21.8634 14.2667 22.5567 12.96C23.2501 11.6533 24.0234 10.4267 24.8767 9.28C26.6901 7.41333 28.6234 6 30.6767 5.04C31.7167 4.42666 32.4634 4.12 32.9167 4.12C32.9967 4.12 33.1167 4.14667 33.2767 4.2C36.5567 4.92 38.5167 7 39.1567 10.44C39.3967 12.0667 39.5167 13.2933 39.5167 14.12C39.5167 15.4533 39.2767 16.8 38.7967 18.16C38.3167 19.52 37.4501 21.2267 36.1967 23.28C35.1301 25.4133 33.9167 27.24 32.5567 28.76C31.2234 30.2533 29.8767 31.3733 28.5167 32.12C27.1834 32.8667 25.9301 33.24 24.7567 33.24C23.7167 33.24 22.8367 32.96 22.1167 32.4ZM25.3167 29.76C25.9567 29.68 26.4501 29.56 26.7967 29.4C27.1701 29.24 27.5434 28.9733 27.9167 28.6C28.3167 28.2 28.9567 27.4933 29.8367 26.48C30.9567 25.2 31.7434 24.2667 32.1967 23.68C32.6501 23.0667 33.0634 22.3067 33.4367 21.4C33.8367 20.4933 34.2767 19.1867 34.7567 17.48L34.9967 16.56C35.1567 16 35.2634 15.5467 35.3167 15.2C35.3967 14.8267 35.4367 14.4267 35.4367 14L35.3967 11.48C35.3701 11 35.2767 10.48 35.1167 9.92C34.9567 9.36 34.7701 8.96 34.5567 8.72C34.3434 8.48 34.0501 8.28 33.6767 8.12C33.3301 7.93333 32.9701 7.84 32.5967 7.84C32.3301 7.84 32.0234 7.90667 31.6767 8.04C31.1701 8.25333 30.4634 8.82667 29.5567 9.76C28.6501 10.6667 27.8367 11.6 27.1167 12.56C26.4234 13.52 26.0767 14.16 26.0767 14.48C26.0767 14.5067 26.0634 14.5867 26.0367 14.72C26.0101 14.8533 25.9567 14.9733 25.8767 15.08C25.1834 15.8267 24.4767 17.4 23.7567 19.8C23.0634 22.2 22.6634 24.2933 22.5567 26.08C22.5301 26.8533 22.5301 27.3867 22.5567 27.68C22.6101 27.9733 22.7567 28.3067 22.9967 28.68C23.1834 28.9733 23.5167 29.2533 23.9967 29.52C24.5034 29.76 24.9434 29.84 25.3167 29.76ZM58.7733 30.08C58.4266 30.08 58.1599 30.0267 57.9733 29.92C57.7599 29.84 57.4799 29.6533 57.1333 29.36C56.8133 29.04 56.5199 28.6 56.2533 28.04C56.0133 27.4533 55.8933 26.76 55.8933 25.96C55.8933 25.4533 55.9199 25.0133 55.9733 24.64C56.0533 24.24 56.0933 23.9867 56.0933 23.88C56.0933 23.7467 56.0533 23.68 55.9733 23.68C55.2799 23.68 53.7733 24.9467 51.4533 27.48C51.3733 27.5333 51.3066 27.6 51.2533 27.68C50.9333 27.92 50.6399 28.1733 50.3733 28.44C49.9733 28.8133 49.6399 29.0933 49.3733 29.28C49.1333 29.44 48.8666 29.5333 48.5733 29.56C48.3866 29.56 48.1866 29.48 47.9733 29.32L47.5333 28.96C47.3999 28.88 47.2799 28.7333 47.1733 28.52C47.0666 28.3067 47.0133 28.1067 47.0133 27.92V27.8V27.72L47.9333 25.04C48.5999 23.5733 48.9333 22.7067 48.9333 22.44C48.9333 22.3867 48.9199 22.36 48.8933 22.36C48.6533 22.3333 48.2933 22.5467 47.8133 23C47.3599 23.4267 46.7066 24.1067 45.8533 25.04L44.0533 26.92C43.8399 27.1333 43.2666 27.7733 42.3333 28.84C41.7466 29.56 41.4399 29.92 41.4133 29.92C40.8266 29.92 40.2933 29.6933 39.8133 29.24C39.3599 28.7867 39.1333 28.24 39.1333 27.6C39.1333 27.28 39.1866 26.8533 39.2933 26.32C39.3999 25.7867 39.5199 25.2267 39.6533 24.64C39.7066 24.4267 39.7599 24.1867 39.8133 23.92C39.8933 23.6533 39.9733 23.3467 40.0533 23C40.1066 22.7333 40.1599 22.44 40.2133 22.12C40.2933 21.8 40.4399 21.3867 40.6533 20.88C40.8666 20.3467 41.1733 19.6133 41.5733 18.68C41.6799 18.3333 41.7333 17.9733 41.7333 17.6C41.7333 17.4133 41.7199 17.24 41.6933 17.08C41.6666 16.8933 41.6533 16.7733 41.6533 16.72C41.6533 16.32 41.8399 15.9867 42.2133 15.72C42.6133 15.4267 43.0533 15.28 43.5333 15.28C44.2266 15.28 44.7466 15.5333 45.0933 16.04C45.4399 16.52 45.6133 17.0267 45.6133 17.56C45.6133 18.0133 45.5066 18.4533 45.2933 18.88L44.8533 19.96C44.7466 20.2 44.5466 20.64 44.2533 21.28C43.9866 21.8933 43.8533 22.2667 43.8533 22.4C43.8533 22.48 43.8799 22.52 43.9333 22.52H43.9733C44.1066 22.52 44.3199 22.3733 44.6133 22.08C45.4666 21.28 46.4933 20.4533 47.6933 19.6C48.9199 18.72 49.7999 18.2 50.3333 18.04C50.5466 18.04 50.8266 18.1467 51.1733 18.36C51.5199 18.5733 51.8266 18.8667 52.0933 19.24C52.3599 19.5867 52.4933 19.9733 52.4933 20.4L52.4533 20.72C52.4266 20.8267 52.3066 21.28 52.0933 22.08C51.9066 22.88 51.7599 23.3467 51.6533 23.48C52.1599 22.8933 53.0399 22.1733 54.2933 21.32C55.5466 20.44 56.4666 19.9867 57.0533 19.96C57.9333 19.96 58.5066 20.32 58.7733 21.04C59.0399 21.76 59.2266 22.8133 59.3333 24.2C59.4399 25.5067 59.5866 26.3867 59.7733 26.84C59.8266 27 60.0133 27.1333 60.3333 27.24C60.6533 27.3467 60.9066 27.48 61.0933 27.64C61.3066 27.7733 61.4133 28.0533 61.4133 28.48C61.4133 29.0667 61.1466 29.48 60.6133 29.72C60.1066 29.96 59.4933 30.08 58.7733 30.08ZM67.3067 31C65.7867 31 64.5601 30.5733 63.6267 29.72C62.6934 28.8667 62.2267 27.6533 62.2267 26.08C62.2267 25.4667 62.2667 24.7867 62.3467 24.04C62.4001 23.4 62.6534 22.52 63.1067 21.4C63.5867 20.28 64.2267 19.1867 65.0267 18.12C65.8534 17.0533 66.8134 16.2667 67.9067 15.76C68.4134 15.52 68.8401 15.36 69.1867 15.28C69.5334 15.1733 69.9334 15.12 70.3867 15.12C71.4801 15.12 72.3601 15.32 73.0267 15.72C73.7201 16.12 74.2001 16.5733 74.4667 17.08C74.7601 17.5867 74.9067 18.0267 74.9067 18.4V18.6V18.72C74.9067 19.04 74.7201 19.6267 74.3467 20.48C73.9734 21.3333 73.3734 22.1333 72.5467 22.88C71.7467 23.6267 70.7067 24.04 69.4267 24.12C68.7867 24.12 68.1601 24.0667 67.5467 23.96C66.9601 23.8267 66.5867 23.76 66.4267 23.76C66.0267 23.76 65.7734 23.9067 65.6667 24.2C65.5601 24.4933 65.5067 24.9867 65.5067 25.68C65.5867 26.4267 65.7867 26.9467 66.1067 27.24C66.4534 27.5333 66.9467 27.68 67.5867 27.68C67.9067 27.68 68.2801 27.5867 68.7067 27.4C69.1334 27.1867 69.6401 26.8533 70.2267 26.4C70.5467 26.1333 70.8001 25.9467 70.9867 25.84C71.1734 25.7333 71.4001 25.68 71.6667 25.68C71.9067 25.68 72.1867 25.84 72.5067 26.16C72.8267 26.48 73.0001 26.7867 73.0267 27.08C72.9734 27.4 72.6801 27.88 72.1467 28.52C71.6134 29.16 70.9201 29.7333 70.0667 30.24C69.2134 30.7467 68.2934 31 67.3067 31ZM68.7067 21.36C69.2134 21.36 69.5601 21.3067 69.7467 21.2C70.0134 21.0667 70.4134 20.7333 70.9467 20.2C71.5067 19.64 71.8001 19.2533 71.8267 19.04C71.8267 18.7733 71.7067 18.56 71.4667 18.4C71.2534 18.2133 70.9467 18.0933 70.5467 18.04H70.1067C69.7601 18.04 69.2534 18.3333 68.5867 18.92C67.9467 19.48 67.3867 20.1333 66.9067 20.88C66.9334 21.0133 67.1334 21.1333 67.5067 21.24C67.8801 21.32 68.2801 21.36 68.7067 21.36ZM78.8261 30.16C78.6128 30.16 78.3061 30.1067 77.9061 30C77.5328 29.8933 77.3061 29.8 77.2261 29.72C77.0661 29.5867 76.9061 29.3867 76.7461 29.12C76.5861 28.8267 76.5061 28.4933 76.5061 28.12C76.5061 27.5333 76.7194 26.92 77.1461 26.28C77.3061 25.96 77.7061 24.8533 78.3461 22.96L79.1461 20.76C79.1994 20.3067 79.1728 19.9867 79.0661 19.8C78.9594 19.5867 78.7328 19.4667 78.3861 19.44C78.0928 19.44 77.8794 19.3467 77.7461 19.16C77.6128 18.9467 77.5461 18.6133 77.5461 18.16C77.6261 17.3867 77.9328 16.8267 78.4661 16.48C78.8928 16.2667 79.4794 16.16 80.2261 16.16C80.8928 16.16 81.3328 16.2533 81.5461 16.44C81.7594 16.6 81.9461 16.96 82.1061 17.52C82.2661 18.08 82.3861 18.6 82.4661 19.08C82.5994 19 82.9461 18.64 83.5061 18L84.3861 17.08C84.8394 16.76 85.3594 16.4533 85.9461 16.16C86.5328 15.8667 86.9461 15.72 87.1861 15.72C87.4528 15.72 87.7994 15.8533 88.2261 16.12C88.6528 16.3867 88.9328 16.64 89.0661 16.88C89.4661 17.6267 89.6661 18.24 89.6661 18.72C89.6661 19.0933 89.5728 19.3867 89.3861 19.6C88.6661 20.5067 87.8661 20.96 86.9861 20.96C86.7728 20.96 86.5994 20.9467 86.4661 20.92C86.3328 20.8933 86.1728 20.7067 85.9861 20.36C85.7994 20.0133 85.6928 19.7467 85.6661 19.56C85.6661 19.48 85.4661 19.64 85.0661 20.04C84.6928 20.4133 84.4528 20.6533 84.3461 20.76L83.6661 21.48C83.2394 21.9867 82.7994 22.6533 82.3461 23.48C81.9194 24.3067 81.2794 25.56 80.4261 27.24L79.9061 28.48C79.6394 29.0933 79.4394 29.5333 79.3061 29.8C79.1728 30.04 79.0128 30.16 78.8261 30.16ZM89.3202 35.6C88.7602 35.6267 88.3068 35.4533 87.9602 35.08C87.6135 34.7067 87.4402 34.16 87.4402 33.44C87.4402 32.56 87.6802 31.56 88.1602 30.44C88.2135 30.3333 88.3335 30.0933 88.5202 29.72C88.7335 29.3467 88.8535 29.0533 88.8802 28.84C89.0668 28.3867 89.8668 26.8133 91.2802 24.12C92.7202 21.4 93.7468 19.48 94.3602 18.36H94.4002C94.5068 18.36 94.6002 18.2933 94.6802 18.16C94.7868 18 94.8668 17.8133 94.9202 17.6C94.9735 17.3333 95.0668 17.0933 95.2002 16.88C95.3335 16.64 95.4668 16.4933 95.6002 16.44C95.6268 16.36 95.6802 16.2267 95.7602 16.04C95.8668 15.8267 95.9202 15.68 95.9202 15.6C95.9202 15.5467 95.9602 15.4533 96.0402 15.32C96.1468 15.1867 96.2002 15.08 96.2002 15C96.7602 14.28 98.1468 11.9467 100.36 8C102.6 4.02667 103.747 1.86667 103.8 1.52C103.827 1.12 104.08 0.959999 104.56 1.04C104.747 0.906666 104.96 0.866666 105.2 0.919999C105.28 0.999999 105.427 1.16 105.64 1.4C105.88 1.61333 106.107 1.86667 106.32 2.16C106.507 2.37333 106.6 2.62666 106.6 2.92C106.6 3.16 106.56 3.4 106.48 3.64C106.427 4.04 106.32 4.37333 106.16 4.64C106.027 4.90666 105.68 5.44 105.12 6.24L104.04 7.76C103.667 8.29333 103.053 9.29333 102.2 10.76C101.373 12.2 100.973 12.9733 101 13.08C100.947 13.16 100.84 13.32 100.68 13.56C100.547 13.8 100.427 14.0533 100.32 14.32C100.027 14.6933 99.5602 15.3733 98.9202 16.36C98.2802 17.3467 97.9468 17.8933 97.9202 18C97.8935 18.0533 97.8535 18.1467 97.8002 18.28C97.7735 18.3867 97.6935 18.48 97.5602 18.56C97.5068 18.5333 97.4402 18.5867 97.3602 18.72C97.3068 18.8267 97.2802 18.9067 97.2802 18.96C97.3335 19.1733 97.0135 19.84 96.3202 20.96L95.3602 22.88C95.1735 23.28 94.6268 24.3867 93.7202 26.2C92.8135 28.0133 92.0668 29.56 91.4802 30.84C90.9202 32.0933 90.6002 32.9067 90.5202 33.28C90.4135 33.8667 90.2402 34.3733 90.0002 34.8C89.7602 35.2533 89.5335 35.52 89.3202 35.6ZM107.283 30.2C107.123 30.2533 106.857 30.1333 106.483 29.84C106.137 29.5467 105.923 29.3733 105.843 29.32C105.71 29.2133 105.563 29.12 105.403 29.04C105.243 28.9333 105.137 28.8533 105.083 28.8C105.03 28.72 104.99 28.6133 104.963 28.48C104.963 28.4 105.003 28.2533 105.083 28.04C105.163 27.8267 105.283 27.6533 105.443 27.52C105.817 27.2 106.67 26.6933 108.003 26C109.79 25.0667 111.163 24.3067 112.123 23.72C112.577 23.4533 113.097 23.1733 113.683 22.88C114.057 22.6667 114.297 22.52 114.403 22.44C114.537 22.3333 114.603 22.1733 114.603 21.96L114.563 21.64C114.083 21.08 113.31 20.5333 112.243 20C111.203 19.44 109.723 18.8667 107.803 18.28C106.55 17.88 105.683 17.4933 105.203 17.12C104.723 16.7467 104.483 16.3333 104.483 15.88L104.523 15.56C104.657 15.3467 104.977 15.16 105.483 15C105.99 14.84 106.537 14.76 107.123 14.76C107.95 14.76 108.643 14.8933 109.203 15.16C109.47 15.24 109.897 15.36 110.483 15.52C111.07 15.6533 111.59 15.8267 112.043 16.04C112.497 16.2533 112.95 16.5333 113.403 16.88C113.563 16.9867 113.803 17.12 114.123 17.28C114.923 17.7333 115.523 18.12 115.923 18.44C116.35 18.76 116.763 19.2 117.163 19.76L118.483 21.36L118.923 23.48C118.683 23.5333 118.47 23.6133 118.283 23.72C118.097 23.8267 117.99 23.88 117.963 23.88C117.697 24.0133 117.283 24.2667 116.723 24.64C115.603 25.3867 114.457 26.0933 113.283 26.76C110.537 28.1733 108.883 29.16 108.323 29.72C108.19 29.88 108.017 30 107.803 30.08C107.617 30.16 107.443 30.2 107.283 30.2Z" fill="#0066FF"/>
</svg>
