<svg width="1919" height="435" viewBox="0 0 1919 435" fill="none" xmlns="http://www.w3.org/2000/svg">
<path d="M-1 0H1919V323H-1V0Z" fill="#0066FF"/>
<path d="M-1 237.833H79V343.667C79 365.758 61.0914 383.667 39 383.667C16.9086 383.667 -1 365.758 -1 343.667V237.833Z" fill="#0066FF"/>
<path d="M159 237.833H239V328.5C239 350.592 221.091 368.5 199 368.5C176.909 368.5 159 350.592 159 328.5V237.833Z" fill="#0066FF"/>
<path d="M319 237.833H399V372.834C399 394.925 381.091 412.834 359 412.834C336.909 412.834 319 394.925 319 372.834V237.833Z" fill="#0066FF"/>
<path d="M479 237.833H559V354.167C559 376.258 541.091 394.167 519 394.167C496.909 394.167 479 376.258 479 354.167V237.833Z" fill="#0066FF"/>
<path d="M639 237.833H719V375.167C719 397.258 701.091 415.167 679 415.167C656.909 415.167 639 397.258 639 375.167V237.833Z" fill="#0066FF"/>
<path d="M799 237.833H879V334.334C879 356.425 861.091 374.334 839 374.334C816.909 374.334 799 356.425 799 334.334V237.833Z" fill="#0066FF"/>
<path d="M959 237.833H1039V384.5C1039 406.592 1021.09 424.5 999 424.5C976.909 424.5 959 406.592 959 384.5V237.833Z" fill="#0066FF"/>
<path d="M1119 237.833H1199V356.5C1199 378.592 1181.09 396.5 1159 396.5C1136.91 396.5 1119 378.592 1119 356.5V237.833Z" fill="#0066FF"/>
<path d="M1279 237.833H1359V384.5C1359 406.592 1341.09 424.5 1319 424.5C1296.91 424.5 1279 406.592 1279 384.5V237.833Z" fill="#0066FF"/>
<path d="M1439 237.833H1519V354.167C1519 376.258 1501.09 394.167 1479 394.167C1456.91 394.167 1439 376.258 1439 354.167V237.833Z" fill="#0066FF"/>
<path d="M1599 237.833H1679V372.834C1679 394.925 1661.09 412.834 1639 412.834C1616.91 412.834 1599 394.925 1599 372.834V237.833Z" fill="#0066FF"/>
<path d="M1759 237.833H1839V328.5C1839 350.592 1821.09 368.5 1799 368.5C1776.91 368.5 1759 350.592 1759 328.5V237.833Z" fill="#0066FF"/>
<path d="M79 296.5C79 274.409 96.9086 256.5 119 256.5C141.091 256.5 159 274.409 159 296.5V435H79V296.5Z" fill="white"/>
<path d="M239 256.834C239 234.742 256.909 216.833 279 216.833C301.091 216.833 319 234.742 319 256.833V435H239V256.834Z" fill="white"/>
<path d="M399 324.501C399 302.409 416.909 284.5 439 284.5C461.091 284.5 479 302.409 479 324.5V435.001H399V324.501Z" fill="white"/>
<path d="M559 270.834C559 248.742 576.909 230.833 599 230.833C621.091 230.833 639 248.742 639 270.833V435H559V270.834Z" fill="white"/>
<path d="M719 286C719 263.909 736.909 246 759 246C781.091 246 799 263.909 799 286V435H719V286Z" fill="white"/>
<path d="M879 311.666C879 289.575 896.909 271.667 919 271.667C941.091 271.667 959 289.575 959 311.667V435H879V311.666Z" fill="white"/>
<path d="M1039 270.834C1039 248.742 1056.91 230.833 1079 230.833C1101.09 230.833 1119 248.742 1119 270.833V435H1039V270.834Z" fill="white"/>
<path d="M1199 311.666C1199 289.575 1216.91 271.667 1239 271.667C1261.09 271.667 1279 289.575 1279 311.667V435H1199V311.666Z" fill="white"/>
<path d="M1359 270.834C1359 248.742 1376.91 230.833 1399 230.833C1421.09 230.833 1439 248.742 1439 270.833V435H1359V270.834Z" fill="white"/>
<path d="M1519 311.666C1519 289.575 1536.91 271.667 1559 271.667C1581.09 271.667 1599 289.575 1599 311.667V435H1519V311.666Z" fill="white"/>
<path d="M1679 277.834C1679 255.742 1696.91 237.833 1719 237.833C1741.09 237.833 1759 255.742 1759 277.833V435H1679V277.834Z" fill="white"/>
<path d="M1839 286C1839 263.909 1856.91 246 1879 246C1901.09 246 1919 263.909 1919 286V435H1839V286Z" fill="white"/>
</svg>
