<svg width="78" height="20" viewBox="0 0 78 20" fill="none" xmlns="http://www.w3.org/2000/svg">
<path d="M0.507609 15.5172V7.87358H11.346V7.42648H0.507609V0.453313H12.0312V0.00634766H0V15.9642H12.1327V15.5172H0.507762H0.507609ZM21.9051 4.47627L17.4124 9.68384L13.0211 4.4764H12.3612L17.1077 10.0192L11.9041 15.964H12.5134L17.4121 10.3542L22.3363 15.964H22.9708L17.7421 10.0189L22.514 4.47613H21.9049L21.9051 4.47627ZM24.494 19.8978V12.7459H24.5447C24.8494 13.7889 25.4501 14.627 26.3469 15.2603C27.2438 15.8935 28.3859 16.2102 29.7735 16.2102C30.6703 16.2102 31.4657 16.05 32.1595 15.7297C32.8532 15.4093 33.4328 14.9735 33.8982 14.4222C34.3634 13.8709 34.7188 13.2302 34.9643 12.5C35.2095 11.77 35.3323 11.0026 35.3323 10.1981C35.3323 9.33386 35.2053 8.53665 34.9515 7.80664C34.6977 7.0765 34.3296 6.44321 33.8474 5.90691C33.3651 5.37047 32.7813 4.95315 32.0959 4.65535C31.4107 4.35728 30.6365 4.20825 29.7735 4.20825C29.1135 4.20825 28.5002 4.29397 27.9333 4.46527C27.3664 4.6367 26.8631 4.8787 26.4231 5.19165C25.9806 5.50702 25.5954 5.88008 25.2808 6.29793C24.9594 6.72263 24.714 7.18824 24.5447 7.6949H24.494V4.47627H23.9864V19.8978H24.494ZM29.7735 15.7853C28.183 15.7853 26.9053 15.3048 25.9408 14.3438C24.9763 13.3828 24.494 12.0008 24.494 10.1979C24.494 9.45285 24.6125 8.74511 24.8494 8.07466C25.0863 7.40421 25.4289 6.81559 25.8773 6.30907C26.3258 5.80241 26.88 5.40011 27.5398 5.10218C28.1997 4.80411 28.9444 4.65508 29.7735 4.65508C30.6196 4.65508 31.36 4.80411 31.9945 5.10218C32.629 5.40011 33.1537 5.80617 33.5682 6.3202C33.9827 6.83424 34.2958 7.42286 34.5074 8.0858C34.7188 8.74887 34.8246 9.45285 34.8246 10.1979C34.8246 10.8685 34.7274 11.5353 34.5327 12.1982C34.3381 12.8613 34.0377 13.4573 33.6316 13.9864C33.2256 14.5151 32.7053 14.9472 32.0706 15.2826C31.436 15.6178 30.6703 15.7853 29.7735 15.7853ZM38.1243 15.9642V9.46036C38.1243 8.83458 38.2258 8.22356 38.429 7.6277C38.6319 7.0317 38.945 6.50639 39.3681 6.05205C39.7911 5.59757 40.3283 5.23995 40.9799 4.97917C41.6313 4.7184 42.4055 4.61041 43.3023 4.65508V4.20812C42.5239 4.19336 41.8429 4.26768 41.2591 4.4316C40.6752 4.59552 40.1718 4.81901 39.7488 5.10218C39.3257 5.38522 38.9874 5.71669 38.7336 6.09672C38.4799 6.47614 38.2917 6.88663 38.1751 7.31474H38.1243V4.47627H37.6167V15.9643H38.1243V15.9642ZM43.9369 10.3096H54.8512C54.8852 9.51992 54.7964 8.76013 54.5848 8.02999C54.3733 7.29985 54.0348 6.65167 53.5695 6.08559C53.1041 5.51937 52.5034 5.06489 51.7673 4.72215C51.0312 4.37942 50.1555 4.20812 49.1403 4.20812C48.4126 4.20812 47.7019 4.34226 47.0081 4.61055C46.3143 4.8787 45.7051 5.26973 45.1806 5.78376C44.6561 6.2978 44.233 6.92733 43.9116 7.6725C43.5901 8.4174 43.4292 9.26666 43.4292 10.2203C43.4292 11.0695 43.5392 11.863 43.7592 12.6005C43.9792 13.338 44.3176 13.9788 44.7744 14.5227C45.2315 15.0665 45.8195 15.4874 46.5386 15.7853C47.2576 16.0834 48.1249 16.2249 49.1403 16.21C50.6293 16.21 51.8816 15.8412 52.8968 15.1038C53.9122 14.3661 54.5129 13.3269 54.699 11.9859H54.1914C53.9714 13.2525 53.4087 14.2023 52.5034 14.8355C51.5981 15.4688 50.4602 15.7853 49.0894 15.7853C48.1588 15.7853 47.3719 15.6438 46.7289 15.3608C46.086 15.0777 45.5613 14.6902 45.1551 14.1986C44.7491 13.7068 44.4487 13.1294 44.2542 12.4664C44.0595 11.8034 43.9538 11.0844 43.9369 10.3096ZM54.3436 9.86266H43.937C43.9876 9.05807 44.1568 8.33544 44.4445 7.69477C44.7322 7.05397 45.1087 6.50639 45.5741 6.05205C46.0393 5.59757 46.5809 5.25121 47.1985 5.01271C47.8161 4.77434 48.4804 4.65508 49.191 4.65508C50.0372 4.65508 50.7815 4.79298 51.4247 5.06865C52.0676 5.34431 52.6049 5.72058 53.0365 6.19733C53.4679 6.67407 53.7936 7.22916 54.0136 7.86231C54.2336 8.4956 54.3436 9.16243 54.3436 9.86266ZM65.385 7.87358H65.8926C65.8926 6.59211 65.4696 5.66089 64.6236 5.07978C63.7773 4.49867 62.6267 4.20812 61.1715 4.20812C60.3592 4.20812 59.674 4.29759 59.1155 4.4764C58.5571 4.65508 58.1003 4.88608 57.7448 5.16912C57.3896 5.45216 57.1358 5.76512 56.9834 6.10785C56.8311 6.45059 56.7549 6.77844 56.7549 7.09126C56.7549 7.71704 56.8818 8.21618 57.1358 8.5887C57.3896 8.96121 57.7872 9.25177 58.3286 9.46036C58.7009 9.60926 59.1238 9.7434 59.5978 9.86279C60.0716 9.98191 60.6215 10.1085 61.2477 10.2426C61.806 10.3619 62.356 10.4811 62.8976 10.6002C63.439 10.7194 63.917 10.8796 64.3316 11.0807C64.7462 11.2819 65.0846 11.5389 65.3469 11.8519C65.6091 12.1647 65.7403 12.5745 65.7403 13.081C65.7403 13.5728 65.6093 13.99 65.3469 14.3326C65.0868 14.6735 64.7445 14.9597 64.3444 15.1708C63.9382 15.3868 63.4855 15.5432 62.9864 15.6401C62.4871 15.7369 62.0007 15.7853 61.5269 15.7853C59.987 15.7853 58.8067 15.4837 57.986 14.8803C57.1653 14.2768 56.7551 13.3269 56.7551 12.0305H56.2473C56.2473 13.4759 56.6915 14.5338 57.5798 15.2044C58.4683 15.8748 59.784 16.21 61.5269 16.21C62.0853 16.21 62.6479 16.1541 63.2149 16.0424C63.7816 15.9306 64.2894 15.7482 64.7377 15.4948C65.1823 15.245 65.5557 14.9086 65.8291 14.5115C66.1084 14.1091 66.2481 13.6175 66.2481 13.0364C66.2481 12.485 66.1253 12.0381 65.88 11.6953C65.6346 11.3527 65.3131 11.0695 64.9153 10.8461C64.5177 10.6226 64.0694 10.4475 63.5702 10.3209C63.0681 10.1935 62.5646 10.0705 62.0598 9.952C61.4385 9.80847 60.8167 9.66695 60.1942 9.52743C59.6613 9.40818 59.1664 9.26666 58.7095 9.10274C58.2695 8.93881 57.9184 8.7042 57.656 8.39875C57.3937 8.09331 57.2627 7.65748 57.2627 7.09126C57.2627 6.98703 57.2965 6.8007 57.3641 6.53255C57.4318 6.26426 57.5926 5.99236 57.8464 5.71669C58.1003 5.44116 58.4893 5.19528 59.014 4.97917C59.5385 4.7632 60.2577 4.65508 61.1715 4.65508C61.7976 4.65508 62.3686 4.71478 62.8848 4.83389C63.4009 4.95315 63.8451 5.1431 64.2173 5.40387C64.5896 5.66464 64.8773 5.99611 65.0803 6.39841C65.2834 6.80084 65.385 7.29247 65.385 7.87358ZM77.137 7.87358H77.6446C77.6446 6.59211 77.2217 5.66089 76.3756 5.07978C75.5294 4.49867 74.3788 4.20812 72.9234 4.20812C72.1113 4.20812 71.4259 4.29759 70.8676 4.4764C70.3091 4.65508 69.8522 4.88608 69.4969 5.16912C69.1415 5.45216 68.8877 5.76512 68.7354 6.10785C68.583 6.45059 68.507 6.77844 68.507 7.09126C68.507 7.71704 68.6339 8.21618 68.8879 8.5887C69.1415 8.96121 69.5393 9.25177 70.0807 9.46036C70.453 9.60926 70.8759 9.7434 71.3497 9.86279C71.8235 9.98191 72.3735 10.1085 72.9996 10.2426C73.5581 10.3619 74.1081 10.4811 74.6495 10.6002C75.1911 10.7194 75.669 10.8796 76.0837 11.0807C76.4982 11.2819 76.8367 11.5389 77.0989 11.8519C77.3612 12.1647 77.4924 12.5745 77.4924 13.081C77.4924 13.5728 77.3612 13.99 77.0989 14.3326C76.8388 14.6735 76.4966 14.9597 76.0965 15.1708C75.6902 15.3868 75.2375 15.5432 74.7383 15.6401C74.2392 15.7369 73.7527 15.7853 73.2789 15.7853C71.739 15.7853 70.5588 15.4837 69.7381 14.8803C68.9173 14.2768 68.507 13.3269 68.507 12.0305H67.9994C67.9994 13.4759 68.4435 14.5338 69.3319 15.2044C70.2203 15.8748 71.5359 16.21 73.2789 16.21C73.8374 16.21 74.4 16.1541 74.9668 16.0424C75.5336 15.9306 76.0413 15.7482 76.4898 15.4948C76.9344 15.245 77.3078 14.9086 77.5812 14.5115C77.8605 14.1091 78 13.6175 78 13.0364C78 12.485 77.8774 12.0381 77.6319 11.6953C77.3867 11.3527 77.0652 11.0695 76.6674 10.8461C76.2698 10.6226 75.8213 10.4475 75.3223 10.3209C74.8202 10.1935 74.3167 10.0705 73.8119 9.952C73.1906 9.80847 72.5688 9.66695 71.9463 9.52743C71.4133 9.40818 70.9183 9.26666 70.4614 9.10274C70.0215 8.93881 69.6703 8.7042 69.4081 8.39875C69.1458 8.09331 69.0146 7.65748 69.0146 7.09126C69.0146 6.98703 69.0484 6.8007 69.1162 6.53255C69.1839 6.26426 69.3447 5.99236 69.5984 5.71669C69.8522 5.44116 70.2414 5.19528 70.766 4.97917C71.2906 4.7632 72.0097 4.65508 72.9236 4.65508C73.5497 4.65508 74.1207 4.71478 74.6369 4.83389C75.153 4.95315 75.5971 5.1431 75.9694 5.40387C76.3417 5.66464 76.6294 5.99611 76.8324 6.39841C77.0355 6.80084 77.1371 7.29247 77.1371 7.87358H77.137Z" fill="#313131"/>
</svg>
