<svg width="32" height="38" viewBox="0 0 32 38" fill="none" xmlns="http://www.w3.org/2000/svg">
<path d="M14.5626 0.482263C15.4326 -0.0547232 16.5659 -0.0571487 17.4352 0.482263C21.8086 3.14685 26.1834 5.80725 30.5561 8.47345C31.3785 8.97298 31.9286 9.9599 31.9203 10.9817V27.0129C31.9264 28.077 31.3219 29.0875 30.4542 29.5757C26.0952 32.2256 21.7384 34.8788 17.3801 37.5287C16.492 38.0761 15.336 38.034 14.4757 37.4416C13.1689 36.6247 11.8598 35.8119 10.5528 34.9959C10.2858 34.8242 9.98469 34.6875 9.79611 34.4083C9.96282 34.1661 10.2609 34.1359 10.5031 34.0301C11.0486 33.8431 11.5496 33.5428 12.0507 33.2515C12.1775 33.158 12.3322 33.1938 12.4537 33.2775C13.5712 33.9684 14.6788 34.6793 15.8 35.3636C16.0392 35.5125 16.2814 35.3148 16.4859 35.1919C20.7635 32.5851 25.0463 29.9882 29.3231 27.3806C29.4816 27.2984 29.5692 27.1171 29.5563 26.9299C29.5593 21.6415 29.557 16.3523 29.5578 11.0639C29.5759 10.8516 29.4619 10.6563 29.2838 10.5694C24.9399 7.93162 20.5982 5.28981 16.2551 2.65136C16.1798 2.59558 16.0907 2.56565 15.9994 2.56551C15.9081 2.56537 15.8188 2.59501 15.7434 2.65056C11.4003 5.28981 7.05933 7.93404 2.71616 10.5717C2.53869 10.6587 2.4196 10.8507 2.44072 11.0639C2.44147 16.3523 2.44072 21.6415 2.44072 26.9307C2.43319 27.022 2.45179 27.1136 2.49402 27.1932C2.53625 27.2728 2.60008 27.3365 2.67691 27.3758C3.83591 28.0844 4.99641 28.7881 6.15615 29.4943C6.80951 29.8735 7.61171 30.0988 8.33155 29.8083C8.96679 29.5627 9.41207 28.8637 9.39995 28.1364C9.40594 22.879 9.39695 17.6207 9.40444 12.364C9.38857 12.1306 9.5939 11.9378 9.80436 11.9598C10.3612 11.9557 10.9189 11.9517 11.4757 11.9614C11.7082 11.9557 11.8682 12.207 11.8394 12.4422C11.8372 17.7329 11.8454 23.0238 11.8357 28.3146C11.8372 29.7246 11.2999 31.2589 10.0903 31.9488C8.60012 32.7812 6.75827 32.6047 5.28609 31.8066C4.01162 31.1207 2.79539 30.3112 1.54354 29.5764C0.673603 29.0909 0.0721089 28.0763 0.0782326 27.013V10.9817C0.0691096 9.93875 0.64111 8.9339 1.48917 8.44165C5.84747 5.7896 10.205 3.13553 14.5626 0.482263Z" fill="#313131"/>
<path d="M18.3764 11.5869C20.2772 11.455 22.3121 11.5088 24.0226 12.5185C25.347 13.2922 26.0812 14.9161 26.1045 16.5025C26.0675 16.7165 25.8601 16.8346 25.6706 16.8199C25.1191 16.8191 24.5675 16.828 24.016 16.8158C23.7821 16.8255 23.6461 16.593 23.6167 16.3699C23.4582 15.6109 23.0743 14.8591 22.4117 14.493C21.3946 13.9439 20.2152 13.9715 19.1061 13.9829C18.2964 14.0293 17.4257 14.1049 16.7397 14.6183C16.2131 15.0072 16.0531 15.7923 16.2411 16.4245C16.4183 16.8785 16.9043 17.025 17.302 17.16C19.5927 17.806 22.0202 17.7417 24.2672 18.5919C25.1975 18.9384 26.1075 19.6122 26.426 20.6625C26.8425 22.0701 26.6599 23.7526 25.7311 24.8826C24.9779 25.8125 23.8809 26.3187 22.7868 26.5936C21.3312 26.9435 19.8207 26.9524 18.3425 26.797C16.9526 26.6262 15.5061 26.2324 14.4331 25.2113C13.5156 24.3522 13.0674 23.0137 13.1119 21.7219C13.1225 21.5037 13.324 21.3516 13.5178 21.3695C14.0732 21.3646 14.6286 21.363 15.1839 21.3703C15.4058 21.3532 15.5702 21.5599 15.5816 21.7853C15.6841 22.5086 15.9362 23.2676 16.521 23.6964C17.6498 24.4816 19.0661 24.4278 20.3586 24.4498C21.4293 24.3986 22.6313 24.3831 23.5051 23.62C23.9661 23.1847 24.1027 22.4565 23.9781 21.8301C23.8432 21.3012 23.33 21.0547 22.8894 20.8936C20.628 20.1222 18.1734 20.4021 15.9339 19.5299C15.0247 19.1834 14.1455 18.5284 13.7963 17.5213C13.3089 16.0959 13.5322 14.3328 14.5583 13.2409C15.5589 12.1548 17.0032 11.7365 18.3764 11.5868V11.5869Z" fill="#313131"/>
</svg>
