<svg width="45" height="40" viewBox="0 0 45 40" fill="none" xmlns="http://www.w3.org/2000/svg">
<path d="M35.3348 13.8565C34.9121 13.713 34.4857 13.5801 34.0562 13.4579C34.1275 13.1715 34.1933 12.8839 34.2538 12.5951C35.2216 7.94677 34.5888 4.20207 32.4279 2.96938C30.356 1.78711 26.9675 3.01981 23.5451 5.96642C23.2079 6.25743 22.8782 6.55683 22.5562 6.86433C22.3406 6.65986 22.1212 6.45937 21.8981 6.26294C18.3115 3.11198 14.7164 1.78433 12.5577 3.02068C10.4878 4.20624 9.87468 7.72677 10.746 12.132C10.8327 12.5682 10.9306 13.0022 11.0395 13.4335C10.5308 13.5765 10.0396 13.7289 9.56953 13.8909C5.36467 15.3414 2.6792 17.6148 2.6792 19.9727C2.6792 22.4082 5.56189 24.8509 9.94182 26.332C10.297 26.4515 10.6551 26.5623 11.0158 26.6642C10.8986 27.1288 10.7946 27.5967 10.7038 28.0671C9.8731 32.3958 10.5219 35.8328 12.5863 37.0111C14.7187 38.2276 18.2974 36.9772 21.7823 33.9633C22.0577 33.725 22.3342 33.4723 22.6111 33.2075C22.9598 33.5403 23.3178 33.8635 23.6847 34.1767C27.0603 37.0506 30.394 38.2111 32.4567 37.0297C34.5871 35.8095 35.2793 32.1172 34.3804 27.6248C34.3118 27.2817 34.2318 26.9313 34.1422 26.5744C34.3935 26.501 34.6402 26.4252 34.8808 26.3462C39.434 24.8537 42.3964 22.4407 42.3964 19.9727C42.3964 17.6062 39.6244 15.3175 35.3348 13.8565Z" fill="#313131"/>
<path d="M34.3474 24.7528C34.1303 24.824 33.9074 24.8927 33.6803 24.9593C33.1776 23.3848 32.4991 21.7106 31.6691 19.981C32.4613 18.2923 33.1134 16.6396 33.6021 15.0753C34.0083 15.1918 34.4027 15.3144 34.7828 15.444C38.4582 16.6956 40.7 18.5466 40.7 19.9727C40.7 21.4918 38.2785 23.464 34.3474 24.7528ZM32.7162 27.9509C33.1136 29.9374 33.1704 31.7334 32.9071 33.1374C32.6705 34.3989 32.1948 35.24 31.6067 35.5768C30.355 36.2937 27.6782 35.3619 24.7916 32.9041C24.4606 32.6224 24.1272 32.3215 23.7928 32.0033C24.912 30.7922 26.0304 29.3841 27.122 27.8207C29.0422 27.6522 30.8561 27.3765 32.5012 27.0003C32.5821 27.3238 32.6541 27.6408 32.7162 27.9509ZM16.2198 35.453C14.9969 35.8803 14.023 35.8925 13.4343 35.5567C12.1814 34.8419 11.6608 32.0819 12.3711 28.3801C12.4555 27.9427 12.5522 27.5076 12.6611 27.0755C14.2879 27.4315 16.0887 27.6876 18.0134 27.8421C19.1122 29.372 20.263 30.7782 21.4227 32.0097C21.1762 32.2456 20.9239 32.4755 20.666 32.6991C19.125 34.032 17.5806 34.9774 16.2198 35.453ZM10.4908 24.7435C8.55412 24.0885 6.95476 23.2374 5.85845 22.3087C4.87342 21.4739 4.37598 20.6452 4.37598 19.9727C4.37598 18.5419 6.5322 16.7167 10.1284 15.4762C10.5797 15.3211 11.0356 15.1792 11.4953 15.0506C11.9924 16.6501 12.6444 18.3224 13.4311 20.0135C12.6342 21.7299 11.9729 23.4288 11.4713 25.0471C11.142 24.9539 10.8151 24.8526 10.4908 24.7435ZM12.4113 11.8095C11.6648 8.03511 12.1605 5.18799 13.4079 4.47355C14.7368 3.71251 17.6749 4.79772 20.7716 7.51825C20.9696 7.69216 21.1684 7.87425 21.3675 8.06259C20.2137 9.28851 19.0735 10.6842 17.9842 12.2052C16.1163 12.3765 14.3281 12.6516 12.6843 13.0202C12.583 12.6189 12.492 12.2153 12.4113 11.8095ZM29.5435 15.9951C29.1552 15.3315 28.7525 14.6763 28.3357 14.0299C29.603 14.1882 30.8171 14.3986 31.9572 14.6562C31.615 15.7415 31.1884 16.8765 30.686 18.04C30.3189 17.3509 29.938 16.6691 29.5435 15.9951ZM22.557 9.26224C23.3395 10.101 24.1233 11.0377 24.8942 12.0539C23.3304 11.9808 21.7639 11.9804 20.2 12.0529C20.9717 11.0461 21.7621 10.1108 22.557 9.26224ZM15.5257 16.0066C15.136 16.6753 14.7622 17.3528 14.4046 18.0388C13.9105 16.8793 13.4877 15.7393 13.1425 14.6384C14.2757 14.3875 15.4842 14.1824 16.7433 14.0268C16.3218 14.6772 15.9158 15.3373 15.5257 16.0066ZM16.7795 26.0384C15.4787 25.8948 14.252 25.7001 13.1191 25.4562C13.4698 24.3358 13.9019 23.1713 14.4065 21.9869C14.7657 22.6734 15.1411 23.3514 15.5325 24.0203C15.9319 24.7027 16.3477 25.3756 16.7795 26.0384ZM22.6039 30.8017C21.7997 29.9431 20.9977 28.9935 20.2143 27.9722C20.9747 28.0017 21.75 28.0167 22.538 28.0167C23.3476 28.0167 24.1479 27.9988 24.9355 27.964C24.1621 29.004 23.3812 29.9549 22.6039 30.8017ZM30.7022 21.9266C31.233 23.1238 31.6805 24.2821 32.0359 25.3835C30.8843 25.6435 29.641 25.8528 28.331 26.0083C28.7508 25.3498 29.1573 24.6832 29.5503 24.0087C29.9498 23.3232 30.3339 22.629 30.7022 21.9266ZM28.0805 23.1701C27.4789 24.2041 26.8434 25.2186 26.1751 26.2118C24.9967 26.2951 23.779 26.3381 22.538 26.3381C21.3021 26.3381 20.0998 26.3 18.942 26.2257C18.2564 25.2348 17.6089 24.2186 17.0009 23.1793C16.3958 22.1455 15.8306 21.0893 15.3065 20.013C15.8293 18.9364 16.3928 17.8797 16.9958 16.845V16.8454C17.5987 15.8105 18.2411 14.7986 18.9216 13.812C20.1028 13.7236 21.3139 13.6774 22.5382 13.6774C23.7679 13.6774 24.9805 13.724 26.1614 13.813C26.835 14.7982 27.4733 15.8065 28.075 16.8362C28.6802 17.8685 29.2512 18.9201 29.7873 19.9892C29.2567 21.0692 28.6873 22.1302 28.0805 23.1701ZM31.5807 4.42364C32.9106 5.18259 33.4279 8.24294 32.5923 12.2563C32.5375 12.5178 32.478 12.7782 32.4137 13.0375C30.766 12.6614 28.9766 12.3814 27.1032 12.2075C26.0118 10.6699 24.8811 9.27181 23.7459 8.06172C24.0434 7.77799 24.3479 7.50162 24.6592 7.23285C27.5915 4.70799 30.332 3.71112 31.5807 4.42364Z" fill="white"/>
<path d="M22.5378 16.4634C24.4966 16.4634 26.0844 18.0345 26.0844 19.9724C26.0844 21.9105 24.4966 23.4817 22.5378 23.4817C20.5792 23.4817 18.9912 21.9105 18.9912 19.9724C18.9912 18.0345 20.5792 16.4634 22.5378 16.4634Z" fill="#313131"/>
</svg>
